<svg width="86" height="86" viewBox="0 0 86 86" fill="none" xmlns="http://www.w3.org/2000/svg">
<path d="M32.73 1.12955V25.2807C32.742 27.3705 32.9407 28.3861 35.4843 28.3861C36.9864 28.3861 38.4885 28.3024 39.9493 28.3861C42.4047 28.5455 42.1159 30.5212 42.0805 32.5174L42.0775 32.8382V42.5393C41.2009 40.6915 38.3391 41.3215 36.2572 41.6154C34.8692 41.8116 33.0119 41.7698 30.6855 41.4894C29.5574 41.3275 29.0519 40.7737 28.9055 39.7148L28.891 39.5998V11.881C17.1235 17.3407 9.3623 29.562 9.3623 42.6235C9.3623 59.0881 21.6722 73.5775 37.8311 76.025L38.3217 76.0957V58.3724C38.3217 57.5327 38.6554 56.6925 37.7375 56.6925L36.9286 56.7149C35.1889 56.7662 33.8367 56.833 32.872 56.9151L32.73 56.9276C31.0964 57.075 29.0175 56.7657 28.9348 54.9971L28.9328 54.8866L28.9324 42.1L28.9368 42.1722C28.9886 42.8257 29.3303 43.3153 29.9628 43.519L30.0594 43.5473C32.1025 44.0315 34.7845 43.8213 36.7822 43.6151L38.0358 43.4791C39.8293 43.2938 41.7204 43.248 42.0352 44.9753L42.0775 56.6925H43.997V44.9753C43.997 43.4901 46.2726 43.0797 49.4597 43.5229L49.9239 43.5892C53.0222 44.0145 56.9121 44.0623 57.1342 42.0651L57.1412 41.9735V54.8866C57.1412 58.3331 49.3083 56.4425 48.1239 56.7647L48.086 56.7767C47.6049 56.938 47.5681 57.721 47.576 58.2265L47.5855 58.5826V76.1794C63.9849 73.9536 76.5454 59.2963 76.5454 42.7076C76.5454 29.818 69.0198 17.7113 57.4514 12.1321L57.0998 11.9652V39.6421C57.0998 40.5655 56.6825 41.3634 55.7227 41.5736C53.7031 41.98 51.0993 41.8335 49.0836 41.6782L48.0143 41.592C46.1217 41.4251 44.7391 41.1936 44.0075 42.5622L43.9552 42.6653V32.8382C43.9552 31.4521 43.5667 28.8468 44.9946 28.3861C46.4225 27.9254 53.204 29.7507 53.2603 27.126C53.344 23.2486 53.3022 18.6008 53.3022 14.5272C53.3022 10.1174 53.344 5.70766 53.344 1.25555C71.0369 5.79133 84.1397 21.7928 85.2663 40.0196C86.5184 61.9007 70.3695 81.7651 48.7539 84.7051C24.8015 87.9808 2.43486 69.6698 0.766375 45.3951C-0.65308 25.0267 13.0758 6.08569 32.73 1.12955ZM47.5437 0.415833L47.5855 26.5801H38.3217L38.4467 0.415833H47.5437Z" fill="#009882"/>
</svg>
