<svg width="500" height="500" viewBox="0 0 500 500" fill="none" xmlns="http://www.w3.org/2000/svg">
<path d="M0 0.62085H498.758V269.866L474.071 308.439L498.758 342.77V499.379H0V245.564L15.4295 227.82L0 210.848V0.62085Z" fill="#006FCF"/>
<path d="M96.8203 348.17V269.865H179.73L188.626 281.462L197.815 269.865L498.758 269.866V342.77C498.758 342.77 490.888 348.092 481.786 348.17H315.148L305.118 335.827V348.17H272.254V327.099C272.254 327.099 267.764 330.041 258.059 330.041H246.872V348.17H197.112L188.229 336.325L179.21 348.17H96.8203Z" fill="white"/>
<path d="M0 210.848L18.6966 167.26H51.0303L61.6408 191.676V167.26H101.835L108.151 184.907L114.275 167.26H294.703V176.131C294.703 176.131 304.188 167.26 319.776 167.26L378.319 167.464L388.746 191.561V167.26H422.382L431.64 181.101V167.26H465.585V245.564H431.64L422.768 231.678V245.564H373.349L368.379 233.221H355.094L350.205 245.564H316.69C303.277 245.564 294.703 236.873 294.703 236.873V245.564H244.172L234.143 233.221V245.564H46.2403L41.2739 233.221H28.0307L23.0994 245.564L0 245.564V210.848Z" fill="white"/>
<path d="M25.3138 176.913L0.0961914 235.545H16.5141L21.1671 223.804H48.2169L52.8458 235.545H69.6254L44.4319 176.913H25.3138ZM34.6438 190.558L42.8889 211.075H26.3745L34.6438 190.558Z" fill="#006FCF"/>
<path d="M71.3613 235.535V176.903L94.6921 176.99L108.262 214.792L121.507 176.903H144.651V235.535H129.993V192.333L114.456 235.535H101.6L86.0193 192.333V235.535H71.3613Z" fill="#006FCF"/>
<path d="M154.681 235.535V176.903H202.512V190.018H169.493V200.047H201.741V212.391H169.493V222.806H202.512V235.535H154.681Z" fill="#006FCF"/>
<path d="M210.999 176.913V235.545H225.657V214.715H231.828L249.404 235.545H267.316L248.029 213.944C255.945 213.276 264.11 206.482 264.11 195.935C264.11 183.596 254.426 176.913 243.617 176.913H210.999ZM225.657 190.028H242.412C246.431 190.028 249.355 193.172 249.355 196.2C249.355 200.095 245.567 202.372 242.629 202.372H225.657V190.028Z" fill="#006FCF"/>
<path d="M285.06 235.535H270.093V176.903H285.06V235.535Z" fill="#006FCF"/>
<path d="M320.548 235.535H317.317C301.687 235.535 292.196 223.221 292.196 206.46C292.196 189.286 301.58 176.903 321.319 176.903H337.52V190.79H320.727C312.714 190.79 307.047 197.043 307.047 206.605C307.047 217.96 313.527 222.729 322.862 222.729H326.72L320.548 235.535Z" fill="#006FCF"/>
<path d="M352.443 176.913L327.226 235.545H343.644L348.296 223.804H375.346L379.975 235.545H396.755L371.561 176.913H352.443ZM361.773 190.558L370.018 211.075H353.504L361.773 190.558Z" fill="#006FCF"/>
<path d="M398.467 235.535V176.903H417.103L440.898 213.741V176.903H455.556V235.535H437.523L413.125 197.733V235.535H398.467Z" fill="#006FCF"/>
<path d="M106.849 338.141V279.509H154.681V292.624H121.661V302.653H153.909V314.997H121.661V325.412H154.681V338.141H106.849Z" fill="#006FCF"/>
<path d="M341.223 338.141V279.509H389.055V292.624H356.035V302.653H388.129V314.997H356.035V325.412H389.055V338.141H341.223Z" fill="#006FCF"/>
<path d="M156.537 338.141L179.826 309.187L155.982 279.509H174.45L188.65 297.856L202.898 279.509H220.642L197.112 308.825L220.443 338.141H201.979L188.191 320.084L174.739 338.141H156.537Z" fill="#006FCF"/>
<path d="M222.185 279.519V338.151H237.228V319.635H252.658C265.713 319.635 275.609 312.709 275.609 299.24C275.609 288.081 267.848 279.519 254.562 279.519H222.185ZM237.228 292.779H253.478C257.695 292.779 260.71 295.364 260.71 299.529C260.71 303.442 257.71 306.279 253.429 306.279H237.228V292.779Z" fill="#006FCF"/>
<path d="M281.974 279.509V338.141H296.632V317.311H302.804L320.379 338.141H338.292L319.005 316.54C326.92 315.872 335.085 309.078 335.085 298.531C335.085 286.193 325.401 279.509 314.593 279.509H281.974ZM296.632 292.624H313.388C317.407 292.624 320.331 295.768 320.331 298.796C320.331 302.691 316.543 304.968 313.605 304.968H296.632V292.624Z" fill="#006FCF"/>
<path d="M395.844 338.141V325.412H425.179C429.52 325.412 431.399 323.066 431.399 320.494C431.399 318.029 429.525 315.537 425.179 315.537H411.923C400.4 315.537 393.982 308.517 393.982 297.976C393.982 288.575 399.859 279.509 416.982 279.509H445.527L439.355 292.701H414.668C409.948 292.701 408.496 295.178 408.496 297.542C408.496 299.973 410.291 302.653 413.896 302.653H427.783C440.628 302.653 446.202 309.939 446.202 319.481C446.202 329.739 439.991 338.141 427.083 338.141H395.844Z" fill="#006FCF"/>
<path d="M449.642 338.141V325.412H478.977C483.318 325.412 485.197 323.066 485.197 320.494C485.197 318.029 483.324 315.537 478.977 315.537H465.721C454.198 315.537 447.781 308.517 447.781 297.976C447.781 288.575 453.658 279.509 470.78 279.509H499.325L493.153 292.701H468.466C463.747 292.701 462.294 295.178 462.294 297.542C462.294 299.973 464.089 302.653 467.694 302.653H481.581C494.426 302.653 500 309.939 500 319.481C500 329.739 493.789 338.141 480.882 338.141H449.642Z" fill="#006FCF"/>
</svg>
