<svg width="92" height="75" viewBox="0 0 92 75" fill="none" xmlns="http://www.w3.org/2000/svg">
<path d="M47.5 32.1001C49.75 32.1001 50.3 30.0001 52.65 30.0001H53.05C54.3 30.0001 54.95 30.7001 55.6 31.3501C56 31.8001 57.15 32.9501 57.7 33.1001C57.75 32.9001 57.9 32.3501 58.05 32.3501H58.45V32.5001C58.45 33.5501 57.55 33.4501 56.7 33.4501H56.2C55.9 33.4501 55.25 34.4501 54.7 34.4501H53.3C51.85 34.4501 51.45 34.0501 50.55 33.4501C50.4 33.3501 49.5 32.6501 49.5 32.6501C49.35 32.6001 48.4 32.9001 47.95 32.9001H47.15C45.5 32.9001 44.6 32.3001 43.95 31.3001C44.8 31.3001 45.2 32.0501 46.25 32.0501H47.5V32.1001ZM51 31.9501C51.35 31.7501 52.65 31.0001 53.1 31.0001H53.85C53.65 31.7501 53.15 31.8001 53.15 32.2001V32.7501C53.15 33.3001 53.75 33.6001 54.4 33.6001C55.65 33.6001 55.4 32.7501 56.05 32.7001C56 33.2501 55.45 33.6001 55.05 33.8001C54.6 34.0501 53.8 34.0001 53.25 33.9001C52.05 33.6001 51.25 33.0501 51 31.9501ZM0.5 57.2501C0.9 57.0501 1.4 57.0001 2 57.0001H4C4.65 57.0001 4.75 57.2001 5.1 57.4501C5.5 57.7501 5.5 57.9501 5.45 58.5001C5.4 59.3501 4.85 60.3501 4.85 60.9501H4.75C4.75 61.3501 4.55 62.0001 4.45 62.5001C4.35 62.9501 4.35 63.7501 4.35 64.2501V66.0001C3.2 65.7001 0.5 59.2501 0.5 57.2501ZM0.5 50.9501V53.1501L0.75 55.7501C1.55 55.7001 3.55 53.2001 4.3 52.6001C5 52.0001 5.75 51.9001 6.55 51.5001C7.05 51.2501 8.45 50.7501 8.45 50.1001V50.0501C8.45 48.6501 4.8 48.2501 3.1 48.2501C3.25 47.7501 5.1 46.4001 5.7 46.2501C6 46.2001 6.95 45.7501 7.35 45.6001C7.6 45.5001 8.8 45.1001 9.1 45.1001V45.0001C9.75 45.0001 11.1 44.3501 11.75 44.2001C11.95 44.1501 12.7 43.7501 12.9 43.6501C13.25 43.4501 13.55 43.1501 13.55 42.6001V42.2501C13.55 41.8001 12.3 40.9501 11.75 40.9501V40.8501L9.6 40.5001L9.35 40.5501C9.5 39.9001 11.15 39.3001 11.85 39.1001C12.85 38.7501 13.95 38.6501 15.15 38.4501C17 38.2001 20.3 37.7501 20.3 35.7001V35.6501C20.3 34.4001 18.15 33.8501 16.8 33.8501C17.05 32.8501 19.75 32.4001 21.15 32.4001H25.65V32.9001H27.7C27.7 31.8501 27.3 31.2001 26.75 30.6501C26.35 30.2501 26.25 30.2501 25.75 30.0501C25.35 29.8501 24.75 29.8001 24.55 29.7001L24.9 29.3001L25.65 29.2501H26.3C27.8 29.2501 29.15 29.3001 30.45 29.5001C31.15 29.6001 31.7 29.7001 32.3 29.9001C32.8 30.0501 33.55 30.2001 34.2 30.1501L35.85 30.0001H36.35C36.15 29.3501 35.2 28.9501 34.6 28.6501C34.35 28.5001 32.5 27.9501 32.15 27.9501V27.8501L32.1 27.9001L31.05 27.4001C32.25 27.2501 35.7 26.6501 36.55 26.8501C37.4 27.0501 38.35 27.1001 39.25 27.3001C40.05 27.4501 40.95 27.6501 41.95 27.6501H42.75C42.65 27.2001 41 26.0001 40.55 25.8501C39.95 25.6501 38.5 24.7001 37.75 24.7001C37.65 24.5001 36.7 24.3001 36.5 24.2501C35.9 24.1501 35.7 24.0501 35.2 23.9001C34.3 23.6501 33.45 23.4501 32.3 23.4501H31.35C30.6 23.4501 29.9 23.5501 29.2 23.4501C28.4 23.3001 28.2 22.9001 27.7 22.7501V21.0001C27.55 20.9501 27.05 20.3001 26.9 20.1501C26.6 19.9001 26.35 19.6501 26.05 19.4001C25.6 18.9501 24.9 18.1501 24.9 17.3001V16.8001C24.9 16.4501 25.15 16.2501 25.5 16.2501H25.65C26.45 16.2501 27.5 16.8501 28.1 17.1501C28.3 17.2501 30.25 18.3501 30.25 17.9501V16.3001C31.4 16.3001 32.05 17.1501 32.6 17.7501C33.1 18.3001 33.75 19.5001 34.25 19.9001C34.35 20.0001 34.6 20.2501 34.7 20.4001C34.75 20.4501 34.85 20.6001 34.9 20.6501C35 20.7501 35 20.7001 35.15 20.8501C35.55 21.2501 35.85 21.3501 36.35 21.6001C37.2 22.0001 38 22.5001 38.85 22.9001C39.25 23.1001 39.7 23.3501 40.1 23.6001C40.45 23.8001 41 24.0001 41.35 24.2501C42.15 24.7501 43.05 25.0501 43.85 25.5501C44.65 26.0501 45.55 26.3501 46.35 26.8501C46.65 27.0501 48.65 28.1001 48.85 28.1501C48.75 27.2501 47.85 25.8501 47.35 25.3501C46.9 24.9001 45.2 23.8001 45.1 23.3001H45.7C46.3 23.3001 47.4 23.6501 47.85 23.8501L48.75 24.3001C49.1 24.5001 49.2 24.6501 49.5 24.8501C50.15 25.3001 51.65 27.0501 51.85 27.8501L53.8 27.5501L54.35 27.6001C60.2 27.6001 57.15 32.5001 63.8 32.5001H67.1C67.85 32.5001 69.1 31.5501 69.65 31.2501C69.95 31.1001 71.85 29.9001 71.95 29.7001H73.2C73.45 29.7001 73.55 28.7001 73.55 28.4001C73.55 27.9001 72.2 27.2001 71.85 26.9501C71.55 26.9501 71.35 26.8001 71.1 26.7001C70.75 26.6001 70.7 26.6001 70.25 26.5501C69.75 26.4501 69.15 26.3501 68.6 26.3001C67.3 26.2501 66.1 26.2501 64.9 26.1501C62.7 26.0001 60.65 25.1001 59 24.3501C57.2 23.5501 50.55 19.4001 50.15 17.7501C50.65 18.0001 51.1 18.4001 51.55 18.7501C51.8 18.9001 52 19.1001 52.25 19.2501C52.3 19.3001 52.85 19.7001 52.9 19.7001C53.3 20.0001 53.85 20.4001 54.25 20.7001C54.65 20.9501 55.25 21.4001 55.65 21.6501C57.65 22.8001 59.8 23.6501 62.2 24.4501C64.2 25.1501 68.15 25.0501 70.7 25.2501C72.15 25.3501 73.35 25.7001 74.3 26.3001C74.8 26.6001 75.2 26.9501 75.45 27.4501C75.6 27.7501 75.7 27.9501 75.8 28.3001C75.9 28.5001 75.9 29.2001 76 29.2001C76.5 29.2001 77.15 28.0501 77.4 27.7001C77.75 27.1001 78.05 26.4001 78.05 25.5001V25.0001C78.05 24.3001 77.3 23.7001 76.8 23.4501C75.9 23.1001 75.6 23.0501 74.55 22.9001C72.8 22.7001 71.2 22.6501 69.7 22.1501C68.3 21.7001 66.9 21.3001 65.65 20.6001C65.1 20.2501 64.5 19.8501 64.05 19.4001C63.85 19.2001 62.9 18.1001 62.85 17.8001C63.45 18.1001 63.8 18.4001 64.3 18.7501C64.75 19.0501 65.2 19.5001 65.75 19.7501C66.95 20.2501 67.8 20.7001 69.25 21.1001C70.35 21.4001 72.1 21.7001 73.45 21.7001C74.1 21.7001 75.1 21.7501 75.8 21.8001C76.5 21.8501 77.35 22.1501 77.8 22.1501C78.25 22.4501 78.55 22.4501 78.95 22.8501C79.2 23.1001 79.5 23.6501 79.5 24.1501V26.6001C79.5 27.4001 77.5 29.4501 77.5 30.1501V30.3001C77.5 30.4501 78.05 31.0501 78.2 31.2001C78.35 31.4001 78.45 32.1001 78.55 32.4001C78.7 32.8001 78.7 33.2501 78.85 33.6501C79 34.0501 79.3 34.2501 79.3 34.7501V35.7501C79.2 35.8001 77.6 38.5001 76.75 38.6001V38.2001C76.75 37.4001 76.05 37.2001 75.3 37.3001C74.5 37.4001 73.7 37.3501 72.95 37.3001C71.6 37.2501 70.4 36.5501 68.8 36.5501H68.4C67.75 36.5501 67.1 36.7001 66.55 36.8001C66.25 36.9001 66 36.8501 65.65 37.0001C65.45 37.1001 65.1 37.2001 64.85 37.2001L64.2 37.5501L64.25 37.6001H66.2C66.85 37.6001 67.6 37.6501 68.2 37.7001C68.8 37.7501 69.4 38.0501 69.95 38.0501V38.1501C70.4 38.1501 72.15 38.8501 72.55 39.0501C73.1 39.3001 74.55 39.8501 75.3 39.8501H75.95C76.65 39.8501 77.2 39.7001 77.75 39.5001C78 39.4001 79.1 38.9001 79.3 38.9001H79.45C79.3 39.5501 78.2 40.1001 77.55 40.3001C76.7 40.5501 75.6 40.5501 74.5 40.5501H74.2C72.85 40.5501 71.55 40.1001 70.35 39.8501C69.25 39.6001 67.65 39.2501 66.4 39.2501H65.4C64.9 39.2501 64.65 39.4001 64.25 39.5001V39.6001C64.35 39.6001 66.7 41.4001 67.05 41.6001C67.5 41.9001 69.7 43.3001 70.15 43.3001H70.3V43.4001H72.65C73.25 43.4001 73.95 42.3501 73.95 41.7001C74.2 41.7001 74.45 41.8001 74.45 42.1001V43.4001H74.85C75.55 43.4001 76.25 43.7001 76.25 44.4001V44.5501C76.25 45.7501 75.7 46.6001 75.15 47.2501C74.65 47.9001 73.65 48.4001 72.6 48.5001C72.6 49.5001 71.1 50.8001 70.55 51.4001C70.05 51.9501 68.3 53.1001 67.35 53.1001C67.85 52.3501 68.7 51.9501 69.35 51.3001C70 50.6501 70.6 50.0501 70.6 48.7501L66.65 48.2001V48.2501C65.3 49.1501 63.55 51.6001 61.3 51.6001H61.15C61.2 50.9501 61.9 50.1501 61.9 49.3501V48.8001C61.9 48.0001 60.95 47.7501 60.15 47.7501C59.15 47.7501 56.6 49.6001 55.7 50.0501C54.75 50.5001 52.2 52.1001 51 52.1001H50.7C50.85 51.4501 51.35 51.0501 51.7 50.5501C52.05 50.0001 52.35 49.6001 52.65 48.9501C52.85 48.4501 53.15 47.5001 52.95 46.9001C52.75 46.4001 52.2 45.7501 51.55 45.7501H51.5C50.9 45.7501 49.05 47.5501 48.6 48.0001C48.45 48.1501 48.4 48.2501 48.3 48.3501L48 48.6501C47.8 48.8501 47.6 49.1501 47.4 49.3501C47.25 49.6001 46.3 50.3001 46 50.5001C45.75 50.6501 45.5 50.8501 45.25 51.0501C44.95 51.2501 44.7 51.1501 44.3 51.4001C43.9 51.7501 43.1 52.0001 42.6 52.2501C41.75 52.6501 39.6 53.1001 38.35 53.1001C39.45 51.4501 42.7 49.9001 42.7 47.3501V47.0001C42.7 46.3001 41.9 45.9001 41.2 45.9001C37.7 45.9001 34.4 47.6001 32.65 49.3501C31.45 50.6001 30.95 51.2501 30.05 52.7501C29.45 53.8001 28.8 55.8001 28.8 57.5001V59.7001C28.8 60.8501 29.05 62.2001 29.3 63.1001C29.65 64.2501 29.95 64.9001 30.4 65.9001C30.8 66.7001 31.4 67.6001 31.9 68.3001C32.2 68.7001 33.4 70.1001 33.75 70.3001C33.95 70.4501 34.45 71.0001 34.8 71.2501C35 71.4001 35.15 71.5001 35.35 71.6501C35.45 71.7501 35.8 71.9501 35.9 72.0501C36 72.1501 37 72.8001 37.1 72.8001C37.5 73.0001 38 73.2501 38.35 73.4501C39.2 73.8501 40.2 74.2501 41.25 74.4501C41.8 74.5501 42.25 74.7001 42.8 74.8001C43.15 74.8501 44.35 74.8501 44.55 75.0001H50.65C50.7 74.9501 52.8 74.8001 53.05 74.7501C53.7 74.6501 54.6 74.5001 55.2 74.3501C56.55 74.0001 57.95 73.6001 59.2 73.1001C61.7 72.1001 64.05 71.0501 66.25 69.6501C70.55 67.0001 74.6 64.0001 77.8 60.2501L80.2 57.4001C80.5 57.0501 81.15 56.2501 81.4 55.9501C81.75 55.4501 82.2 54.9501 82.5 54.4501C83.2 53.4001 84 52.4501 84.65 51.3501C85 50.8001 85.3 50.2001 85.6 49.6501C86 49.0501 86.15 48.5001 86.45 47.9001C86.7 47.4501 87 46.6001 87.25 46.0501C87.5 45.4501 87.75 44.8001 88 44.2001C88.3 43.6001 88.5 42.9001 88.75 42.3001C88.95 41.8501 89.35 40.9501 89.45 40.4001C89.6 39.7501 89.9 39.0501 90.1 38.4001C90.3 37.7501 90.5 37.0001 90.65 36.3501C90.7 36.0501 90.8 35.5501 90.85 35.2501C90.9 34.9001 91 34.5501 91.05 34.1501C91.1 33.8501 91.2 31.9501 91.3 31.8001V25.0001C91.2 24.8501 91.15 23.5001 91.05 23.1501C90.95 22.6501 90.7 21.9501 90.7 21.4501H90.6C90.6 20.6501 89.35 17.8001 89.05 17.1001C88.5 15.8501 87.65 14.4001 86.95 13.3001C86.35 12.3001 85.15 10.7501 84.4 9.9501C83.95 9.4501 83.4 8.9501 82.9 8.5001C82.5 8.1501 81.65 7.5501 81.2 7.2501C80.9 7.0501 80.65 6.8501 80.3 6.6501C79.95 6.4501 79.75 6.3001 79.45 6.0501C78.9 5.7001 78.05 5.3501 77.55 5.0001C76.7 4.4001 74.65 3.5001 73.55 3.1001C72.85 2.8501 72.2 2.4501 71.4 2.2501C70.6 2.0501 69.85 1.8001 69.1 1.6001C68.3 1.4001 67.45 1.2501 66.65 1.1001C66.35 1.0501 64.05 0.900098 64 0.850098H57.5C57.45 0.850098 55 1.0501 54.75 1.0501C53.9 1.1501 53.1 1.3001 52.2 1.4001C51.45 1.5001 50.55 1.7501 49.7 1.8501C49.1 1.9501 48 2.2501 47.35 2.4001C44.25 3.2001 41.3 4.1001 38.45 5.1501C37 5.7001 35.7 6.3001 34.3 6.8501C33.75 7.0501 32.8 7.5001 32.35 7.8001C32.05 8.0001 31.7 8.1501 31.4 8.3001C31.1 8.4501 30.75 8.6501 30.45 8.8001C27.6 10.0001 24.2 12.8501 21.7 14.7001C21.25 15.0501 20.45 15.6001 20.1 16.0001C19.15 16.9501 18 17.8001 17.05 18.8001C16.05 19.8001 15.15 20.8001 14.15 21.7501C13.65 22.2501 13.25 22.8001 12.8 23.3001C12.4 23.7001 11.75 24.4001 11.45 24.8501C10.65 25.9501 9.7 26.9501 8.9 28.1501C8.55 28.7001 8.05 29.3501 7.7 29.8501C7.35 30.4501 6.95 31.1001 6.6 31.6501C5.9 32.6001 5.1 34.3501 4.55 35.4501C4.45 35.6501 4.15 36.2501 4.1 36.4501C4 36.8001 3.75 37.1501 3.65 37.4501C3.55 37.7501 2.9 39.3501 2.8 39.5001C2.8 39.9001 2.1 41.5501 2 42.0501C1.8 43.0001 1.55 43.8001 1.35 44.8001C1.15 45.7501 0.95 46.7001 0.85 47.7001C0.7 48.2501 0.55 50.9001 0.5 50.9501Z" fill="#1D7A74"/>
</svg>
