<svg width="86" height="86" viewBox="0 0 86 86" fill="none" xmlns="http://www.w3.org/2000/svg">
<path d="M43.2 0.5C66.35 0.5 85.5 19.65 85.5 42.8C85.5 65.95 66.35 85.5 43.2 85.5C19.7 85.5 0.5 65.95 0.5 42.8C0.5 19.65 19.65 0.5 43.2 0.5ZM23 61.5H63V48.5H23V61.5ZM41.75 29.8C41.75 29.8 34.9 21.15 34.55 20.8C33.85 19.7 32.75 19.7 31.65 20.8C30.95 21.15 23 31.25 23 31.25V48.5L31.3 37.7C32.75 36.6 33.8 36.6 34.55 37.7C34.9 38.05 41.75 46.7 41.75 46.7C42.45 47.8 43.55 47.8 44.25 46.7C44.25 46.7 51.1 38.05 51.45 37.7C52.15 36.6 53.25 36.6 54.7 37.7L63 48.5V31.25L54.35 20.8C53.25 19.7 52.2 19.7 51.45 20.8C51.1 21.15 44.25 29.8 44.25 29.8C43.9 30.5 43.55 30.5 43.15 30.5C42.45 30.5 42.1 30.5 41.75 29.8Z" fill="#E30016"/>
</svg>
