<svg width="86" height="86" viewBox="0 0 86 86" fill="none" xmlns="http://www.w3.org/2000/svg">
<path d="M42.5 0.5C19 0.5 0.5 19.726 0.5 43C0.5 66.78 19.5 85.5 42.5 85.5C53.5 85.5 61 81.4525 64.5 79.4285C72.5 74.369 77 67.2855 76 60.2025C75 54.131 69.5 49.5775 62.5 47.5535C62 47.5535 61 47.0475 60.5 47.0475C64 45.024 66 42.494 66.5 38.9525C67.5 31.363 59 23.774 47.5 22.256C37 20.738 28.5 21.75 25.5 21.75V35.4105C31.5 34.399 39.5 34.399 46 35.4105C51.5 36.4225 55 38.4465 55.5 40.976C55.5 41.482 55.5 42.494 55 43C53.5 45.024 51 45.024 49 44.518C42 43.506 34 43.506 26 44.518V58.1785C33.5 57.1665 46 57.1665 52 58.1785C57.5 59.1905 61 61.72 61.5 64.756C61.5 66.274 61 67.286 60 68.8035C58 71.3335 52 73.8635 43.5 73.8635C26.5 73.8635 12.5 59.6965 12.5 42.494C12.5 25.2915 26.5 11.125 43.5 11.125C60.5 11.125 74.5 25.2915 74.5 42.494V46.0355C76.5 47.0475 80 49.5775 84 54.1305C85 50.5895 85.5 46.5415 85.5 42.494C85 19.22 66 0.5 42.5 0.5Z" fill="#E50012"/>
</svg>
