<svg width="86" height="86" viewBox="0 0 86 86" fill="none" xmlns="http://www.w3.org/2000/svg">
<path d="M43 0.5C66.472 0.5 85.5 19.528 85.5 43C85.5 66.472 66.472 85.5 43 85.5C19.528 85.5 0.5 66.472 0.5 43C0.5 19.528 19.528 0.5 43 0.5ZM9.797 43C9.797 59.76 22.2145 73.62 38.3515 75.88V60.2655H29.914C25.772 60.2655 22.414 56.908 22.414 52.7655V33.235C22.414 29.0925 25.772 25.735 29.914 25.735L38.3515 25.7345V10.1195C22.2145 12.3805 9.7965 26.24 9.7965 43H9.797ZM47.6485 10.12L47.648 25.734H56.086C60.228 25.734 63.586 29.092 63.586 33.234V52.7655C63.586 56.908 60.228 60.2655 56.086 60.2655H47.648L47.6485 75.8805C63.7855 73.6195 76.2035 59.76 76.2035 43C76.2035 26.4075 64.0325 12.658 48.1315 10.191L47.6485 10.1195V10.12ZM52.289 35.031H33.711C33.1979 35.031 32.7044 35.2282 32.3326 35.5819C31.9608 35.9355 31.7392 36.4185 31.7135 36.931L31.711 37.031V48.969C31.711 49.4821 31.9082 49.9756 32.2619 50.3474C32.6155 50.7192 33.0985 50.9408 33.611 50.9665L33.711 50.969H52.289C52.8021 50.969 53.2956 50.7718 53.6674 50.4181C54.0392 50.0645 54.2608 49.5815 54.2865 49.069L54.289 48.969V37.0315C54.289 36.5011 54.0783 35.9924 53.7032 35.6173C53.3281 35.2422 52.8194 35.0315 52.289 35.0315V35.031Z" fill="#B81C22"/>
</svg>
