<svg width="86" height="86" viewBox="0 0 86 86" fill="none" xmlns="http://www.w3.org/2000/svg">
<path d="M5.694 84.6842C3.323 84.5712 1.2905 82.5367 1.1775 80.1632C0.274166 55.3609 0.274166 30.534 1.1775 5.73167C1.2905 3.35767 3.3225 1.32317 5.694 1.21017C30.4711 0.305919 55.2729 0.305919 80.05 1.21017C82.4215 1.32317 84.454 3.35767 84.567 5.73167C85.4703 30.534 85.4703 55.3609 84.567 80.1632C84.454 82.5367 82.4215 84.5712 80.05 84.6842C55.2729 85.5884 30.4711 85.5884 5.694 84.6842Z" fill="#0F469B"/>
<path d="M42.2792 9.91315C53.0062 20.7076 63.7332 31.3891 74.4607 42.1836C52.7237 36.7581 31.2697 36.7581 10.0977 42.1836L42.2792 9.91315ZM58.3132 42.1271L55.2083 42.2402C39.6258 42.8051 29.5757 45.0661 36.5202 49.9261C44.8762 55.7476 30.7052 59.1386 27.9952 59.9296L42.2792 74.3411L74.4607 42.0706H58.3132V42.1271Z" fill="white"/>
</svg>
