<svg width="86" height="86" viewBox="0 0 86 86" fill="none" xmlns="http://www.w3.org/2000/svg">
<path d="M36.65 60.5C36.65 60.5 37.05 57.65 38.6 54.2H45.45C46.95 57.65 47.4 60.5 47.4 60.5H56.5C51.25 43.35 52.8 30.75 52.8 30.75H48.05L52.3 22.5H31.75L36 30.75H31.25C31.25 30.75 32.75 43.35 27.55 60.5H36.65ZM27.3 34.7H16.9C20.4 23.75 30.65 15.8 42.75 15.8C54.85 15.8 65.1 23.75 68.6 34.7H58.2V39.5H74.5C72.8 23.5 59.2 11 42.75 11C26.3 11 12.7 23.5 11 39.5H27.3V34.7ZM58.55 45V49.75H69.45C66.5 61.5 55.8 70.2 43.05 70.2C30.3 70.2 19.55 61.5 16.65 49.75H27.55V45H11C11.9 61.7 25.9 75 43 75C60.1 75 74.1 61.7 75 45H58.55ZM43.25 80.5C22.4 80.5 5.5 63.6 5.5 42.75C5.5 21.9 22.4 5 43.25 5C64.1 5 81 21.9 81 42.75C81 63.6 64.1 80.5 43.25 80.5ZM43 0.5C19.55 0.5 0.5 19.55 0.5 43C0.5 66.45 19.55 85.5 43 85.5C66.45 85.5 85.5 66.45 85.5 43C85.5 19.55 66.45 0.5 43 0.5Z" fill="#F5AB00"/>
</svg>
