<?xml version="1.0" standalone="no"?><!DOCTYPE svg PUBLIC "-//W3C//DTD SVG 1.1//EN" "http://www.w3.org/Graphics/SVG/1.1/DTD/svg11.dtd"><svg t="1722074313664" class="icon" viewBox="0 0 1024 1024" version="1.1" xmlns="http://www.w3.org/2000/svg" p-id="20117" xmlns:xlink="http://www.w3.org/1999/xlink" width="256" height="256"><path d="M564.48 538.88L457.272889 512l-31.004445 124.16 104.391112 25.216a67.598222 67.598222 0 0 0 74.695111-47.232 59.192889 59.192889 0 0 0-40.903111-75.249778z" fill="#F9934A" p-id="20118"></path><path d="M512 0C229.233778 0 0 229.233778 0 512s229.233778 512 512 512 512-229.233778 512-512A512 512 0 0 0 512 0z m225.194667 434.133333c-10.467556 62.933333-77.681778 83.84-77.681778 83.84a120.064 120.064 0 0 1 54.897778 138.368c-24.277333 97.28-134.257778 96.156444-163.2 88.888889l-43.690667-11.022222-23.338667 93.354667-57.884444-14.563556 23.324444-93.354667-37.333333-9.344-23.338667 93.368889-60.686222-15.317333 23.338667-93.354667L237.511111 666.595556l16.071111-64.426667 61.795556 15.317333c5.404444 1.493333 5.973333 0 6.912-4.849778 0.924444-4.864 74.680889-298.766222 74.680889-300.814222 0-2.062222 1.507556-5.603556-5.034667-7.281778l-64.796444-16.625777 14.563555-58.069334 117.831111 29.496889 24.277334-97.848889 56.007111 14.008889-24.277334 97.848889 44.444445 11.022222 24.462222-97.664 56.021333 13.824-24.462222 98.588445a298.766222 298.766222 0 0 1 62.549333 27.264c24.647111 16.056889 68.906667 44.999111 58.638223 107.733333z" fill="#F9934A" p-id="20119"></path><path d="M569.699556 349.368889l-69.091556-17.365333-29.496889 118.371555 75.619556 18.673778a62.179556 62.179556 0 0 0 77.297777-43.320889c12.330667-49.664-42.567111-73.571556-54.328888-76.373333z" fill="#F9934A" p-id="20120"></path></svg>