<?xml version="1.0" standalone="no"?><!DOCTYPE svg PUBLIC "-//W3C//DTD SVG 1.1//EN" "http://www.w3.org/Graphics/SVG/1.1/DTD/svg11.dtd"><svg t="1722074435233" class="icon" viewBox="0 0 1042 1024" version="1.1" xmlns="http://www.w3.org/2000/svg" p-id="25580" xmlns:xlink="http://www.w3.org/1999/xlink" width="260.5" height="256"><path d="M71.29597 214.893127c0-47.189369 11.820611-85.07117 35.461833-113.73848S223.753931 0 520.907342 0c297.153411 0 390.508317 72.487338 414.14954 101.154647 23.641222 28.667309 35.461834 66.54911 35.461833 113.73848V753.354542c0 13.514589-1.303059 25.688887-3.946409 36.653202a142.331328 142.331328 0 0 1-11.820611 31.645731 153.57487 153.57487 0 0 1-18.428984 27.736552c-7.017906 8.395426-14.892109 15.971786-23.641223 22.729081v98.604374c0 15.134105-4.78409 27.829628-14.482575 37.863186-9.586795 10.238325-23.213074 15.264411-40.674072 15.264411h-55.268338c-17.460997 0-31.515425-5.026087-42.070206-15.152721-10.536167-10.126634-15.748405-22.729081-15.748405-37.974876v-55.603411H297.376793v55.584795c0 15.15272-5.212238 27.848243-15.748405 37.881802-10.554782 10.238325-24.497519 15.264411-42.070207 15.264411H184.401534c-17.572688 0-31.087277-5.026087-40.785762-15.152721-9.586795-10.126634-14.482576-22.729081-14.482576-37.881801v-98.697449a152.23458 152.23458 0 0 1-23.641222-22.729081 159.420022 159.420022 0 0 1-18.428984-27.736552 142.331328 142.331328 0 0 1-11.820611-31.645731 155.324692 155.324692 0 0 1-3.927794-36.653202V214.893127z m729.396862-32.79987c-72.040575-12.304605-165.28379-18.466215-279.78549-18.466214-114.483085 0-207.744914 6.142995-279.785489 18.466214a74.460543 74.460543 0 0 0-61.913942 73.399481v208.899052a74.460543 74.460543 0 0 0 74.460543 74.460543H788.164846a74.460543 74.460543 0 0 0 74.460543-74.460543V255.492738a74.460543 74.460543 0 0 0-61.913942-73.399481z m-730.644076 51.415005a55.845407 55.845407 0 0 1 55.845407 55.845407v121.817448a55.845407 55.845407 0 0 1-55.845407 55.845408H55.845407a55.845407 55.845407 0 0 1-55.845407-55.845408v-121.817448a55.845407 55.845407 0 0 1 55.845407-55.845407h14.203349z m916.553436 0a55.845407 55.845407 0 0 1 55.845407 55.845407v121.817448a55.845407 55.845407 0 0 1-55.845407 55.845408h-14.203348a55.845407 55.845407 0 0 1-55.845407-55.845408v-121.817448a55.845407 55.845407 0 0 1 55.845407-55.845407H986.602192z" fill="#1677FF" p-id="25581"></path><path d="M232.689196 753.912996m-83.76811 0a83.768111 83.768111 0 1 0 167.536221 0 83.768111 83.768111 0 1 0-167.536221 0Z" fill="#FFFFFF" p-id="25582"></path><path d="M809.758403 753.912996m-83.768111 0a83.768111 83.768111 0 1 0 167.536222 0 83.768111 83.768111 0 1 0-167.536222 0Z" fill="#FFFFFF" p-id="25583"></path><path d="M271.929902 281.405006l32.576488-15.227181a18.615136 18.615136 0 0 1 24.75813 9.009726l138.924758 298.475086a18.615136 18.615136 0 0 1-8.99111 24.702285l-32.576488 15.227181a18.615136 18.615136 0 0 1-24.75813-9.009726l-138.924758-298.475085a18.615136 18.615136 0 0 1 8.99111-24.702286zM564.634296 281.405006l32.576488-15.227181a18.615136 18.615136 0 0 1 24.75813 9.009726l138.924758 298.475086a18.615136 18.615136 0 0 1-8.991111 24.702285l-32.576487 15.227181a18.615136 18.615136 0 0 1-24.758131-9.009726l-138.924757-298.475085a18.615136 18.615136 0 0 1 8.99111-24.702286z" fill="#1677FF" p-id="25584"></path><path d="M353.687578 46.537839m37.230272 0l260.6119 0q37.230271 0 37.230271 37.230272l0 0q0 37.230271-37.230271 37.230271l-260.6119 0q-37.230271 0-37.230272-37.230271l0 0q0-37.230271 37.230272-37.230272Z" fill="#FFFFFF" p-id="25585"></path></svg>