<?xml version="1.0" standalone="no"?><!DOCTYPE svg PUBLIC "-//W3C//DTD SVG 1.1//EN" "http://www.w3.org/Graphics/SVG/1.1/DTD/svg11.dtd"><svg t="1722074471191" class="icon" viewBox="0 0 1024 1024" version="1.1" xmlns="http://www.w3.org/2000/svg" p-id="26649" xmlns:xlink="http://www.w3.org/1999/xlink" width="256" height="256"><path d="M908.8 113.6H115.2c-62.4 0-112 51.2-112 112v107.2h1017.6v-107.2c0-60.8-49.6-112-112-112zM3.2 758.4v38.4c0 22.4 6.4 41.6 17.6 59.2 6.4 9.6 14.4 19.2 22.4 27.2 1.6 0 1.6 1.6 3.2 1.6 19.2 14.4 43.2 24 68.8 24H908.8c57.6 0 104-43.2 112-97.6h1.6V412.8H3.2v345.6z m136-227.2h316.8c16 0 30.4 12.8 30.4 30.4s-12.8 30.4-30.4 30.4H139.2c-16 0-30.4-12.8-30.4-30.4s12.8-30.4 30.4-30.4z m0 136h158.4c16 0 30.4 12.8 30.4 30.4 0 17.6-12.8 30.4-30.4 30.4H139.2c-16 0-30.4-12.8-30.4-30.4 0-17.6 12.8-30.4 30.4-30.4z" fill="#31C37C" p-id="26650"></path></svg>