<svg width="86" height="91" viewBox="0 0 86 91" fill="none" xmlns="http://www.w3.org/2000/svg">
<path d="M36.587 4.64524C46.3185 3.99524 51.6955 11.1707 54.779 14.5812L56.724 16.6872L74.526 35.7877L63.469 46.6067L42.844 25.8162L21.795 47.8782L42.2075 69.7292L63.6835 47.6672L66.565 47.5872C70.61 47.4892 77.8435 47.3702 81.1165 47.6672C84.3855 47.9637 85.2655 49.1902 85.5 49.9037C84.185 72.5487 65.6835 90.5002 43.041 90.5002C19.5445 90.5002 0.5 71.1702 0.5 47.3257C0.5 25.7077 16.155 7.80074 36.587 4.64574V4.64524ZM85.5 23.7167L76.523 32.4872L76.2335 32.1102C73.294 28.3007 48.74 -2.94326 38.683 3.04574L38.389 3.23424C39.2115 2.66074 60.028 -11.3298 85.5 23.7167Z" fill="#06569F"/>
</svg>
