<svg width="88" height="37" viewBox="0 0 88 37" fill="none" xmlns="http://www.w3.org/2000/svg">
<path d="M39.9016 13.1562C34.888 13.2825 31.8582 14.9056 31.8582 14.9056V20.325C31.8582 20.325 33.9862 18.5396 37.3046 18.0076C40.623 17.4755 42.6609 18.0707 42.6609 19.7569C42.6609 21.4522 42.6609 22.3269 42.6609 22.3269C42.6609 22.3269 37.9358 21.0735 34.3289 22.6695C31.2811 24.0221 28.9185 27.6561 30.5146 31.8582C33.2017 38.9187 41.651 36.0693 44.4373 35.8528C46.9171 35.6545 47.7286 35.7627 47.7286 35.7627C47.7286 35.7627 47.7286 23.3278 47.7286 19.4503C47.7286 15.5729 45.9432 13.003 39.9016 13.1562ZM42.5978 32.0024C42.5978 32.0024 40.8755 32.0926 39.6581 32.282C38.4408 32.4713 36.0873 32.8771 35.0232 31.0646C33.9592 29.2522 34.6445 26.8085 36.7185 26.1773C38.7835 25.5551 41.2001 25.9248 42.6068 26.1773V32.0024H42.5978Z" fill="#6B1685"/>
<path d="M49.8928 14.094V36.2946H54.9695V18.3501C54.9695 18.3501 57.2239 17.8812 59.5052 17.9083C61.7866 17.9353 61.976 19.3511 61.976 20.7307C61.976 22.1104 61.976 36.2946 61.976 36.2946H67.1068C67.1068 36.2946 67.1068 28.3323 67.1068 21.5693C67.1068 14.8063 64.7623 13.8866 61.471 13.3726C58.36 12.8856 55.3032 13.7513 53.2653 13.9407C51.2273 14.13 49.8928 14.094 49.8928 14.094Z" fill="#6B1685"/>
<path d="M69.253 6.3752V36.2947H74.5552V26.583L81.9494 36.2947H88L78.631 23.445L87.7926 13.4267L81.6157 13.4718L74.5101 20.857L74.5552 6.3752H69.253Z" fill="#6B1685"/>
<path d="M6.11374 26.3847H28.1881C28.1881 26.2043 28.1701 25.7535 28.116 25.3657C28.098 25.2485 28.0799 25.1313 28.0619 25.014H6.11374V23.8779H27.8184C27.7553 23.6524 27.6832 23.3999 27.575 23.1475C27.5299 23.0302 27.4848 22.913 27.4307 22.8048C27.4126 22.7507 27.3856 22.6966 27.3676 22.6425C27.3495 22.5974 27.3225 22.5523 27.3044 22.5072H6.11374V21.3801H26.7183C26.4207 20.8931 26.0871 20.4332 25.7174 20.0004H17.0157V18.8732H24.5722C23.9049 18.3142 23.1565 17.8543 22.3539 17.4936H17.0247V16.3664H20.8661C21.8399 16.0779 22.7327 15.6 23.5172 14.9868H17.0337V14.9688H6.11374V13.8596H24.6894C25.0501 13.4358 25.3747 12.9759 25.6453 12.48H6.11374V11.3528H26.1863C26.2314 11.2356 26.4929 10.3248 26.565 9.97315H6.11374V8.84599H26.7273C26.7273 8.82796 26.7724 7.93524 26.7003 7.46634H6.11374V6.37524H26.4929C26.3847 5.89733 26.2314 5.43744 26.042 4.99559H18.6388V3.87745H25.4559C25.1493 3.38149 24.7886 2.92161 24.3918 2.4978H18.6388V1.37965H23.0573C21.885 0.586126 20.5054 0.0991905 19.0085 0.0270519C18.9724 0.0270519 18.9364 0.0270519 18.9003 0.0180346C18.8101 0.0180346 18.72 0.00901732 18.6388 0H0V36.3849H18.6388V36.3759C19.6037 36.3578 20.5054 36.2045 21.362 35.925C21.5153 35.8799 21.6686 35.8168 21.8219 35.7627C21.8309 35.7537 21.849 35.7537 21.858 35.7447C22.399 35.5463 22.913 35.2938 23.3999 34.9962H18.6388V33.8871H24.9149C24.987 33.8149 25.0681 33.7518 25.1403 33.6797C25.1583 33.6617 25.1673 33.6526 25.1854 33.6436C25.3657 33.4723 25.537 33.2829 25.6994 33.0936C25.7084 33.0845 25.7084 33.0845 25.7174 33.0755C25.8797 32.8952 26.033 32.7058 26.1773 32.5074H18.6388V31.3803H26.9257C27.0159 31.2089 27.1061 31.0376 27.1962 30.8663C27.1962 30.8663 27.3676 30.5417 27.575 30.0006H6.11374V28.8735H27.9176C27.9357 28.8013 27.9537 28.7292 27.9717 28.657C27.9717 28.657 28.0709 28.2062 28.1431 27.5479C28.1431 27.5299 28.1431 27.5118 28.1431 27.4848H6.11374V26.3847Z" fill="url(#paint0_linear_3292_19)"/>
<defs>
<linearGradient id="paint0_linear_3292_19" x1="22.1063" y1="0.803984" x2="1.44566" y2="36.3801" gradientUnits="userSpaceOnUse">
<stop stop-color="#FAC03D"/>
<stop offset="0.0716" stop-color="#F5A42F"/>
<stop offset="0.1593" stop-color="#F08523"/>
<stop offset="0.2541" stop-color="#EC681A"/>
<stop offset="0.3559" stop-color="#EA4F15"/>
<stop offset="0.4673" stop-color="#E83813"/>
<stop offset="0.5933" stop-color="#E72112"/>
<stop offset="0.7461" stop-color="#E60812"/>
<stop offset="1" stop-color="#E60012"/>
</linearGradient>
</defs>
</svg>
