<svg width="86" height="54" viewBox="0 0 86 54" fill="none" xmlns="http://www.w3.org/2000/svg">
<path d="M85.491 26.7215C85.491 15.8275 70.7255 7 52.5125 7C37.935 7 25.5645 12.6635 21.2165 20.507V20.498C20.8125 21.23 20.587 22.023 20.587 22.8505C20.587 24.8075 21.8215 26.546 23.7505 27.684L40.467 37.3305C41.334 37.802 42.3645 38.082 43.478 38.082C44.593 38.082 45.6255 37.802 46.489 37.336L62.345 28.175C63.418 27.56 64.095 26.589 64.095 25.5095C64.095 24.4615 63.4535 23.5275 62.4425 22.9035L56.55 19.4965L43.478 27.039L33.5905 21.326C37.41 17.889 44.5225 15.572 52.679 15.572C64.8665 15.572 74.744 20.7445 74.744 27.1275C74.4845 37.0115 59.985 44.6585 42.375 44.201C24.751 43.7385 10.68 35.34 10.941 25.461H10.9355C11.058 12.4275 28.152 2.0225 49.1045 2.226C50.9735 2.2475 52.8035 2.3485 54.5905 2.5275C50.2925 0.943 44.9215 0 39.0785 0C34.415 0 30.042 0.606001 26.283 1.65C11.1215 5.813 0.5 15.4715 0.5 26.722C0.5 41.7865 19.527 54 42.999 54C66.4715 54 85.5 41.787 85.5 26.7215H85.491Z" fill="#004785"/>
</svg>
