<svg width="86" height="86" viewBox="0 0 86 86" fill="none" xmlns="http://www.w3.org/2000/svg">
<path d="M43 0.5C66.4565 0.5 85.4225 19.4835 85.5 42.9615C85.5 66.439 66.4565 85.5 43 85.5C19.5435 85.5 0.5 66.439 0.5 42.9615C0.5 19.4835 19.5435 0.5 43 0.5ZM42.9225 3.987C21.4015 3.987 3.9835 21.4205 3.9835 42.9615C3.9835 64.5015 21.479 81.9355 43 81.9355C64.4435 81.9355 81.939 64.502 81.862 42.9615C81.862 21.4205 64.4435 3.9865 42.9225 3.9865V3.987ZM42.9615 6.5C48.075 6.5 52.9565 7.505 57.373 9.437C58.07 9.8235 59 10.519 59 11.524C59 13.4565 56.288 13.07 52.9565 15.698C49.918 18.123 48.2945 21.513 48.2315 25.287L48.23 25.514V78.614C46.525 78.8455 44.7435 79 42.9615 79C41.3575 79 39.7535 78.875 38.2065 78.6805L37.6925 78.6135V25.5135C37.6925 21.6495 36.1425 18.171 33.0435 15.698C29.635 13.07 27 13.4565 27 11.524C27 10.442 27.93 9.824 28.627 9.437C33.0435 7.582 37.847 6.5 42.9615 6.5ZM58.87 16.694V75.66C56.757 76.754 54.438 77.5735 52.1075 78.1825L51.6705 78.2945V26.767C51.6705 23.203 52.909 20.646 55.386 18.709C56.625 17.779 58.096 17.0815 58.87 16.694ZM27.053 75.66V16.695L27.678 17.006C28.4835 17.411 29.5795 17.991 30.5365 18.7095C32.96 20.6045 34.198 23.0925 34.2505 26.5365L34.2525 26.7675V78.2945C31.94 77.716 29.6955 76.8675 27.5185 75.8745L27.053 75.66ZM23.569 12.2775V40.714C19.4665 40.6365 17.918 38.157 17.454 37.15C17.0665 36.375 16.834 35.523 16.1375 35.523C14.9765 35.523 13.97 39.0095 13.97 43.271L13.973 43.6685C14.033 47.7475 15.013 51.0195 16.1375 51.0195C16.834 51.0195 17.0665 50.1675 17.4535 49.3925L17.5635 49.1825C18.129 48.1465 19.6865 45.981 23.363 45.834L23.569 45.828V73.645C13.428 67.214 6.693 55.901 6.693 42.9615C6.693 30.0215 13.3505 18.709 23.569 12.2775ZM62.431 12.2C72.03 18.3215 78.533 28.704 79.2295 40.714C75.2815 40.559 73.8105 38.08 73.346 37.15C72.959 36.375 72.727 35.523 72.03 35.523C70.7915 35.523 69.8625 39.0095 69.8625 43.271L69.865 43.6685C69.921 47.7475 70.83 51.0195 72.03 51.0195C72.671 51.0195 72.919 50.298 73.256 49.5795L73.346 49.3925C73.811 48.4625 75.281 46.0605 79.152 45.7505C78.309 57.334 71.927 67.398 62.711 73.387L62.431 73.567V12.2Z" fill="#D7000F"/>
</svg>
