<svg width="100" height="26" viewBox="0 0 100 26" fill="none" xmlns="http://www.w3.org/2000/svg">
<path d="M98.2 8.79983C98.5 8.79983 98.55 8.99983 98.55 9.09983C98.55 9.19983 98.5 9.24983 98.45 9.29983C98.35 9.39983 98.25 9.39983 98.15 9.39983H97.75V8.79983H98.2ZM98.15 7.69983C99.15 7.69983 100 8.49983 100 9.54983C100 10.5998 99.2 11.3998 98.15 11.3998C97.1 11.3998 96.3 10.5998 96.3 9.54983C96.3 8.49983 97.1 7.69983 98.15 7.69983ZM98.55 10.2998H98.75L98.35 9.59983C98.5 9.59983 98.75 9.39983 98.75 9.14983C98.75 8.64984 98.3 8.64984 98.25 8.64984H97.6V10.3498H97.8V9.64983H98.15L98.55 10.2998ZM11.85 20.4498L13.65 22.4998L13.6 22.5498C12.1 24.2998 10.3 25.1498 8.1 25.1498C5.85 25.1498 3.85 24.4498 2.4 23.0998C0.85 21.6498 0 19.6498 0 17.1998C0 14.7498 0.8 12.7998 2.4 11.2998C3.85 9.99983 5.9 9.24983 8.1 9.24983C10.3 9.24983 12.1 10.0998 13.6 11.8498L13.65 11.8998L11.85 14.0498L11.8 13.9998C10.7 12.8998 9.4 12.2998 8.05 12.2998C5.25 12.2998 3.25 14.3498 3.25 17.1998C3.25 20.0498 5.25 22.0998 8.05 22.0998C9.4 22.0998 10.7 21.4998 11.8 20.3998L11.85 20.4498ZM15.45 9.64983H18.6V24.9498H15.45V9.64983ZM30.95 21.6498L31.1 21.5498L30.35 24.4998H30.3C29.8 24.7998 28.95 25.2498 27.5 25.1998C25.4 25.1498 24 23.5498 24 21.1998V12.4998H21.3V9.64983H24V6.49983L27.1 4.84983V9.59983H30.35V12.4998H27.1V20.6498C27.1 21.7998 27.6 22.3498 28.6 22.3498C29.3 22.3998 30.1 22.1498 30.95 21.6498ZM33.6 9.64983H36.75V24.9498H33.6V9.64983ZM87.2 3.79984V18.3998L88.2 16.8998C88.2 16.8998 92.65 10.5498 93.2 9.69983H95.2C94.8 10.2498 91.3 15.0498 91.3 15.0498C91.3 15.0498 95.85 24.4498 96.1 24.9498H94.15C94.05 24.7498 90.15 16.5498 90.15 16.5498L87.25 20.5498V24.8998H85.45V4.84983C85.55 4.74983 86.75 4.04984 87.2 3.79984ZM72.4 11.5498C73.35 10.1998 74.8 9.39983 76.5 9.39983C79.9 9.39983 81.7 11.5498 81.7 15.6498V24.9498H79.9V15.9498C79.9 12.4998 78.7 10.8998 76.05 10.8998C73.55 10.8998 72.05 12.7998 72.05 15.9498V24.8998H70.25V9.69983H72.05V12.0498L72.4 11.5498ZM61.25 9.44983C64.75 9.44983 66.45 11.0498 66.45 14.2998V24.9998H64.65V22.7998L64.3 23.1998C62.95 24.6498 61.45 25.3498 59.6 25.3498C58.2 25.3498 54.85 24.8998 54.85 20.5498C54.85 17.0498 57.8 15.7998 60.55 15.7998C61.95 15.7998 63.3 16.0998 64.3 16.6498L64.6 16.7998V14.6498C64.6 12.2498 63.4 10.9998 61.05 10.9998C59.6 10.9998 58.3 11.3498 56.95 12.0998C56.85 11.8498 56.4 10.8998 56.3 10.6498C57.75 9.84983 59.5 9.44983 61.25 9.44983ZM56.7 20.3498C56.7 22.5998 57.9 23.8498 60.05 23.8498C61.9 23.8498 63.55 22.9998 64.65 21.4498L64.7 21.3998V18.0998L64.6 18.0498C63.45 17.3998 62.25 17.1498 60.5 17.1498C58.1 17.0498 56.7 18.2498 56.7 20.3498ZM42.75 3.79984V11.9498L43.1 11.5498C44.45 10.0998 45.9 9.39983 47.6 9.39983C51 9.39983 52.95 12.1998 52.95 17.0998C52.95 22.0498 50.75 25.2998 47.3 25.2998C45.65 25.2998 44.3 24.6498 43.1 23.2998L42.75 22.8998V24.9498H40.95V4.79983C41.1 4.74983 42.35 4.04984 42.75 3.79984ZM42.8 13.2998L42.75 13.3498V21.2998L42.8 21.3498C43.8 22.8498 45.4 23.7998 47.15 23.7998C49.8 23.7998 51.15 21.5998 51.15 17.1498C51.15 13.2498 49.65 10.9498 47.05 10.9498C45.5 10.9498 44.05 11.7498 42.8 13.2998Z" fill="#022E72"/>
<path d="M38.7 6.9C35.8 2.9 30.9999 0.5 26.0999 0.5C21.1999 0.5 16.4499 2.9 13.5499 6.9L13.3999 7.1H17.0499L17.0999 7.05C19.5999 4.55 22.8 3.25 26.15 3.25C29.5 3.25 32.75 4.6 35.2 7.05L35.25 7.1H38.9L38.7 6.9Z" fill="#E50012"/>
</svg>
