<svg width="86" height="86" viewBox="0 0 86 86" fill="none" xmlns="http://www.w3.org/2000/svg">
<path d="M41.925 0.5L40.849 0.594999L38.6995 0.695L36.5505 0.985001L35.478 1.183L34.4015 1.378L33.424 1.5765L32.3515 1.8705L30.397 2.4545L28.4425 3.0425L26.488 3.825L24.633 4.7025L22.778 5.676L21.892 6.1685L21.018 6.657L20.136 7.241L19.258 7.7295L17.598 9.001L16.811 9.5845L15.937 10.1725L14.4715 11.539L13.0055 13.005L12.223 13.688L11.5395 14.4705L10.8565 15.154L10.169 15.9365L8.997 17.5965L7.726 19.2575L6.6575 21.0175L6.165 21.899L5.676 22.777L4.699 24.632L3.821 26.487L3.138 28.4415L2.4545 30.396L1.8665 32.35L1.378 34.404L0.984501 36.553L0.6905 38.702L0.595501 40.851L0.5 43V44.0725L0.594999 45.149L0.6905 47.3935L0.984501 49.447L1.1835 50.5235L1.378 51.596L1.5765 52.5735L1.8665 53.646L2.4545 55.604L3.138 57.654L3.821 59.509L4.699 61.4675L5.676 63.223L6.165 64.2005L6.6575 65.078L7.2415 65.956L7.726 66.7385L8.997 68.399L9.585 69.277L10.169 70.0595L11.5395 71.6245L13.0055 73.0905L13.689 73.7735L14.4715 74.457L15.1545 75.14L15.937 75.8275L17.5975 77.0985L19.258 78.2705L21.018 79.343L21.892 79.8315L22.778 80.4195L24.633 81.2975L26.488 82.175L28.443 82.9575L30.397 83.641L32.352 84.1295L34.4015 84.618L36.5505 85.0075L38.6995 85.3015L40.849 85.5H44.758L46.418 85.4005L48.083 85.206L48.957 85.1065L49.7395 85.0075L51.3995 84.7175L52.965 84.324L54.6255 83.935L56.187 83.4465L57.657 82.8585L59.218 82.2745L60.6795 81.6865L62.1495 81.0035L63.6115 80.221L64.9815 79.442L66.3525 78.5645L67.6195 77.6825L68.891 76.7055L70.158 75.728L71.33 74.6515L72.506 73.579L73.678 72.407L74.7545 71.3305L75.827 70.0595L76.804 68.7925L77.686 67.521L78.6595 66.25L79.442 64.8835L80.32 63.418L81.007 62.0475L81.6905 60.5815L82.3735 59.116L82.9575 57.5545H76.999L77.8805 59.6085L68.696 72.991H18.476L8.6075 60.685L30.2975 4.7025L42.608 34.0145L54.335 4.409L65.5695 30.6895H83.7395L83.1555 29.1245L82.568 27.468L81.984 25.903L81.201 24.4375L80.518 22.8725L79.636 21.4065L78.758 20.04L77.88 18.6735L76.8035 17.303L76.315 16.6195L75.8265 15.9365L74.754 14.6655L73.582 13.4935L72.406 12.3215L71.139 11.15L69.8675 10.0735L68.6005 9.1L67.2255 8.119L65.8595 7.1415L64.3935 6.268L62.9315 5.4815L61.466 4.7025L59.901 4.0195L58.3395 3.3325L57.557 3.0425L56.778 2.7445L55.1135 2.2595L53.4535 1.771L51.7925 1.378L50.0325 1.088L48.3725 0.794001L46.6125 0.6945L44.7575 0.5H41.925ZM39.4825 60.1925H63.0275L51.0105 31.083L39.4825 60.1925ZM15.3495 60.1925H38.8985L26.8815 31.083L15.3495 60.1925ZM66.543 33.0335L67.3295 34.7935H84.7175L84.328 33.0335H66.543ZM68.303 37.137L68.99 38.897H85.305L85.1105 37.137H68.303ZM70.063 41.2405L70.75 43H85.5V41.24H70.063V41.2405ZM71.723 45.3475L72.506 47.1035H85.3055L85.5 45.3475H71.7235H71.723ZM73.483 49.4475L74.2655 51.207H84.7175L85.0115 49.447H73.483V49.4475ZM75.243 53.5505L76.0215 55.2105H83.74L84.229 53.5505H75.243Z" fill="#E50113"/>
</svg>
