<svg width="86" height="68" viewBox="0 0 86 68" fill="none" xmlns="http://www.w3.org/2000/svg">
<path d="M42.9005 12.2774L63.5265 21.5649L52.5515 26.6099C71.325 28.9824 85.3 36.7084 85.3 46.3909C85.3 57.9694 66.281 67.3819 42.8995 67.3819C19.5145 67.3819 0.5 57.9694 0.5 46.3919V46.0309H14.842V46.3919C14.842 54.9699 27.4285 61.9464 42.9005 61.9464C58.3755 61.9464 70.957 54.9699 70.957 46.3919C70.957 37.8149 58.376 30.8399 42.9005 30.8399L42.752 30.8039L22.269 21.5649L42.9005 12.2774ZM42.9015 17.7794L34.5065 21.5644L42.901 25.3479L51.2955 21.5649L42.9015 17.7794Z" fill="#006CA9"/>
<path d="M42.899 42.5305L51.2955 46.314L42.8975 50.096L34.5035 46.314L42.8975 42.5305H42.899ZM42.899 0.5C19.52 0.5 0.5 9.9125 0.5 21.491C0.5 31.1665 14.475 38.9 33.249 41.2755L22.2665 46.314L42.8975 55.5945L63.5225 46.314L43.046 37.0715L42.8975 37.0355C27.427 37.0355 14.8445 30.0605 14.8445 21.49C14.8445 12.915 27.427 5.93 42.8975 5.93C58.372 5.93 70.9525 12.915 70.9525 21.49V21.844H85.2975V21.49C85.2975 9.9125 66.2775 0.5 42.8975 0.5H42.899Z" fill="#00965A"/>
</svg>
