<svg width="80" height="87" viewBox="0 0 80 87" fill="none" xmlns="http://www.w3.org/2000/svg">
<path d="M53.5434 18.5575C48.2934 18.5575 43.2544 20.0275 39.0549 22.7575L24.9869 31.786V0.5L0.2099 21.0775V60.1325C0.2099 71.681 7.9789 81.55 18.4774 85.1195L23.3074 86.5895C13.4384 81.7595 6.9289 72.101 6.9289 61.1825C6.9289 45.2245 20.3674 32.416 36.9554 32.416C52.4934 32.416 65.3019 43.5445 66.9814 58.033H49.5539C48.0839 52.3635 42.8344 48.164 36.7454 48.164C29.3964 48.164 23.3069 54.2535 23.3069 61.3925C23.3069 68.5315 29.3964 74.411 36.7454 74.411C43.6744 74.411 49.1339 69.581 49.9739 62.862H66.9814C66.7714 68.7415 64.4614 73.991 60.8924 78.1905C60.8924 78.1905 71.3909 66.012 74.9604 60.5525C78.1104 55.723 79.9999 50.474 79.9999 44.5945C79.9999 30.3165 68.0314 18.5575 53.5434 18.5575Z" fill="#00367A"/>
</svg>
