<svg width="86" height="86" viewBox="0 0 86 86" fill="none" xmlns="http://www.w3.org/2000/svg">
<path d="M77.1314 36.625L49.2349 8.8365C47.2659 6.875 47.2659 3.9325 49.2349 1.9715C51.2039 0.00950003 54.1579 0.00950003 56.1269 1.9715L84.0224 29.7595C85.9919 31.721 85.9919 34.6635 84.0224 36.625C82.3814 38.5865 79.0999 38.5865 77.1309 36.625H77.1314ZM46.6099 25.1825L30.8569 9.4905C28.8879 7.529 28.8879 4.5865 30.8569 2.625C32.8264 0.663499 35.7799 0.663499 37.7489 2.625L53.5019 18.3175C55.4709 20.279 55.4709 23.221 53.5019 25.1825C51.5329 27.144 48.5789 27.144 46.6099 25.1825ZM37.0924 34.6635L21.3399 18.971C19.3704 17.0095 19.3704 14.0675 21.3399 12.106C23.3089 10.144 26.2624 10.144 28.2314 12.106L43.9844 27.798C45.9534 29.7595 45.9534 32.702 43.9844 34.663C42.0154 36.298 39.0619 36.298 37.0924 34.663V34.6635ZM27.5754 43.8175L11.8224 28.125C9.85338 26.1635 9.85338 23.221 11.8224 21.26C13.7914 19.298 16.7449 19.298 18.7144 21.26L34.4669 36.952C36.4364 38.9135 36.4364 41.856 34.4669 43.817C32.8264 45.779 29.5444 45.779 27.5754 43.817V43.8175ZM2.30488 37.606C0.335882 35.644 0.335882 32.702 2.30488 30.7405C4.27388 28.779 7.22788 28.779 9.19688 30.7405L24.9499 46.4325C26.9189 48.394 26.9189 51.3365 24.9499 53.298C23.3089 55.2595 20.0269 55.2595 18.0579 53.298L2.30488 37.606ZM77.1314 55.2595L61.3784 39.5675C59.4094 37.606 59.4094 34.6635 61.3784 32.702C63.3474 30.7405 66.3009 30.7405 68.2704 32.702L84.0229 48.394C85.9924 50.356 85.9924 53.298 84.0229 55.2595C82.0539 57.221 78.7719 57.221 77.1314 55.2595ZM67.6139 64.7405L51.8609 49.048C49.8919 47.0865 49.8919 44.144 51.8609 42.183C53.8299 40.221 56.7839 40.221 58.7529 42.183L74.5059 57.875C76.4749 59.8365 76.4749 62.779 74.5059 64.74C72.5364 66.702 69.5829 66.702 67.6139 64.74V64.7405ZM58.0964 74.221L42.3434 58.529C40.3744 56.5675 40.3744 53.625 42.3434 51.6635C44.3124 49.702 47.2664 49.702 49.2354 51.6635L64.9884 67.356C66.9574 69.3175 66.9574 72.2595 64.9884 74.221C63.0194 76.1825 60.0654 76.1825 58.0964 74.221ZM48.5789 83.702L32.8264 68.0095C30.8569 66.048 30.8569 63.106 32.8264 61.1445C34.7954 59.1825 37.7489 59.1825 39.7179 61.1445L55.4709 76.8365C57.4399 78.798 57.4399 81.7405 55.4709 83.7015C53.5019 85.6635 50.5484 85.6635 48.5789 83.7015V83.702ZM29.8724 84.029L1.97688 56.24C0.00738084 54.2785 0.00738084 51.336 1.97688 49.3745C3.94588 47.413 6.89938 47.413 8.86838 49.3745L36.7644 77.163C38.7334 79.1245 38.7334 82.067 36.7644 84.028C34.7954 85.99 31.8414 85.99 29.8724 84.028V84.029Z" fill="#E60012"/>
</svg>
