<svg width="86" height="65" viewBox="0 0 86 65" fill="none" xmlns="http://www.w3.org/2000/svg">
<path d="M49.7247 36.5387H81.4518L85.2709 32.7071L81.4518 28.8756H42.0866L49.7247 36.5387ZM61.182 8.53855L53.8377 0.875488L46.1995 8.53855H61.182ZM70.5823 47.4441H51.4873L44.143 54.8128L44.4369 55.1071H62.9446L70.5823 47.4441ZM44.4369 10.3071L37.0931 17.9702H70.5827L62.9451 10.3071H44.4369ZM51.4873 38.3073L56.1875 43.0229L53.25 45.6755H72.3454L79.6892 38.3073H51.4873ZM46.1995 56.8757L53.8377 64.5388L61.182 56.8757H46.1995ZM35.33 19.7388L33.8612 20.9177L40.3239 27.107H79.6892L72.3449 19.7388H35.33Z" fill="#A88249"/>
<path d="M30.0423 22.3914L41.7934 10.602L32.3926 0.875488L0.665527 32.7071L32.3926 64.5388L52.0752 44.4971L30.0423 22.3914Z" fill="#003D75"/>
</svg>
