<svg width="85" height="73" viewBox="0 0 85 73" fill="none" xmlns="http://www.w3.org/2000/svg">
<path d="M42.8264 28.9171C39.4613 35.6186 35.6848 42.1055 31.5184 48.3406C20.8164 48.9816 10.3659 50.5731 0.859375 53.1541C14.4384 38.3996 25.6784 19.1671 31.6079 0.0955811H31.6294C34.2079 9.54858 38.0494 19.3666 42.8264 28.9171Z" fill="#BD0016"/>
<path d="M31.5146 48.332C39.046 47.8877 46.5975 47.9061 54.1266 48.387C60.0946 57.335 66.7796 65.5695 73.8446 72.4585C54.1696 68.0525 31.7021 67.9465 12.0186 72.365L12.0011 72.335L12.3301 72.013L13.3031 71.0325L13.6281 70.6975L13.9521 70.353L14.2721 70.022L14.5971 69.6825L14.9211 69.343L15.2411 69.003L15.5576 68.664L15.8776 68.3075L16.1976 67.9675L16.5176 67.6155L16.8376 67.259L17.1581 66.911L17.4781 66.5585L17.7901 66.1975L18.1016 65.8455L18.4131 65.489L18.7246 65.128L19.0406 64.763L19.3606 64.402L19.6681 64.0415C23.9186 59.0365 27.8741 53.7915 31.5146 48.332Z" fill="#730000"/>
<path d="M54.1264 48.3832C49.9597 42.1365 46.1857 35.6366 42.8264 28.9212C47.6079 19.3712 51.4284 9.57016 53.9214 0.0961609C60.0299 19.2477 71.2489 38.6077 84.9989 53.2517L84.9814 53.2817C75.4194 50.7177 64.9009 49.0752 54.1264 48.3832Z" fill="#E5001F"/>
<path d="M54.1304 48.3829C64.9009 49.0749 75.4239 50.7174 84.9859 53.2809L73.8484 72.4544C66.7834 65.5654 60.0984 57.3304 54.1304 48.3829Z" fill="#BD0016"/>
<path d="M31.5185 48.3318C25.589 57.2033 18.9636 65.4075 12.0011 72.335L0.859955 53.1578C10.3665 50.5728 20.8165 48.9768 31.5185 48.3318Z" fill="#E5001F"/>
<path d="M53.9215 0.100082C51.4285 9.57408 47.608 19.3706 42.8225 28.9171C38.0455 19.3666 34.2035 9.55258 31.6335 0.100082H53.9215Z" fill="#730000"/>
</svg>
