<svg width="86" height="62" viewBox="0 0 86 62" fill="none" xmlns="http://www.w3.org/2000/svg">
<path d="M51.9999 0.00732422H65.2999C67.1499 0.00732422 68.7999 0.757324 69.9999 2.00732L71.2999 3.35732C71.3499 3.40732 72.9499 5.40732 71.0999 7.25732L56.9999 21.5073C56.9999 21.5073 57.2999 21.0573 57.2999 20.6573C57.2999 20.2573 57.1499 19.9573 56.8999 19.7073L50.2499 12.9073C49.6999 12.4073 48.9999 12.1573 48.2499 12.1573H38.9999L50.1499 0.807323C50.5999 0.357323 51.2499 0.0573242 51.9999 0.00732422ZM34.0499 0.00732422C34.7999 0.00732422 35.4499 0.307323 35.8999 0.807323L41.7999 6.80732L29.1999 19.6573C28.9499 19.9073 28.7999 20.2573 28.7999 20.6073C28.7999 21.0573 29.0998 21.4573 29.0998 21.4573L15.0498 7.20732C13.2498 5.35733 14.7998 3.35732 14.8498 3.30732L16.1498 2.00732C17.3498 0.757324 18.9998 0.00732422 20.7998 0.00732422H34.0499Z" fill="#BA512C"/>
<path d="M71.0002 7.20722L43.0502 35.4572L15.1502 7.20722C13.3502 5.40722 14.8502 3.45722 14.9502 3.30722C9.7002 8.65722 2.50019 15.9572 2.50019 15.9572C1.40019 17.0072 0.700195 18.5072 0.700195 20.1572C0.700195 21.8072 1.4002 23.3072 2.4502 24.4072L36.8002 59.1072C38.4002 60.7072 40.6502 61.7072 43.0502 61.7072C45.5002 61.7072 47.7002 60.7072 49.3002 59.1072L83.6502 24.4072C84.7502 23.3072 85.4002 21.8572 85.4002 20.1572C85.4002 18.5072 84.7002 17.0072 83.6502 15.9072C83.6502 15.9072 76.4002 8.60722 71.1502 3.30722C71.2502 3.40722 72.8002 5.35722 71.0002 7.20722Z" fill="#CC7824"/>
</svg>
