<svg width="85" height="76" viewBox="0 0 85 76" fill="none" xmlns="http://www.w3.org/2000/svg">
<path d="M64.7505 18.6L52.8005 3.25L56.7005 0L81.6505 27.75C86.1005 33.4 85.0005 39 80.8005 43.8L71.8505 55.2C68.0005 59.65 69.4505 64.4 74.5505 69.4L80.9505 75.95H58.2505L48.7005 62.4C43.2005 55.55 43.3505 49.15 50.3005 43.3L62.9505 30.2C67.2005 26.55 68.0505 22.65 64.7505 18.6ZM20.0505 18.6C16.7005 22.7 17.5505 26.55 21.8505 30.3L34.6505 43.4C41.7005 49.25 41.8505 55.65 36.2505 62.5L26.6005 76H3.60048L10.1005 69.45C15.2505 64.45 16.7505 59.65 12.8005 55.25L3.75048 43.8C-0.499516 39 -1.59952 33.4 2.90048 27.75L28.1505 0L32.1005 3.25L20.0505 18.6Z" fill="#009035"/>
<path d="M41.5004 7.5C49.4004 7.5 55.8504 13.45 56.4504 21.05H48.0504L41.7504 14.9L34.3504 22.15L41.7504 29.4L48.0504 23.25H56.5004C56.0004 30.9 49.5004 37 41.5004 37C33.2004 37 26.5004 30.4 26.5004 22.25C26.5004 14.1 33.2004 7.5 41.5004 7.5Z" fill="#E30016"/>
</svg>
