<svg width="102" height="94" viewBox="0 0 102 94" fill="none" xmlns="http://www.w3.org/2000/svg">
<path d="M66.4998 55.8502C67.0998 59.5002 66.7498 63.4502 66.0998 66.9502C65.6498 69.5002 64.9498 71.9502 64.1498 74.4002C61.9998 80.9502 58.8998 87.3002 54.0498 92.2502C53.2498 93.0502 52.1998 93.8502 50.9998 93.3502C50.6998 93.2002 50.4498 93.0502 50.2498 92.7502C49.8498 92.1502 50.1498 91.3502 50.3498 90.7002C50.5998 89.8502 50.7998 89.0502 51.0498 88.2002C53.1498 80.1502 55.1498 71.5002 54.7498 63.1002C54.6498 61.2002 54.4498 59.2002 53.5998 57.5002C52.7498 55.7502 51.1998 54.3002 49.3498 54.0002C48.2498 53.8502 47.1498 54.0502 46.1498 54.5502C45.6998 54.8002 45.2498 55.0502 44.8998 55.4002C44.2998 56.0002 43.8498 56.7502 43.5498 57.5502C42.5998 60.0502 42.9498 62.5502 43.3498 65.1002C43.6998 67.1002 43.3498 69.3502 41.5498 70.5002C40.1498 71.4002 38.2998 71.5002 36.7498 70.9002C35.1998 70.3002 33.8998 69.0502 33.0498 67.6502C30.3498 63.2502 30.2998 56.8002 31.7998 52.0002C32.0998 51.0002 32.4998 50.0502 32.9498 49.1502C34.2998 46.4502 36.4498 44.2002 38.9998 42.6002C44.6998 39.1502 51.6498 39.1002 57.3998 42.5002C61.0998 44.6502 63.5498 47.9002 65.3498 51.7502C65.8498 53.0502 66.2498 54.4002 66.4998 55.8502ZM102 16.5502C102 17.5502 101 18.4502 100.3 19.0002C96.4498 22.0502 91.9498 24.4002 87.4498 26.3002C73.6498 32.0502 58.1998 33.9002 43.4998 35.8002C34.8498 36.9502 26.1998 37.8002 17.5498 38.3502C14.3498 38.5502 11.0998 36.8002 8.39982 35.2002C5.59982 33.5002 2.94982 31.3002 1.39982 28.4002C0.149815 25.9502 -0.000184178 22.2002 2.24982 20.2502C3.94982 18.8002 6.54982 18.8502 8.64982 19.0002C11.0998 19.2002 13.5498 19.7502 15.9998 20.1502C19.8998 20.7502 23.8498 21.5502 27.6998 22.1502C50.3998 25.4502 74.6998 23.9002 96.2498 15.6002C97.3498 15.1502 98.4998 14.5502 99.6998 14.5002C100.9 14.4502 102 15.3002 102 16.5502Z" fill="#008375"/>
<path d="M40 9.35C40 14.1 43.8 18 48.5 18C53.2 18 57 14.1 57 9.35C57 8.65 56.85 7.95 56.55 7.3C55.8 5.75 55 4.95 55.05 3.1C55.2 0.55 52 0.5 50.25 0.5C48.4 0.5 46.4 0.75 44.7 1.6C43.35 2.3 42.2 3.35 41.35 4.65C40.5 6 40.05 7.55 40 9.15V9.35Z" fill="#D70035"/>
</svg>
