<?xml version="1.0" standalone="no"?><!DOCTYPE svg PUBLIC "-//W3C//DTD SVG 1.1//EN" "http://www.w3.org/Graphics/SVG/1.1/DTD/svg11.dtd"><svg t="1722074084927" class="icon" viewBox="0 0 1024 1024" version="1.1" xmlns="http://www.w3.org/2000/svg" p-id="9080" xmlns:xlink="http://www.w3.org/1999/xlink" width="256" height="256"><path d="M946.474667 510.208L542.72 110.336c-8.96-8.96-19.626667-14.336-30.378667-14.336a41.770667 41.770667 0 0 0-30.378666 12.544L76.373333 510.208c-26.794667 25.088-7.125333 71.722667 30.378667 71.722667h67.925333c23.210667 0 25.002667 17.92 25.002667 41.258666v263.552c0 23.338667 33.92 41.258667 57.173333 41.258667h521.685334c23.253333 0 57.173333-17.92 57.173333-41.258667v-263.552c0-23.338667 3.584-41.258667 25.002667-41.258666h53.632c41.088 0 60.714667-46.634667 32.128-71.722667z" fill="#2B5EE6" p-id="9081"></path><path d="M392.021333 684.672h86.784v-35.712H392.021333c-23.808 0-35.712-15.36-35.712-30.634667 0-15.36 11.946667-28.928 35.712-28.928h62.976l-76.586666-119.125333c-6.826667-10.24-10.197333-17.024-11.904-20.394667a32.042667 32.042667 0 0 1-3.413334-13.653333c0-8.490667 3.413333-15.274667 8.533334-20.394667 5.12-5.12 11.904-8.533333 20.394666-8.533333 8.533333 0 15.36 3.413333 20.437334 8.533333 5.12 5.12 11.946667 13.610667 18.730666 25.514667l81.664 127.616 73.173334-120.789333c3.413333-5.12 5.12-10.24 8.533333-15.36 3.370667-5.077333 6.784-10.154667 8.490667-13.568 3.413333-3.413333 6.826667-6.826667 10.197333-8.533334 5.12-1.706667 10.24-3.413333 15.317333-3.413333 8.533333 0 15.317333 3.413333 20.394667 8.533333 5.12 5.12 8.533333 11.946667 8.533333 18.730667 0 5.12-1.706667 11.904-3.413333 16.981333-1.706667 5.12-5.12 10.24-10.24 18.773334l-73.130667 120.746666h62.933334c23.850667 0 35.754667 13.653333 35.754666 28.970667 0 15.317333-11.946667 30.634667-35.754666 30.634667h-88.448v35.712h88.448c23.850667 0 35.754667 13.653333 35.754666 28.928 0 15.317333-11.946667 30.634667-35.754666 30.634666h-88.448v5.12c0 34.005333-11.946667 42.496-34.048 42.496-23.808 0-34.048-8.490667-34.048-42.538666v-5.12H390.4c-23.850667 0-35.754667-15.274667-35.754667-30.592 1.706667-17.024 13.653333-30.634667 37.418667-30.634667z" fill="#FFFFFF" p-id="9082"></path></svg>