<svg width="86" height="86" viewBox="0 0 86 86" fill="none" xmlns="http://www.w3.org/2000/svg">
<path d="M42.95 85.4997C19.5 85.4497 0.5 66.4497 0.5 43.0497C0.5 25.8497 10.85 10.3497 26.75 3.74971C42.65 -2.85029 60.95 0.799715 73.1 12.9997C85.25 25.1997 88.9 43.4497 82.3 59.3497C75.65 75.1997 60.15 85.5497 42.95 85.4997ZM7.55 42.9997C7.55 28.6997 16.15 15.7997 29.4 10.2997C42.65 4.79971 57.85 7.84971 67.95 17.9497C78.05 28.0497 81.1 43.2997 75.65 56.4997C70.2 69.6997 57.25 78.3497 42.95 78.3497C23.4 78.3497 7.55 62.5497 7.55 42.9997ZM42.9 80.0997C57.9 80.0997 71.4 71.0497 77.15 57.1997C82.9 43.3497 79.7 27.3997 69.1 16.7997C58.5 6.19971 42.6 2.99971 28.7 8.74971C14.8 14.4997 5.85 27.9997 5.85 42.9997C5.85 63.4997 22.45 80.0997 42.9 80.0997ZM42.1 24.2497H39.35C38.85 24.2497 38.45 23.8497 38.45 23.3497C38.45 22.8497 38.85 22.4497 39.35 22.4497H42.05V14.2497H35.6L37.2 25.7497H28.1C28.1 25.7497 31.55 48.0497 22.3 66.6497H34.4C40.8 49.4997 40.05 47.4497 40.05 47.4497H42.1V39.7997H40C39.5 39.7997 39.1 39.3997 39.1 38.8997C39.1 38.3997 39.5 37.9997 40 37.9497H42.05V24.2497H42.1ZM43.9 24.2497V37.9997H45.9C46.4 37.9997 46.8 38.3997 46.8 38.9497C46.8 39.4497 46.4 39.8497 45.9 39.8497H43.9V47.4997H45.85C45.85 47.4997 45.1 49.5497 51.5 66.6997H63.65C54.45 48.0997 57.9 25.7997 57.9 25.7997H48.85L50.4 14.2997H43.95V22.4997H46.55C47.05 22.4997 47.45 22.8997 47.45 23.3997C47.45 23.8997 47.05 24.2997 46.55 24.2997H43.9V24.2497ZM36.1 49.2497L35.95 49.3997L36.75 52.4497C36.85 52.8997 36.6 53.3997 36.15 53.4997C35.95 53.5497 35.7 53.5497 35.5 53.3997C35.3 53.2997 35.15 53.0997 35.1 52.8497L34.4 50.0997H33.6L32.9 52.8497C32.75 53.2497 32.3 53.4997 31.9 53.3997C31.5 53.2997 31.2 52.8497 31.3 52.3997L32.1 49.3997C32.05 49.3497 32 49.2997 31.9 49.2497C31.35 48.6497 31 47.8997 31.05 47.0497V34.5997C31.05 32.8997 32.4 31.4997 34.05 31.4997C35.7 31.4997 37.05 32.8997 37.05 34.5997V47.0497C37 47.8497 36.7 48.6497 36.1 49.2497ZM32.65 39.7997V47.0497C32.65 47.3997 32.8 47.7497 33.05 48.0497C33.3 48.2997 33.6 48.4497 33.95 48.4497C34.3068 48.4456 34.6477 48.302 34.9 48.0497C35.1523 47.7974 35.2958 47.4565 35.3 47.0997V39.8497H32.65V39.7997ZM35.3 38.0497V34.5997C35.3 34.2497 35.2 33.8997 34.95 33.6497C34.7 33.3997 34.4 33.2497 34.05 33.2497C33.35 33.2497 32.75 33.7997 32.7 34.5497V38.0497H35.3ZM55.5 38.8497L52.65 44.4497V52.6497C52.65 53.1497 52.25 53.5497 51.8 53.5497C51.3 53.5497 50.95 53.1497 50.95 52.6497V44.4997L48.05 38.8497L51.8 31.4997L55.5 38.8497ZM51.75 42.3997L53.55 38.8497L51.75 35.2497L49.9 38.8497L51.75 42.3997Z" fill="#FE0009"/>
</svg>
