<svg width="82" height="78" viewBox="0 0 82 78" fill="none" xmlns="http://www.w3.org/2000/svg">
<path d="M48.5 73C47.95 73.2 47.4 73.35 46.85 73.55C46 73.75 45.5 73.95 45.3 74.2C45.1 74.4 45 74.6 45 74.95C45 75.2 45.15 75.5 45.3 75.7C45.5 75.9 45.8 76.05 46.25 76.05C46.65 76.05 47.1 75.9 47.45 75.7C47.75 75.5 48.1 75.25 48.2 74.9C48.35 74.55 48.45 74.15 48.45 73.7V73H48.5ZM56 67.75H59.5V69.45C60.05 68.75 60.55 68.3 61.15 67.95C61.65 67.6 62.35 67.5 63.1 67.5C64.15 67.5 65 67.8 65.6 68.45C66.15 69.1 66.5 70.05 66.5 71.45V78H62.65V72.35C62.65 71.7 62.55 71.25 62.25 71C62.05 70.75 61.75 70.6 61.3 70.6C60.85 70.6 60.5 70.75 60.15 71.1C59.85 71.5 59.7 72.15 59.7 73.05V78H56V67.75ZM70 64H74V71.2L76.95 67.9H81.7L78.1 71.4L82 78H77.55L75.5 73.95L74 75.35V77.95H70V64ZM13.5 30.85C30.35 14.65 53.15 17.35 63.9 25.5C58.75 27.85 53.1 31.6 49.7 36.85C52.95 36.4 60.25 36.1 66 38.55C52.5 44.45 44.15 55.2 37.15 69.95C41.35 49.75 50.8 41.95 53.7 40.25C53.7 40.25 49.35 39.55 43.6 40.95C44.35 36.9 48 29.5 52.15 26.05C39.8 21.75 27.4 24.6 13.5 30.85ZM39 0C60.5 0 78 17.5 78 39C78 46.8 75.7 54.05 71.8 60.15H63.05C67.95 54.55 70.9 47.2 70.9 39.2C70.9 21.5 56.6 7.2 39 7.2C21.4 7.2 7.1 21.5 7.1 39.2C7.1 53.1 16.05 64.95 28.4 69.25C29.05 65.7 29.6 63.25 29.8 59.3C30.1 53.55 30.1 48.75 29.95 46C29.3 36 28.15 34 18.7 35C18.7 35 29.95 29.2 34.4 36.9C38.1 42.35 35 69.9 30.05 76.95C12.85 73 0 57.55 0 39C0 17.5 17.5 0 39 0ZM45 71L41.35 70.6C41.45 69.95 41.65 69.45 41.9 69.1C42.2 68.7 42.6 68.4 43.05 68.15C43.45 67.95 43.95 67.75 44.5 67.7C45.15 67.55 45.85 67.5 46.5 67.5C47.65 67.5 48.6 67.55 49.3 67.7C50 67.8 50.55 68.15 51 68.5C51.3 68.75 51.65 69.2 51.75 69.7C51.95 70.2 52.05 70.7 52.05 71.15V75.6C52.05 76.1 52.05 76.5 52.1 76.75C52.15 77 52.3 77.3 52.5 77.75H48.95C48.75 77.5 48.7 77.3 48.65 77.2C48.6 77 48.6 76.85 48.55 76.55C48.05 77 47.55 77.35 47.05 77.55C46.4 77.8 45.6 78 44.7 78C43.5 78 42.6 77.7 42 77.1C41.35 76.6 41.05 75.9 41.05 75.1C41.05 74.35 41.3 73.7 41.75 73.2C42.2 72.75 43 72.4 44.2 72.1C45.65 71.85 46.55 71.6 47 71.55C47.45 71.45 47.9 71.25 48.4 71.05C48.4 70.6 48.3 70.3 48.1 70.1C47.9 69.9 47.6 69.8 47.1 69.8C46.45 69.8 45.95 69.95 45.65 70.1C45.35 70.2 45.1 70.55 45 71Z" fill="#C8171E"/>
</svg>
