<svg width="87" height="82" viewBox="0 0 87 82" fill="none" xmlns="http://www.w3.org/2000/svg">
<path d="M58.1705 0.531806C58.339 0.700806 59.351 3.90881 60.5315 4.58431C61.7115 5.09081 66.4335 3.7398 68.6255 6.7793C69.6375 8.80531 68.1195 9.64931 69.4685 10.8318C78.0685 15.8968 79.5865 9.64981 82.9585 15.3903C84.4765 20.2873 77.057 19.2743 75.202 24.6773C74.696 23.6643 72.6725 22.6508 71.998 22.1443C65.9275 18.4298 58.845 16.9103 51.4255 18.9363C37.2605 22.8198 28.8295 37.0033 32.539 51.1863C36.4175 65.3698 50.751 73.6433 64.9155 69.7598C69.1315 68.5778 74.1905 65.8763 77.2255 63.1748C79.755 61.3173 81.947 58.1098 84.139 57.0963L83.939 57.3513C83.516 57.9063 82.5455 59.2573 82.284 60.3043L82.3255 60.3103C82.4905 60.3253 83.1515 60.3043 84.308 59.2913C85.657 57.9403 86.5 55.5763 86.5 55.5763C86.3315 56.4213 87.006 58.6163 84.4765 61.6553L84.1925 62.0288C82.7755 63.8653 81.4515 65.2008 81.61 65.2008C82.1155 65.0323 82.959 64.3568 84.139 63.6813C85.151 63.0063 86.5 60.3043 86.5 60.3043C86.5 61.4863 84.8135 66.2143 82.79 68.7468L82.5325 69.0948C79.3825 73.2878 75.7075 76.0073 75.7075 76.0073L75.252 76.3463C73.3705 77.7288 71.37 78.9663 67.782 80.0598C46.0295 85.9698 23.939 73.1368 18.206 51.6933C16.857 46.6278 16.857 40.8868 17.194 35.4833L16.9935 35.5993C16.1415 36.0738 12.6845 37.8473 8.594 37.8473C3.704 37.8473 0.5 33.9638 0.5 29.4048C0.5 25.1838 5.39 19.6118 5.39 19.7808L5.385 20.0058C5.378 20.9553 5.585 24.5283 9.606 24.6773C18.712 23.8328 23.096 16.7413 30.1785 10.8318L31.19 9.98731C35.316 6.51731 40.25 3.69331 46.465 1.99231L46.8725 1.88231C50.5825 0.869306 54.461 0.362806 58.1705 0.531806ZM69.9755 34.4998C72.1555 34.4998 74 36.3633 74 38.5658V50.9338C74 53.1363 72.1555 54.9998 69.9755 54.9998H50.525C48.345 54.9998 46.5005 53.1363 46.5005 50.9338V38.5658C46.5005 36.3633 48.345 34.4998 50.525 34.4998H69.976H69.9755Z" fill="#D80C18"/>
</svg>
