<svg width="86" height="74" viewBox="0 0 86 74" fill="none" xmlns="http://www.w3.org/2000/svg">
<path fill-rule="evenodd" clip-rule="evenodd" d="M11.6137 73.4022H9.17969V58.113H11.6137V63.3733H11.6624C12.3994 62.5277 13.518 62.0339 14.9731 62.0339C17.3697 62.0339 18.8882 63.3175 18.8882 65.7972V73.4022H16.4514V66.4422C16.4027 64.7106 15.7193 63.9575 14.2917 63.9575C12.6646 63.9575 11.6137 65.2405 11.6137 66.871V73.4022ZM26.753 64.2607H20.7664V62.3349H30.0454V64.0466L23.9099 71.4785H30.3656V73.4022H20.6366V71.6905L26.753 64.2607ZM41.2366 67.879C41.2366 70.17 40.1906 72.5904 37.6219 72.5904C34.7597 72.5904 33.7554 70.17 33.7554 67.879C33.7554 65.5873 34.7597 63.1684 37.6219 63.1684C40.1906 63.1684 41.2366 65.5873 41.2366 67.879ZM33.6505 73.4022H32.407V58.113H33.7556V64.4514H33.7972C34.3763 62.8654 35.9801 62.0339 37.6221 62.0339C40.9829 62.0339 42.5853 64.7495 42.5853 67.8791C42.5853 71.0066 40.9829 73.7257 37.6221 73.7257C35.8475 73.7257 34.3093 72.8066 33.6907 71.304H33.6505V73.4022ZM47.9087 72.4987C50.2757 72.4987 51.7378 70.8922 51.7378 69.1225L51.6821 66.5588H51.6398C51.5333 66.7305 50.4753 67.0993 49.7312 67.2271C49.5896 67.2526 49.4491 67.2772 49.31 67.3016L49.3082 67.3019L49.3081 67.3019C47.1975 67.6715 45.426 67.9817 45.426 70.4055C45.426 71.7053 46.6441 72.4987 47.9087 72.4987ZM44.7773 64.002C44.7773 64.002 46.6189 63.2454 48.8201 63.2454C50.4057 63.2454 51.5617 63.7272 51.5617 64.7869C51.5617 65.5576 50.7499 65.8621 48.1529 66.2415C45.7401 66.5919 43.9754 67.6042 43.9754 70.1446C43.9754 72.3735 45.7492 73.7257 47.7812 73.7257C49.8972 73.7257 51.0179 72.7896 51.7965 71.4784V73.5166H53.0844L53.0823 65.5873C53.0823 62.628 50.9664 62.0338 49.0183 62.0338C46.4468 62.0338 44.8048 62.8279 44.8048 62.8279L44.7773 64.002ZM55.7484 73.4021H57.0899V66.9522C57.1385 64.7939 58.4172 63.1684 60.5536 63.1684C62.7365 63.1684 63.3579 64.5983 63.3579 66.5029V73.4021H64.7008V66.2909C64.7008 63.6601 63.7642 62.0338 60.6608 62.0338C59.1007 62.0338 57.6294 62.9324 57.1385 64.2606H57.0899V62.3468H55.7484V73.4021ZM68.5926 73.4022H67.242V58.113H68.5926V67.7095L74.7006 62.3468H76.5041L71.7919 66.4422L76.8207 73.4022H75.1322L70.7735 67.3825L68.5926 69.2108V73.4022Z" fill="#636463"/>
<path fill-rule="evenodd" clip-rule="evenodd" d="M44.3999 1.89906C44.1851 2.00793 44.076 2.00792 43.9696 2.00792C43.3239 2.11476 42.8909 1.89906 42.8909 1.57584C42.8909 1.35946 43.4329 1.24789 43.9696 1.35946C44.076 1.35946 44.2935 1.35946 44.3999 1.4663C44.3999 1.4663 44.5029 1.4663 44.5087 1.56678C44.5059 1.51764 44.4798 1.49181 44.4539 1.46613C44.4268 1.43925 44.3999 1.41254 44.3999 1.35946C43.9696 1.02948 43.7521 0.489875 44.2935 0.27417H44.3999C44.7245 0.27417 45.1554 0.708961 45.0504 1.4663C45.1554 0.708961 45.8032 0.381008 46.2362 0.489875C46.7749 0.813771 46.2362 1.35946 45.3723 1.57584C45.9116 1.4663 46.5574 1.4663 46.884 1.68268C46.9904 1.68268 46.9904 1.79222 46.9904 1.89906C46.9904 2.00793 46.9904 2.11476 46.884 2.22633C46.6685 2.44272 46.018 2.33588 45.3723 2.00792C46.1291 2.54753 46.2362 3.1987 45.8032 3.30554C45.2659 3.41643 44.8329 2.98232 44.8329 2.11476C44.8329 2.54753 44.6181 2.76594 44.3999 2.98232C44.2935 3.09389 44.076 3.09389 43.9696 3.09389H43.7521C43.3239 2.87751 43.2127 2.54753 43.9696 2.11476C44.0361 2.11476 44.1036 2.0731 44.1972 2.01529C44.2535 1.98053 44.3192 1.93994 44.3999 1.89906ZM35.229 14.7927C35.1226 15.4432 36.2007 15.7691 37.9279 15.2255C35.7684 16.0944 35.5549 17.0688 36.4162 17.394C37.0619 17.6124 38.1434 17.0688 38.5736 15.5534C38.4693 16.3088 38.4693 16.8504 38.68 17.2831C38.8975 17.7173 39.3285 17.8268 39.7588 17.7173C40.6247 17.394 40.5204 16.1992 39.3285 15.3364C40.3029 15.878 41.0577 15.9835 41.488 15.7691C41.8099 15.6576 42.0254 15.4432 42.0254 15.1187C42.1338 14.7927 41.9203 14.575 41.488 14.4682C41.0875 14.3656 40.4059 14.3585 39.7031 14.6208C41.0177 14.071 41.8877 13.1474 41.0577 12.6289C40.4066 12.2989 39.3285 12.9474 38.8975 14.3579C39.1123 13.4911 39.0059 12.8426 38.68 12.5173C38.4693 12.2989 38.1434 12.2989 37.8215 12.2989C36.7407 12.6289 37.2794 14.0354 38.1434 14.575C36.7407 13.9238 35.3374 14.0354 35.229 14.7927ZM39.546 14.6839C39.599 14.6634 39.6514 14.6424 39.7031 14.6208C39.6508 14.6403 39.5984 14.6613 39.546 14.6839ZM78.4973 25.1932C79.0387 25.3047 79.0387 26.599 78.7121 27.1433C78.9235 26.933 80.477 26.3109 80.7416 27.1041C80.7403 27.1501 80.7484 27.1967 80.7625 27.244C80.7181 28.019 79.0387 28.1177 79.0387 28.1177C80.1174 28.4477 80.6541 29.4207 80.4393 29.7439C80.0063 30.2883 78.7121 29.2043 78.4973 28.6627C78.6057 29.5275 78.6057 29.961 78.1727 30.3951C77.6313 30.5019 77.4185 30.2883 77.3094 29.961C77.2703 29.961 77.2318 29.9749 77.1887 29.9977C77.1732 29.711 77.1682 29.252 77.4184 28.7233H76.8763C76.8481 28.7336 76.8191 28.7438 76.7897 28.7542L76.7894 28.7543C76.483 28.8625 76.1335 28.986 76.2305 29.2949C76.3396 29.5214 76.5544 29.6343 76.8763 29.7507L76.8821 29.7568C76.9595 29.8384 77.0365 29.9196 77.1123 30.0426L77.0887 30.0574C77.0306 30.0938 76.9623 30.1365 76.8765 30.1787C76.3398 30.5019 75.6913 30.5019 75.4738 30.3951C74.5062 30.2883 74.1803 30.5019 74.0732 31.262C73.967 32.4284 75.4144 32.0346 76.5922 31.7142L76.6637 31.6947C76.7727 31.588 76.7728 31.5879 76.8762 31.478L76.8765 31.4777C77.094 31.1531 77.094 30.9388 77.094 30.9394L77.6313 31.4777C77.8488 31.4777 78.0643 31.5879 78.1727 31.6947C78.4468 31.6947 78.7353 31.6089 79.0328 31.5203C79.5546 31.3649 80.1043 31.2012 80.6541 31.4777C80.6541 31.4777 80.7632 31.8083 81.3025 32.4521C81.3458 32.4974 81.3894 32.5772 81.4405 32.6706C81.5153 32.8073 81.6061 32.9731 81.7348 33.1032C81.6791 33.1032 81.5966 33.076 81.5149 33.0491C81.4347 33.0226 81.3552 32.9964 81.3025 32.9964C78.9276 32.3473 77.9579 32.9964 77.6313 33.6462C77.3187 34.0691 77.9213 34.6904 77.9563 34.7265L77.9579 34.7281L76.8765 34.6206L75.9068 34.5097C75.6443 34.775 75.3831 34.9674 75.0619 35.204L75.0617 35.2041L75.0617 35.2041C74.9867 35.2594 74.9084 35.3171 74.826 35.3786L61.9875 44.4835L49.687 53.2544L46.8838 55.2066L44.3997 57.0479L43.9694 57.3751L42.7843 58.1331L41.488 57.2676L38.6801 55.3134L34.3678 52.2807L27.2448 47.2965L21.5272 43.2867L15.916 39.3891L14.9443 38.7393L12.8973 37.3288L8.5803 34.2974C7.06723 33.4285 7.06723 32.018 8.5803 32.4521C8.65487 32.4714 8.73587 32.4937 8.81996 32.517L8.82009 32.517C9.22196 32.6279 9.69433 32.7584 9.87251 32.6678C10.5646 32.2643 10.6408 31.5195 10.3809 31.0949L10.4746 31.0596C11.1486 30.805 11.9478 30.5032 12.6775 30.8888C12.7866 30.8888 12.897 31.001 12.897 31.1132C13.1104 31.4569 13.002 31.9113 12.897 32.2535C12.897 32.3657 12.7866 32.4849 12.7866 32.4849H12.897H13.9757C13.8673 32.3657 13.2168 31.2261 13.7589 31.001C13.8673 30.8888 14.2976 30.8888 14.944 31.1132C15.2679 31.2261 15.5945 31.3425 15.9157 31.5726C16.0374 31.6349 16.1611 31.7363 16.3046 31.8539L16.3046 31.8539L16.3047 31.8539C16.4128 31.9426 16.5322 32.0404 16.6706 32.1377L16.6666 32.1253C16.557 31.7806 16.3435 31.1091 15.9157 30.7738C15.7009 30.4323 15.3763 30.2051 15.1615 30.2051C15.0551 30.2051 14.944 30.0901 14.944 30.0901C14.4667 30.0901 14.0548 30.1952 13.7642 30.2694L13.7642 30.2694C13.5305 30.329 13.3754 30.3686 13.3279 30.3173C13.2715 30.3173 13.2162 30.2006 13.1474 30.0554C13.081 29.915 13.0019 29.7481 12.897 29.6343H12.7866C12.6775 29.6343 12.6775 30.4323 12.6775 30.4323C12.5578 30.4323 12.2727 30.2576 11.9869 30.0825C11.7581 29.9423 11.5288 29.8019 11.3839 29.7507C10.9228 29.7507 10.5847 30.1086 10.2376 30.4758C10.1391 30.5801 10.0398 30.6851 9.93684 30.7829C9.70628 30.7485 9.42359 30.8476 9.11967 31.1531C8.25641 32.018 7.06723 32.018 7.06723 31.4777C6.99821 31.0674 7.36297 30.9608 7.91348 30.8C8.233 30.7066 8.61509 30.595 9.01126 30.3951C9.46647 30.1673 9.655 29.8295 9.84008 29.498C9.91756 29.3592 9.99443 29.2215 10.09 29.0934C9.98361 28.8791 9.87251 28.5545 9.87251 28.2259C9.65703 29.0934 9.11967 29.6371 8.5803 29.4207C7.93252 29.2043 8.148 28.2259 8.7978 27.4679C8.148 27.7978 6.85378 27.4679 7.06723 26.818C7.18036 26.1709 8.03891 26.2778 8.90487 26.7126C8.25641 26.1709 8.03891 25.0856 8.47189 24.8693C9.11967 24.4372 9.65703 25.4116 9.65703 26.4921C9.87251 25.7368 10.4139 24.8693 11.0597 25.1932C11.599 25.4116 11.0597 26.599 10.5223 26.818C10.9533 26.7126 11.599 26.7126 11.8165 26.818C11.8165 26.388 12.3586 26.1709 12.8973 26.1709C13.6501 26.1709 14.2979 26.4921 13.8676 27.0365C13.8676 27.0365 13.3283 27.6849 13.6501 28.1177C13.976 28.4477 14.5134 28.2259 14.9443 27.7978C15.0555 28.1177 15.2682 28.3374 15.5948 28.3374C15.6488 28.2808 15.7034 28.2529 15.7579 28.225C15.8108 28.198 15.8636 28.171 15.916 28.1177C16.0821 27.9509 16.0558 27.6502 16.0359 27.4234L16.0359 27.4234C16.0303 27.3587 16.0251 27.3 16.0251 27.2522C16.1295 27.9033 16.6709 28.4477 17.2102 28.2259C17.6432 27.9033 17.1032 26.9289 16.5625 26.9289C17.1938 26.7538 17.4858 26.8234 17.6558 26.864C17.6701 26.8674 17.6836 26.8706 17.6964 26.8735C17.4074 26.5638 16.425 26.2724 15.916 26.171C15.7012 26.171 15.5948 26.0601 15.5948 26.0601C15.8096 26.599 15.3766 27.361 14.9443 27.7979L14.8352 27.6843C14.8352 27.6401 14.8538 27.5955 14.8757 27.5432C14.9067 27.4688 14.9443 27.3788 14.9443 27.2522C14.9443 27.2071 14.9634 27.1624 14.9857 27.11C15.0173 27.0358 15.0554 26.9461 15.0554 26.8181C15.0554 26.929 14.9443 26.929 14.9443 26.929C14.0831 26.929 13.4346 25.9532 14.1915 25.9532L14.8352 26.0601C13.976 24.9788 14.5134 24.5447 14.9443 24.7604V24.8693C15.3716 25.0831 15.4812 25.404 15.5909 25.7255L15.5948 25.7368C15.6351 25.6548 15.6602 25.5259 15.6875 25.3857C15.7321 25.1561 15.7827 24.896 15.916 24.7604L16.0251 24.6536C16.3893 24.6536 16.5217 24.9623 16.6194 25.1901L16.6195 25.1902C16.6374 25.2319 16.6541 25.2709 16.6708 25.3048C16.6708 25.5205 16.6708 25.7368 16.5624 26.171C16.6708 26.0601 17.8607 26.0601 17.9651 26.7126C17.8742 26.8951 17.817 26.9006 17.6965 26.8735C17.703 26.8806 17.7103 26.8875 17.7176 26.8944C17.7299 26.906 17.742 26.9175 17.7496 26.9289C18.4001 27.7978 19.8027 27.4679 19.4761 26.1709C20.3401 26.4921 20.662 26.06 20.662 25.8437C20.662 25.6273 20.3401 25.3047 20.0182 25.5204C19.2613 25.7368 18.6129 25.4116 18.5065 24.7604C18.4001 25.3047 18.0755 26.06 17.5368 25.7368C16.9948 25.5204 17.4277 24.7604 17.7496 24.4372C15.4837 25.0856 15.8096 22.7034 17.7496 23.4614C15.916 22.4843 18.1806 20.8601 18.6129 22.8123C18.5065 20.8601 20.8795 21.8338 19.3698 23.0287C20.662 22.1618 21.0943 23.0287 20.8795 23.4614C20.4485 23.8982 21.0943 24.4372 21.5272 24.2167C21.74 24.1099 21.8538 23.8982 21.9575 23.5703L21.9186 23.5299C21.8059 23.4134 21.6217 23.2232 21.5272 23.0287C21.4208 22.5939 21.4208 22.0502 21.5272 21.4017C21.6336 21.0758 21.8538 20.7506 22.173 20.4274C22.173 20.4274 23.0383 20.971 23.1454 22.2707C23.2533 21.732 24.0997 20.7709 25.3734 21.8005C25.3869 21.8119 25.4004 21.823 25.4139 21.8338C25.4004 21.8225 25.3869 21.8114 25.3734 21.8005C24.851 21.3586 24.4369 20.526 24.3332 20.1021C24.6571 20.1021 25.3028 20.3185 25.8463 21.1874C25.7338 20.971 25.3028 20.1021 25.4139 19.5605C25.4139 19.5605 26.1661 19.7748 26.2732 19.9926C26.488 19.4509 26.8146 19.1264 27.2448 18.91C27.8906 18.5841 28.7566 18.6956 28.9714 19.2346C29.2959 19.6693 29.2959 19.6693 29.2959 20.2089C29.4023 19.8884 29.7282 19.3421 30.3767 19.0195C30.4811 19.5605 30.2683 20.3185 30.0501 20.7506L30.0864 20.7146L30.0864 20.7146C30.4079 20.3959 30.8188 19.9887 31.2353 19.8884C31.3443 20.6437 30.9141 21.4017 30.2683 22.0502C30.2683 22.0502 32.4251 21.7263 32.2103 20.5369C32.137 20.3901 31.9666 20.2442 31.7975 20.0994L31.7975 20.0994L31.7975 20.0994C31.7151 20.0288 31.6329 19.9585 31.5625 19.8884C31.1289 19.1264 31.1289 18.4792 31.3443 17.7172C31.4528 17.7172 31.5625 18.0424 31.5625 18.2615C31.6689 17.8267 31.7773 17.5008 31.8837 17.394C31.8837 17.394 32.1012 17.613 32.2103 18.0424C32.2197 18.0045 32.2291 17.9648 32.2388 17.9238C32.3392 17.5006 32.4726 16.9382 32.9625 16.7428C33.0689 16.8503 33.0689 17.1776 33.0689 17.394C33.18 17.0687 33.3954 16.7428 33.6109 16.7428C33.7193 16.8503 33.6109 17.1776 33.5018 17.2831C33.7193 17.0687 33.9348 17.0687 33.9348 17.0687C33.9348 17.2831 33.9348 17.394 33.8284 17.5008C33.8722 17.5008 33.9342 17.4827 34.0073 17.4615C34.112 17.431 34.2393 17.394 34.3678 17.394H34.5806L34.5805 17.394C34.4764 17.5006 34.4762 17.5008 34.3683 17.6125L34.3678 17.613C34.2567 17.8267 34.2567 17.9329 34.3678 18.0424L34.3717 18.0464C34.4788 18.1546 34.5845 18.2615 34.9065 18.2615C34.6917 18.4792 34.5806 18.5841 34.3678 18.6956C34.2567 18.8025 34.0432 18.91 33.8284 18.91C33.9534 18.91 34.0779 18.947 34.182 18.9781C34.2569 19.0004 34.3213 19.0195 34.3678 19.0195C34.6821 19.1232 34.7897 19.2281 34.8967 19.3325L34.9065 19.3421C34.9065 19.5605 34.6917 19.7748 34.3678 19.8884C34.3116 19.8884 34.2565 19.915 34.202 19.9413C34.1486 19.9671 34.0958 19.9926 34.0432 19.9926C34.0958 19.9926 34.1486 20.0194 34.202 20.0464C34.2565 20.0741 34.3116 20.1021 34.3678 20.1021C34.7961 20.2089 35.3374 19.8884 35.4465 19.3421C35.9474 19.6436 36.0765 20.108 36.1998 20.552C36.3425 21.0658 36.4776 21.5522 37.1731 21.7263C36.8742 20.8899 36.9049 20.4171 36.9379 19.9066C36.9649 19.4911 36.9934 19.0505 36.8471 18.3684C36.8801 18.3853 36.9156 18.4022 36.9525 18.4197C37.1567 18.5166 37.4043 18.634 37.4949 18.91C37.4949 18.8655 37.5131 18.8212 37.5345 18.7692C37.5647 18.6954 37.6013 18.6062 37.6013 18.4792C38.2518 19.2346 38.7912 19.9926 38.5737 21.6181C38.5737 21.7263 38.6801 21.8338 38.6801 21.8338C38.7912 21.8338 38.8976 21.7263 38.8976 21.5086C38.7912 20.2089 39.3285 19.0195 40.3029 18.4792C40.4066 18.6956 40.4066 19.8884 40.0874 20.7506C39.9763 21.0758 40.5204 21.4017 40.6248 20.4274C40.6248 19.5324 41.0795 19.5498 41.3193 19.5589C41.3411 19.5597 41.3612 19.5605 41.3789 19.5605L41.488 19.4509C41.7055 19.1264 42.0254 19.0195 42.4577 19.1264C42.0254 18.8025 42.1338 18.2615 42.2449 18.152C42.6732 17.613 43.2125 17.613 43.9694 17.613H44.3997H44.6179C44.5633 17.613 44.5361 17.585 44.5088 17.5569C44.4815 17.5289 44.4542 17.5008 44.3997 17.5008L44.373 17.4738C44.1757 17.2739 44.0713 17.1683 43.9694 16.9571C43.5391 16.3087 43.5391 15.5534 43.8583 15.3363H43.9694H44.3997C44.9391 15.5534 45.4784 16.1991 45.6986 17.1776C45.803 16.0943 46.3424 15.2254 46.8838 15.1186H47.0992C47.745 15.3363 47.3141 16.5264 46.8838 17.2831C46.8421 17.3255 46.8163 17.3673 46.7945 17.4027C46.7591 17.46 46.734 17.5008 46.6683 17.5008H46.8838C48.2844 17.1776 49.1497 17.5008 49.2561 17.9329C49.3651 17.7172 49.4742 17.613 49.687 17.5008C49.7954 17.394 49.9018 17.394 50.0129 17.394C51.2008 17.1776 52.062 18.0424 52.7078 19.0195C51.9529 19.3421 52.3859 20.4274 52.9232 20.7506C51.9529 20.3185 50.8769 20.4274 50.7678 20.971C50.6614 21.4017 51.5206 21.7263 52.8169 21.2942C51.0923 21.9427 50.9806 22.7034 51.7361 22.9191C52.1684 23.1355 53.0317 22.7034 53.2471 21.5086C53.1407 22.8123 53.5737 23.3519 54.3279 23.1355C54.9764 22.9191 54.8673 22.0502 53.8956 21.4017C55.0801 22.0502 56.0551 21.8338 56.1615 21.1874C56.1615 20.5369 55.0801 20.5369 54.002 20.8601C55.0801 20.4274 56.0551 19.6693 55.2982 19.2346C54.8673 19.1264 54.3279 19.3421 54.002 19.7748C54.002 19.7748 53.8956 18.4792 55.0801 17.1776C55.4066 17.394 55.6221 17.613 56.0551 18.5841C56.0551 17.8267 56.1615 17.1776 56.4854 16.8503C56.5046 16.87 56.5265 16.8914 56.5506 16.915C56.7946 17.1535 57.2694 17.618 57.5641 18.8025C57.6732 19.3421 57.9971 19.3421 58.1062 18.8025C58.2126 18.152 58.752 16.8503 59.5068 16.5264C59.5068 17.2831 59.5068 18.152 58.8584 19.3421C59.1917 19.3421 59.5259 18.9404 59.9066 18.4829C60.388 17.9044 60.9437 17.2365 61.6663 17.1776C61.1243 17.2831 60.9094 17.9329 61.8791 18.0424C61.3397 19.2346 60.0435 19.9926 60.0435 19.9926C60.4982 20.0694 60.8466 19.8795 61.2745 19.6464C61.4568 19.547 61.6536 19.4398 61.8791 19.3421H61.9875C62.3101 19.3421 62.7424 19.7748 62.2037 20.2089C62.0654 20.302 62.202 20.3356 62.4043 20.3855C62.677 20.4527 63.069 20.5492 63.069 20.8601C63.069 21.0758 62.7424 21.1874 62.636 21.1874C62.636 21.2942 62.8508 21.4017 63.1754 21.4017C63.069 21.5086 62.8508 21.7263 62.5269 21.7263C62.8521 21.7908 62.9422 21.9739 63.0092 22.11C63.0539 22.2007 63.0883 22.2707 63.1754 22.2707C62.9957 22.4496 62.7498 22.4631 62.5113 22.4763C62.319 22.4869 62.1315 22.4973 61.9875 22.5939C61.9331 22.5939 61.906 22.6215 61.879 22.649C61.8523 22.6763 61.8257 22.7034 61.7727 22.7034C61.6663 23.0287 61.6663 23.3519 61.9875 23.5703C62.636 24.0044 64.2541 23.8982 65.0089 23.0287C65.5503 22.3775 66.5207 21.8338 67.4903 22.1618C68.6692 22.4325 69.1636 23.3913 69.3538 23.7602L69.3539 23.7604L69.354 23.7605C69.3904 23.831 69.4156 23.8799 69.4323 23.8982C69.5434 24.1099 69.5434 24.2167 69.5434 24.3256C69.5942 24.317 69.6464 24.3084 69.6995 24.2997C70.3191 24.1978 71.0609 24.0759 71.1589 23.6792C71.2152 23.537 70.9545 23.4248 70.5425 23.2474C69.3787 22.7462 67.0078 21.7251 67.1684 18.0424C68.4299 19.9142 69.4578 20.3727 70.3449 20.7685C71.0499 21.0829 71.6659 21.3577 72.2396 22.2707C72.5186 21.2286 71.7338 19.7767 71.3873 19.1358C71.3365 19.0418 71.2952 18.9652 71.2679 18.91C74.0732 21.0758 74.3978 21.5086 73.3163 23.1355C73.0097 23.6989 73.3809 23.7289 73.9713 23.7766C74.6281 23.8297 75.5562 23.9047 76.1243 24.7604C75.4705 24.5435 75.1096 24.716 74.617 24.9515C74.3754 25.0669 74.1022 25.1975 73.7473 25.3047C72.5868 25.6218 71.8133 25.447 71.1617 25.2998C70.4822 25.1463 69.9353 25.0227 69.2202 25.5184H69.2162L69.1105 24.8693C68.9809 24.888 68.842 24.9003 68.7018 24.9128C68.0228 24.9731 67.3134 25.036 67.4903 25.8437C67.6852 26.6254 67.7233 26.5851 68.0051 26.2872L68.0051 26.2872C68.1918 26.0899 68.4853 25.7796 69.002 25.5204C69.0167 25.5204 69.0363 25.5201 69.0597 25.5197L69.0598 25.5197C69.1019 25.5189 69.1561 25.518 69.2162 25.5184L69.2169 25.5204L69.2177 25.5197L69.2191 25.519C69.2195 25.5188 69.2199 25.5187 69.2202 25.5184C69.6182 25.5204 70.3798 25.6016 70.7286 26.388C70.835 26.7126 70.835 28.0122 70.2956 28.8791C70.0808 29.3139 69.9717 29.8535 69.9717 30.3951C69.8633 28.9859 68.895 28.7702 68.4627 29.2043C67.5967 29.8535 68.5691 30.8292 69.4323 30.8292C68.0297 30.9394 66.951 31.5879 67.0621 32.1288C67.1684 32.7773 68.2472 32.5636 69.5434 31.4777C67.9206 33.1032 68.1401 33.8626 69.002 33.8626C69.5434 33.8626 70.402 32.8842 70.1872 31.5879C70.5131 32.8842 71.3743 33.3189 72.0228 32.7773C72.6686 32.2364 72.1292 31.3708 70.7286 31.0436C72.346 31.1531 73.3163 30.5019 73.1009 29.8535C73.0008 29.1384 71.7549 29.4804 70.7969 30.2459C71.7676 29.3859 72.2858 28.2198 71.2679 28.1177C71.2679 28.1177 71.1589 28.2259 71.0525 28.2259C71.1359 28.1432 71.1385 27.9949 71.1414 27.8254C71.1461 27.557 71.1518 27.2354 71.4807 27.0365C71.8073 26.818 72.2396 27.1433 72.346 28.0122C72.7797 26.7126 73.8584 26.4921 74.2887 26.9289C74.7217 27.4679 74.3978 28.3374 73.6429 28.8791C74.4161 28.938 74.8601 28.6354 75.3561 28.2974C75.7598 28.0223 76.1981 27.7237 76.8765 27.5774H77.094C76.9855 27.5774 76.8765 27.4679 76.8765 27.4679C76.2307 27.1433 75.4738 26.2778 75.9068 25.8437C76.0132 25.5204 76.4462 25.6273 76.8765 25.8437C77.199 26.06 77.6313 26.4921 77.8488 27.0365C77.6313 26.388 77.7404 25.0856 78.4973 25.1932ZM70.6202 30.3951C70.6805 30.3466 70.7395 30.2968 70.7969 30.2459C70.7368 30.294 70.6777 30.3438 70.6202 30.3951ZM23.1453 29.8658C22.7587 29.7833 22.5945 29.6421 22.4123 29.4853C22.3403 29.4234 22.2654 29.3591 22.173 29.2949C22.2821 29.5214 22.4996 30.0901 22.2821 30.4323C22.0666 30.6617 21.74 30.3173 21.6336 30.2051L21.5272 30.0901C21.5272 30.0199 21.4855 29.9046 21.4276 29.7445L21.4276 29.7444L21.4276 29.7444L21.4276 29.7443L21.4275 29.7443L21.4275 29.7443L21.4275 29.7442L21.4275 29.7442L21.4275 29.7442L21.4275 29.7441L21.4274 29.744L21.4274 29.7438L21.4273 29.7437L21.4273 29.7437C21.3928 29.6481 21.3524 29.5366 21.3117 29.4092C21.2033 29.5214 20.3401 30.2051 19.9071 29.6343C19.9071 29.3384 20.2302 29.1875 20.5145 29.0547C20.6648 28.9845 20.8042 28.9193 20.8794 28.8405C20.5549 28.9563 19.8027 28.499 19.6943 28.3847C19.5437 28.2264 19.6527 28.1774 19.7689 28.1251C19.8211 28.1016 19.8748 28.0774 19.9071 28.0425C20.3401 27.9275 20.773 28.0425 21.2033 28.3847C21.2033 28.3158 21.1545 28.2267 21.0979 28.1233C20.966 27.8824 20.7917 27.5641 21.0942 27.2452H21.3117H21.5272C21.68 27.2452 21.7231 27.3052 21.7774 27.3808C21.7987 27.4105 21.8217 27.4427 21.8538 27.4745C22.0666 27.701 22.0666 27.9275 22.0666 28.1554C22.173 28.0425 22.7124 27.8153 22.7124 27.8153C23.1453 27.5867 23.4692 28.0425 23.1453 28.2739L22.606 28.7234C23.9022 29.182 23.5756 29.7507 23.1453 29.8658ZM27.7315 25.141C27.7579 25.0844 27.7842 25.0281 27.7842 24.9724C27.7842 24.9724 27.6778 24.8581 27.6778 24.7452L28.5363 24.5137C28.5843 24.5137 28.6309 24.534 28.6848 24.5575C28.759 24.5897 28.847 24.628 28.9713 24.628C29.0784 24.628 29.1875 24.5137 29.1875 24.2908C29.0784 24.1793 28.8649 24.1793 28.7565 24.1793C28.7216 24.2159 28.6981 24.2524 28.6746 24.289C28.6266 24.3637 28.5787 24.4384 28.4326 24.5137L27.6778 24.7452C27.5725 24.5162 27.4626 24.4039 27.3553 24.2943L27.3519 24.2908L27.7842 23.6056C27.8374 23.5509 27.919 23.5509 28.0006 23.5509C28.0823 23.5509 28.1639 23.5509 28.2171 23.4963C28.3235 23.3784 28.3235 23.2662 28.2171 23.1512C27.9996 23.039 27.8905 23.039 27.7842 23.2662C27.7128 23.3414 27.7371 23.4192 27.7609 23.4952C27.7726 23.5326 27.7842 23.5696 27.7842 23.6056L27.2448 24.1793C27.0293 24.0593 26.8145 24.0593 26.599 24.0593V23.2662C26.599 23.2184 26.6363 23.1904 26.6799 23.1578C26.741 23.112 26.8145 23.057 26.8145 22.9247C26.8145 22.8097 26.7054 22.6947 26.599 22.6947C26.3835 22.6947 26.2731 22.8097 26.3835 22.9247C26.3835 22.9818 26.4096 23.0383 26.4356 23.0949C26.4617 23.1517 26.4879 23.2086 26.4879 23.2662V24.0593C26.2731 24.0593 26.0576 24.0593 25.9512 24.1793L25.4139 23.4963C25.3495 23.4963 25.3597 23.4567 25.3797 23.3793C25.3942 23.323 25.4139 23.2468 25.4139 23.1512C25.3028 23.039 25.0853 23.039 24.9809 23.039C24.8725 23.1512 24.8725 23.3784 24.9809 23.3784C25.035 23.4395 25.0914 23.4689 25.1477 23.4983C25.2001 23.5256 25.2525 23.5529 25.3028 23.6056L25.8462 24.1793C25.788 24.2369 25.7315 24.3244 25.6754 24.4113L25.6753 24.4113L25.6753 24.4113C25.6229 24.4923 25.5709 24.5728 25.5183 24.628L24.657 24.4015C24.5479 24.4015 24.5208 24.3456 24.4938 24.2899C24.467 24.2345 24.4402 24.1793 24.3331 24.1793C24.224 24.0593 24.0065 24.1793 24.0065 24.2908C23.9022 24.4015 24.0065 24.5137 24.224 24.5137C24.2753 24.5674 24.3259 24.5459 24.3878 24.5196C24.4576 24.4899 24.5417 24.4542 24.657 24.5137L25.5183 24.7452C25.4139 24.8581 25.4139 24.9724 25.4139 24.9724V25.3139L24.5479 25.5389C24.503 25.5389 24.4583 25.5195 24.4061 25.4968L24.4061 25.4968L24.4061 25.4968C24.3324 25.4647 24.2437 25.4261 24.1176 25.4261C24.0065 25.4261 23.9022 25.5389 24.0065 25.7683C24.0065 25.8826 24.224 25.8826 24.3331 25.8826C24.3681 25.845 24.3916 25.8076 24.4151 25.7702C24.463 25.694 24.511 25.6176 24.657 25.5389L25.5183 25.3139C25.5183 25.5389 25.6273 25.6561 25.8462 25.7683L25.3028 26.4492C25.2506 26.5074 25.1962 26.5074 25.1283 26.5074C25.0604 26.5074 24.9789 26.5074 24.8725 26.5656C24.7654 26.6778 24.7654 26.7935 24.8725 26.9029C25.0853 27.015 25.1984 27.015 25.3028 26.7935C25.3583 26.7357 25.3583 26.6787 25.3583 26.6216C25.3583 26.5645 25.3583 26.5074 25.4139 26.4492L25.9512 25.8826C26.0576 25.9948 26.2731 25.9948 26.4879 25.9948V26.7935C26.4879 26.8381 26.4523 26.8645 26.41 26.8957C26.3486 26.9413 26.2731 26.9971 26.2731 27.1343C26.2731 27.2451 26.3835 27.3615 26.4879 27.3615C26.7054 27.3615 26.8145 27.2451 26.8145 27.1343L26.8029 27.1217C26.698 27.0071 26.599 26.899 26.599 26.7935V25.9948C26.8145 25.9948 27.0293 25.9948 27.1357 25.8826H27.2448L27.6778 26.5656C27.731 26.5656 27.731 26.5937 27.731 26.6498C27.731 26.706 27.731 26.7903 27.7842 26.9029C27.7842 27.015 27.9996 27.015 28.1107 27.015C28.2171 26.9029 28.2171 26.6778 28.1107 26.6778C28.0568 26.6233 28.0034 26.5953 27.9505 26.5676C27.8944 26.5382 27.8389 26.5091 27.7842 26.4492L27.2448 25.8826C27.3959 25.8024 27.4956 25.6658 27.5784 25.5523L27.5785 25.5523C27.6138 25.5039 27.646 25.4598 27.6778 25.4261L28.4326 25.6561C28.541 25.6561 28.5671 25.7124 28.5933 25.7688C28.6196 25.8256 28.6461 25.8826 28.7565 25.8826C28.8649 25.9948 29.0784 25.8826 29.0784 25.7683C29.1875 25.6561 29.0784 25.5389 28.8649 25.5389C28.8113 25.4831 28.7581 25.5112 28.7043 25.5397C28.6494 25.5687 28.5938 25.5981 28.5363 25.5389L27.6778 25.3139C27.6778 25.256 27.7047 25.1983 27.7315 25.141ZM36.4159 24.6281C35.9791 24.4754 35.7397 24.3246 35.4976 24.172C35.3807 24.0983 35.2631 24.0243 35.1224 23.9494C35.1477 24.0309 35.1917 24.1252 35.2395 24.2278C35.392 24.5553 35.5838 24.9669 35.3372 25.314C35.0153 25.5391 34.5803 25.199 34.3675 24.9725C34.283 24.8855 34.2008 24.6004 34.1194 24.3183C34.0939 24.2296 34.0684 24.1413 34.0429 24.0594C33.9345 24.1794 32.7494 24.9725 32.3164 24.4016C32.2388 23.9052 32.7332 23.7096 33.1316 23.552C33.2796 23.4934 33.4143 23.4401 33.5016 23.3785C33.0686 23.4964 32.1009 22.9248 31.9945 22.6948C31.777 22.4704 31.9945 22.3561 32.21 22.3561C32.7494 22.0118 33.3952 22.239 33.9345 22.6948C33.9076 22.609 33.8527 22.5083 33.7928 22.3984C33.6163 22.0745 33.3963 21.6707 33.7191 21.333L34.0429 21.2159H34.3675C34.5803 21.333 34.6914 21.4452 34.6914 21.4452C35.0153 21.7853 35.0153 22.1261 35.0153 22.4704C35.1224 22.239 35.7681 21.8989 35.7681 21.8989C36.4159 21.6703 36.8469 22.239 36.4159 22.5826L35.6611 23.0391C37.2792 23.7207 36.9553 24.5138 36.4159 24.6281ZM48.8236 18.7167C48.1778 18.7167 47.5293 18.5995 46.8836 18.373H46.7745L46.8836 18.4895C47.3139 18.9418 47.9623 19.6248 47.7448 20.1935C48.0687 19.8498 48.6101 19.0568 48.8236 18.7167ZM45.9112 19.2825C46.1287 19.9691 46.4505 20.3056 46.8835 20.535H46.9899L46.8835 20.65C46.2357 20.8743 45.5873 20.65 45.2654 20.1934C45.6929 19.9719 45.8 19.6335 45.907 19.2956L45.9112 19.2825ZM44.4957 18.9332C44.4721 18.9417 44.4455 18.9417 44.3995 18.9417L44.3995 18.9417C44.3379 19.0083 44.312 19.0363 44.2801 19.0481C44.2568 19.0567 44.2304 19.0567 44.1847 19.0567L44.2931 19.1689H44.3995C44.4542 19.1127 44.4814 19.0558 44.5087 18.9989C44.536 18.9421 44.5632 18.8852 44.6177 18.8288C44.5546 18.8941 44.528 18.9216 44.4957 18.9332ZM43.9692 21.8988V21.7852C44.0756 21.7852 44.2931 21.7852 44.2931 21.8988C44.2931 22.126 44.2931 22.2389 44.1847 22.2389H43.9692C43.9041 22.1728 43.8772 22.1454 43.8446 22.134C43.8216 22.126 43.7958 22.126 43.7517 22.126C43.7914 22.0834 43.8163 22.0409 43.8376 22.0044L43.8377 22.0044C43.8736 21.9432 43.8996 21.8988 43.9692 21.8988ZM41.9202 24.7451C41.9202 24.9723 42.0253 25.0845 42.1337 25.0845C42.2448 25.0845 42.3512 24.858 42.3512 24.7451C42.3512 24.6961 42.3131 24.6676 42.2688 24.6345C42.2073 24.5884 42.1337 24.5332 42.1337 24.4015C42.1337 24.5332 42.0615 24.5884 42.001 24.6345C41.9576 24.6676 41.9202 24.6961 41.9202 24.7451ZM43.4317 24.628C43.3233 24.628 43.2122 24.628 43.1058 24.5137C43.1058 24.4763 43.1177 24.4389 43.1296 24.4017C43.1532 24.3275 43.1767 24.2536 43.1058 24.1793L42.6729 23.4963C42.5658 23.6056 42.351 23.6056 42.1335 23.6056C41.92 23.6056 41.7052 23.6056 41.5961 23.4963L41.4877 23.6056L41.1658 24.0593C41.0986 24.1338 41.1148 24.205 41.1368 24.3015C41.1502 24.3606 41.1658 24.4291 41.1658 24.5137C41.1118 24.5707 41.0847 24.5992 41.0574 24.5995C41.0299 24.5997 41.0021 24.5711 40.9463 24.5137C40.8393 24.5137 40.7329 24.2908 40.8393 24.1793C40.8928 24.1193 40.9473 24.1193 40.9885 24.1193C41.0297 24.1193 41.0574 24.1193 41.0574 24.0593L41.4877 23.4963L41.5961 23.3784H41.4877C41.3786 23.2663 41.2722 23.1512 41.2722 22.9247C41.2722 22.8097 41.1658 22.6947 41.1658 22.6947C41.1658 22.6389 41.1922 22.5831 41.2187 22.527C41.2454 22.4703 41.2722 22.4135 41.2722 22.356L40.6245 22.126C40.5721 22.0687 40.5174 22.0972 40.4628 22.1257C40.4085 22.154 40.3543 22.1823 40.3026 22.126C40.1915 22.126 40.0871 22.0117 40.0871 21.8988C40.1915 21.7852 40.3026 21.6702 40.4063 21.7852C40.5352 21.7852 40.5515 21.8643 40.5648 21.9291C40.574 21.9738 40.5818 22.0117 40.6245 22.0117L41.2722 22.2389C41.2722 22.126 41.3786 22.0117 41.4877 21.8988H41.5961L41.4877 21.6702L41.1658 21.2158L41.4877 21.558L41.5961 21.7852C41.8096 21.6702 41.92 21.6702 42.1335 21.6702V20.8743C42.1335 20.7679 42.0361 20.6616 41.9365 20.5529L41.92 20.5349C41.92 20.4206 42.0251 20.3056 42.1335 20.3056C42.351 20.3056 42.4574 20.4206 42.351 20.5349C42.351 20.6683 42.3143 20.7234 42.284 20.7688C42.2627 20.8008 42.2446 20.828 42.2446 20.8743V21.6702C42.351 21.6702 42.5658 21.6702 42.6729 21.7852L43.1058 21.2158C43.159 21.1608 43.159 21.1041 43.159 21.0469C43.159 20.9896 43.159 20.9318 43.2122 20.8743C43.2122 20.6499 43.4317 20.6499 43.5388 20.7621C43.6472 20.8743 43.6472 20.9893 43.5388 21.1057C43.4853 21.1608 43.4314 21.1608 43.377 21.1608C43.3227 21.1608 43.2678 21.1608 43.2122 21.2158L42.784 21.8988L42.7878 21.9029C42.893 22.0145 43.0007 22.1288 43.1058 22.356V22.6947V22.9247L43.7516 23.1512C43.8171 23.222 43.8422 23.2057 43.8778 23.1827C43.9 23.1683 43.9263 23.1512 43.9691 23.1512H44.0755C44.293 23.1512 44.293 23.2663 44.293 23.3784C44.293 23.6056 44.0755 23.6056 43.9691 23.4963C43.9129 23.4963 43.8852 23.4375 43.8577 23.3794C43.8308 23.3225 43.8042 23.2663 43.7516 23.2663L43.1058 23.0391C43.0067 23.2507 42.9052 23.3626 42.8058 23.4722L42.784 23.4963L43.1058 24.0593C43.1612 24.1218 43.2178 24.1517 43.2747 24.1818C43.3271 24.2095 43.3797 24.2373 43.4317 24.2908C43.5388 24.4016 43.5388 24.5137 43.4317 24.628ZM41.1658 21.2158C41.1039 21.1529 41.0774 21.126 41.0453 21.1144C41.0212 21.1057 40.994 21.1057 40.9463 21.1057C40.8393 20.9893 40.8393 20.7621 40.9463 20.6499C40.9938 20.6499 41.0209 20.6499 41.0449 20.6586C41.0772 20.6703 41.1037 20.6978 41.1658 20.7621C41.2403 20.9212 41.2105 21.026 41.1859 21.1123C41.1754 21.1492 41.1658 21.1828 41.1658 21.2158ZM41.2722 22.9247L40.6245 23.2663C40.5609 23.2663 40.5361 23.3078 40.5007 23.3669C40.478 23.4049 40.4508 23.4501 40.4063 23.4963C40.3026 23.6056 40.0871 23.4963 40.0871 23.3784C40.0871 23.2663 40.0871 23.0391 40.3026 23.0391C40.3543 23.0391 40.4086 23.067 40.463 23.095C40.5175 23.1231 40.5722 23.1512 40.6245 23.1512L41.2722 22.9247ZM47.853 26.337C47.6362 25.7683 48.5008 24.858 49.6866 24.4015C49.8624 24.3418 50.0371 24.3143 50.2287 24.2841C50.3923 24.2583 50.5682 24.2306 50.7674 24.1793C50.5924 24.1144 50.3861 24.0525 50.182 23.9912L50.182 23.9912L50.1818 23.9912C50.0083 23.9391 49.8364 23.8874 49.6866 23.8349C49.543 23.8349 49.3992 23.8222 49.2554 23.8095L49.2553 23.8095C48.9678 23.7841 48.6804 23.7587 48.3944 23.8349C47.9538 23.9492 47.7376 24.3889 47.5462 24.7781C47.3617 25.1533 47.2003 25.4814 46.8834 25.426L46.2356 25.0845C46.2356 25.0845 46.342 25.426 46.342 25.8826C46.342 26.073 45.9353 26.085 45.4635 26.0991C45.0942 26.11 44.6849 26.1222 44.3993 26.222C44.3373 26.289 44.2746 26.3551 44.2115 26.4216L44.2115 26.4216L44.2114 26.4216L44.2114 26.4217L44.2114 26.4217L44.1519 26.4844C44.1264 26.5113 44.1009 26.5383 44.0754 26.5656C44.0754 26.6212 44.0492 26.6493 44.0228 26.6775C43.996 26.7063 43.969 26.7352 43.969 26.7935C43.8579 27.015 43.7515 27.3615 43.5387 28.4989C43.5387 28.4989 43.7515 28.3846 43.969 28.1553C44.0009 28.1214 44.0331 28.0772 44.0683 28.0289C44.1504 27.9162 44.249 27.7809 44.3993 27.7009C45.0498 27.1343 45.911 26.6778 46.6679 26.7935L46.8834 27.015C47.0989 27.2451 47.0989 28.0424 47.0989 28.0424L48.6099 27.015C48.6099 27.015 47.9621 26.6778 47.853 26.337ZM64.039 28.2739C63.1751 28.7233 62.5266 28.7233 61.9872 28.6097C61.557 28.6097 61.124 28.7233 60.6917 29.0684L60.3718 28.3846C60.3718 28.3846 61.8788 27.9274 61.8788 27.4744C61.9083 27.3494 61.6822 27.3092 61.3266 27.246C60.375 27.0768 58.4964 26.7427 58.1053 24.1793C59.299 25.2138 60.1268 25.3822 60.8567 25.5307C61.2479 25.6102 61.611 25.6841 61.9872 25.8826C62.197 25.9914 62.3034 26.103 62.5077 26.3171L62.5266 26.337C62.5266 25.8826 62.3098 25.3139 61.9872 24.8581C61.7838 24.64 61.6228 24.4259 61.5039 24.2677C61.435 24.1761 61.3802 24.1033 61.3395 24.0593C61.557 24.1793 61.7724 24.2908 61.9872 24.4015C63.8229 25.3139 64.039 25.6561 63.499 26.7935C63.3437 27.2286 63.6348 27.194 64.0872 27.1404C64.5783 27.0821 65.2594 27.0014 65.7655 27.4744C65.265 27.4744 65.0489 27.6235 64.7103 27.8571C64.5369 27.9767 64.3313 28.1185 64.039 28.2739ZM51.0924 10.5645C51.4163 10.7856 51.3072 11.5409 51.3072 11.5409L52.6014 10.9993C52.6014 10.9993 52.1685 10.674 52.1685 10.3535C52.0621 9.70235 53.3556 9.37439 54.7609 9.15869C54.0021 9.05117 53.0317 8.51157 53.0317 8.51157C52.5466 8.51157 52.1952 8.91364 51.9195 9.22913C51.7666 9.40409 51.6369 9.55242 51.5207 9.59078L51.0924 9.15869C51.0924 9.15869 50.9806 9.59078 50.9806 9.80919C50.9248 9.80919 50.8464 9.80182 50.7513 9.79289C50.4845 9.76781 50.0863 9.7304 49.6871 9.80919C49.4743 9.80919 49.2561 9.80919 49.0433 10.0249C49.0433 10.0249 48.9639 10.2575 48.8103 10.5807C49.1403 10.6105 49.4514 10.6903 49.6871 10.8924C50.3355 10.674 50.9806 10.4577 51.0924 10.5645ZM44.3997 10.4577C44.2933 10.4577 44.0758 10.3536 43.9694 10.244C43.1062 9.80924 42.1338 9.48331 41.4881 9.26964C41.1662 9.15874 40.9467 9.15874 40.9467 9.15874C41.0086 9.09883 41.1027 9.07231 41.2112 9.04173C41.2974 9.01743 41.3926 8.99057 41.4881 8.94236C42.5661 8.61914 43.3237 8.18232 43.3237 8.18232C43.5392 8.18232 43.7519 8.28916 43.9694 8.40073C44.0241 8.45767 44.108 8.51371 44.1911 8.56923C44.2699 8.62185 44.348 8.67399 44.3997 8.72598C44.7444 9.01405 45.0573 9.36155 45.3235 9.65721L45.3236 9.65728L45.3236 9.65733C45.5598 9.91959 45.7592 10.141 45.9114 10.244C46.0178 9.9181 46.6683 9.48331 46.6683 9.48331L46.7747 10.4577C46.7747 10.5645 46.8838 10.5645 46.8838 10.5645C47.0884 10.6484 47.4318 10.6244 47.8207 10.5972C48.1372 10.575 48.4838 10.5507 48.8103 10.5808C48.7066 10.8012 48.5686 11.0622 48.3948 11.3273C48.3948 11.3273 49.0433 11.1089 49.687 10.8925H49.7955C49.7955 10.8925 50.4439 12.299 50.9806 13.7102C50.5503 13.3843 50.12 13.061 49.687 12.8426C48.6103 12.1921 47.5296 11.7594 46.8838 11.9778C46.6683 11.9778 46.5572 12.0853 46.4508 12.1921C46.236 12.629 46.236 13.4911 46.236 13.4911L44.3997 12.629L44.0758 12.5174C44.0758 12.5174 44.1849 12.4078 44.3997 12.299C44.7243 12.0853 45.1552 11.6505 45.0502 11.2157C44.9425 11.006 44.7374 10.7988 44.4294 10.4876L44.4293 10.4876L44.3997 10.4577ZM60.1529 7.53376C59.398 8.07742 59.291 8.61905 59.7239 8.94227C60.1529 9.15865 60.5859 8.61905 60.5859 7.75014C60.8007 8.72589 61.34 9.05113 61.6666 8.83475C62.0989 8.51153 61.6666 7.85901 61.0182 7.53376C61.34 7.64263 61.6666 7.75014 61.9878 7.75014C62.3104 7.75014 62.5272 7.64263 62.4208 7.31535C62.4208 7.09897 62.204 6.99213 61.9878 6.99213C61.6666 6.88259 61.34 6.99213 60.9098 7.20784C61.773 6.77372 61.773 6.12525 61.34 5.9082C60.9098 5.69249 60.4768 6.4505 60.4768 6.99213C60.2633 6.23412 59.7239 5.69249 59.398 5.9082C59.0741 6.12525 59.291 6.77372 60.1529 7.20784C58.9698 6.66485 58.5341 6.99213 58.6432 7.53376C58.7523 7.75014 59.398 7.96855 60.1529 7.53376ZM78.9276 18.8024C79.2515 18.6956 79.7909 19.1263 79.4697 20.1021C79.7909 19.2345 80.4393 18.6956 80.7632 19.0195C81.2796 19.3283 80.7073 19.9377 79.9957 20.2751C79.9628 20.2884 79.9308 20.3029 79.9 20.3184C79.9321 20.3046 79.9641 20.2901 79.9957 20.2751C80.42 20.1032 81.0002 20.1176 81.3026 20.3184C81.409 20.4273 81.409 20.5369 81.409 20.6437C81.409 20.8601 81.3026 20.971 81.3026 20.971C80.9767 21.2942 80.4393 21.1874 79.7909 20.7505C80.4393 21.401 80.5457 22.1617 80.0064 22.3775C79.4697 22.5938 79.1431 22.0495 79.2515 20.971C79.0387 21.9427 78.3909 22.3775 78.0644 22.1617C77.525 21.9427 77.6314 21.2942 78.9276 20.7505C77.958 21.0758 77.3095 20.8601 77.3095 20.4273C77.4186 19.9925 78.2778 19.8884 79.0387 20.3184C78.6057 19.9925 78.2778 19.0195 78.9276 18.8024ZM76.8768 15.4431C76.9194 15.4862 76.962 15.5124 76.998 15.5346C77.0541 15.5692 77.0943 15.594 77.0943 15.6574C77.0943 15.769 76.9858 15.8779 76.8768 15.9834C76.4465 16.1991 75.5832 16.3086 75.5832 16.3086L75.9071 17.0687C76.231 16.7427 76.5549 16.7427 76.8768 16.7427C76.9449 16.7563 77.013 16.7715 77.0822 16.787C77.563 16.8948 78.0941 17.0139 79.039 16.6332C79.2688 16.534 79.4486 16.4347 79.6059 16.3479C79.9632 16.1506 80.2046 16.0173 80.6544 16.0943C80.1982 15.5222 79.5313 15.5238 79.0676 15.5248C78.6538 15.5258 78.4018 15.5264 78.606 15.1185C79.1433 13.9237 78.9279 13.6025 76.8768 12.2988H76.7731L76.8768 12.4077L76.9131 12.4621C77.1673 12.8425 77.8437 13.8546 77.7407 14.5749C77.5654 14.4 77.3894 14.2556 77.2302 14.125L77.2301 14.1249C77.097 14.0158 76.9758 13.9163 76.8768 13.8169C76.6933 13.7476 76.5098 13.6981 76.3222 13.6475C75.6272 13.4599 74.8757 13.2571 73.8587 11.9776C74.063 14.6553 75.9289 15.1775 76.7578 15.4095L76.7581 15.4095C76.8005 15.4214 76.8402 15.4325 76.8768 15.4431ZM30.8032 8.40057C30.8032 8.40057 31.6692 8.07735 31.5628 7.64256C31.453 6.99206 29.8356 5.79926 28.4329 5.69242C29.8356 4.93509 30.4813 5.25763 30.4813 5.25763C30.9904 5.37206 31.3218 5.87197 31.5996 6.29094C31.852 6.67166 32.0602 6.98554 32.3169 6.88252C32.6408 6.77365 33.0691 6.45043 33.0691 6.45043L32.8563 7.20777C32.9353 7.53051 33.3727 7.49446 33.8581 7.45444C34.0266 7.44055 34.2009 7.42618 34.368 7.42618C34.4436 7.45127 34.5193 7.47051 34.5935 7.48939C34.8374 7.55141 35.0662 7.60961 35.2293 7.85894C35.2293 7.85894 35.9855 8.40057 36.0946 10.1343C35.6616 9.48315 35.0165 8.9422 34.368 8.61898C33.6112 8.18216 32.8563 8.07735 32.5338 8.40057C32.2106 8.61898 32.4254 9.37429 32.4254 9.37429C31.9951 8.9422 31.3446 8.61898 30.8032 8.40057ZM60.4765 14.0354C59.6132 15.4433 59.7237 16.4156 60.5856 16.5265C61.3398 16.6334 61.7727 15.5535 61.2327 14.1443C61.4509 14.575 61.6663 14.9023 61.9875 15.1187C62.636 15.6576 63.3909 15.7692 63.7168 15.2255C64.1477 14.4682 63.1754 13.817 61.9875 13.6027C63.2838 13.7102 64.5753 13.1679 64.0393 12.4078C63.7168 11.8682 62.8508 11.9778 61.9875 12.5174C61.8394 12.5945 61.6939 12.7209 61.5815 12.8622C61.7485 12.6066 61.9013 12.3639 61.9875 12.1921C62.2037 11.6505 62.0986 11.3273 61.9875 10.9993C61.8791 10.8925 61.6663 10.7857 61.4509 10.7857C60.4765 10.5645 60.263 12.1921 60.5856 12.9474C59.8307 11.7594 58.6429 11.3273 58.2126 11.9778C57.7796 12.5174 58.5338 13.2774 60.1526 13.4911C57.886 13.3843 57.3467 14.2538 57.886 14.9023C58.2126 15.3364 59.5068 15.3364 60.4765 14.0354ZM69.0022 14.575C68.6777 14.3579 68.6777 13.9238 69.7544 13.491C69.0022 13.7101 68.4629 13.491 68.4629 13.1678C68.5693 12.8426 69.217 12.7357 69.7544 13.061C69.4325 12.8426 69.217 12.0852 69.65 11.9777C69.9719 11.8682 70.4022 12.1921 70.1874 12.9474C70.4022 12.2989 70.8352 11.8682 71.159 12.0852C71.594 12.2989 71.0527 12.8426 70.4022 13.1678C71.0527 12.9474 71.7011 12.9474 71.7011 13.3842C71.594 13.817 71.0527 13.9238 70.4022 13.491C70.9442 13.9238 70.9442 14.575 70.6203 14.6838C70.1874 14.9022 69.8635 14.4681 69.9719 13.6026C69.8635 14.3579 69.3281 14.6838 69.0022 14.575ZM3.83316 25.0856C3.42807 25.3183 3.36324 25.9537 3.3081 26.4941C3.26022 26.9634 3.21965 27.361 2.96989 27.361L2.10596 27.0364C2.10596 27.0364 2.42783 27.5774 2.53692 27.7978C2.59039 28.064 2.17093 28.3039 1.70628 28.5698C1.22887 28.8429 0.703765 29.1434 0.594908 29.5275C0.594908 29.5275 0.275056 29.9609 0.809714 31.4776C1.1363 30.0718 2.53692 28.6627 3.18739 28.6627C3.61566 28.6627 3.83316 29.637 3.83316 29.637C4.04796 28.9859 4.48094 28.4476 5.02031 28.1176C5.02031 28.1176 4.26412 28.2258 4.04796 27.9033C3.61566 27.0364 4.6944 25.1931 6.09906 24.6535C4.48094 24.4371 3.83316 25.0856 3.83316 25.0856ZM18.8619 17.4973C18.1454 17.4882 16.9334 17.4727 15.9163 16.5264L15.8851 16.4947C15.5676 16.1715 15.1551 15.7517 14.9446 15.2254C14.8894 15.1713 14.8621 15.0892 14.8348 15.007C14.8082 14.9269 14.7816 14.8467 14.7291 14.7926L14.9446 14.9022C15.2685 15.1186 15.5951 15.3363 15.9163 15.4431C16.736 15.7343 17.3406 15.7437 17.8743 15.7521C18.5344 15.7624 19.0863 15.771 19.803 16.3087C19.5855 15.3363 18.2892 14.3579 17.9653 14.1442C20.7733 14.9022 21.0945 15.1186 20.8797 16.6332C20.7807 17.0384 21.0518 16.97 21.4387 16.8725L21.439 16.8724C21.4679 16.8652 21.4974 16.8577 21.5275 16.8503C22.0669 16.6332 22.7126 16.4155 23.3584 16.8503C22.8475 16.9229 22.6346 17.1477 22.3125 17.4876L22.3125 17.4876C22.1604 17.6482 21.9839 17.8344 21.7403 18.0424C21.7403 18.1102 21.6995 18.1361 21.6432 18.1717C21.6085 18.1937 21.568 18.2194 21.5275 18.2608C20.9151 18.7209 20.3756 18.795 19.9084 18.8591C19.3867 18.9308 18.9552 18.9901 18.6131 19.5605L18.0758 18.9093C18.0758 18.9093 19.4764 18.152 19.4764 17.6124C19.4416 17.5046 19.2103 17.5017 18.8619 17.4973ZM83.6758 26.7125C84.7539 26.818 85.8353 26.4921 85.4023 25.8436C85.0813 25.4154 84.1254 25.5185 83.4778 26.2575C84.2121 25.4014 83.8864 24.7595 83.3519 24.6535C82.5971 24.5446 82.4887 25.6272 82.8146 26.1709C82.3816 25.5204 81.6247 25.1931 81.3028 25.3047C81.0854 25.3047 80.9769 25.3047 80.9769 25.4115C80.7635 25.6272 80.8705 25.8436 81.3028 26.1709C81.5183 26.2777 81.9513 26.4921 82.4887 26.5989C82.0973 26.5211 81.7613 26.5566 81.5244 26.5817C81.436 26.591 81.3614 26.5989 81.3028 26.5989C80.9008 26.7348 80.7487 26.912 80.7419 27.104C80.7444 27.1111 80.7483 27.1164 80.7522 27.1217C80.7554 27.1261 80.7586 27.1304 80.761 27.1358L80.7617 27.1377C80.7624 27.1394 80.763 27.1412 80.7635 27.1432C80.7671 27.1702 80.7656 27.1955 80.764 27.2208C80.7636 27.2285 80.7631 27.2362 80.7628 27.244C80.7843 27.3184 80.8207 27.3927 80.8705 27.4678C80.9769 27.5773 81.0854 27.6842 81.3028 27.6842C81.6247 27.7978 82.2752 27.5773 82.8146 27.0364C82.1661 27.9033 82.2752 28.6626 82.921 28.7695C83.5694 28.879 83.8906 28.0121 83.3519 27.0364C84.1081 28.1176 84.9694 28.3374 85.296 27.7978C85.6178 27.361 84.6475 26.818 83.6758 26.7125ZM10.9536 17.8268C10.6317 17.6125 10.6317 17.1777 11.5993 16.6334C10.8472 16.9573 10.3058 16.7429 10.3058 16.3088C10.3058 15.9835 10.9536 15.8781 11.5993 16.3088C11.2781 15.9835 10.9536 15.2255 11.3845 15.0119C11.7105 14.9023 12.0323 15.3364 11.9259 16.1993C12.0323 15.4433 12.5717 15.0119 12.8976 15.2255V15.3364C13.1062 15.4408 13.0074 15.648 12.9047 15.8631L12.8976 15.8781C12.8339 16.0028 12.6991 16.0905 12.5556 16.1838C12.4501 16.2524 12.3399 16.324 12.2498 16.4156L12.2537 16.4137C12.4652 16.3075 12.6794 16.1999 12.8976 16.3088C13.2175 16.3088 13.435 16.4156 13.435 16.7429C13.435 16.9573 13.2175 17.1777 12.8976 17.0688C12.6781 17.0688 12.4626 16.9573 12.1407 16.7429C12.7872 17.2832 12.8976 17.933 12.4626 18.0425C12.1407 18.261 11.8168 17.7173 11.8168 16.8504C11.7105 17.7173 11.2781 18.0425 10.9536 17.8268ZM4.80281 18.0424C5.55766 17.7172 5.99064 17.0687 5.34016 16.8503C5.02031 16.6333 4.48093 17.0687 4.48093 17.9329C4.48093 16.9572 3.93954 16.6333 3.61565 16.7428C3.07628 17.0687 3.61565 17.8267 4.04796 18.0424C3.29108 17.8267 2.53691 17.9329 2.53691 18.3684C2.53691 18.6956 3.18738 18.9093 4.04796 18.4793C2.96989 19.1264 3.07628 19.6694 3.61565 19.8884C3.93954 19.9926 4.48093 19.5605 4.48093 18.6956C4.588 19.6694 5.02031 20.1021 5.45328 19.8884C5.88155 19.6694 5.66674 19.0195 4.80281 18.4793C5.77314 18.9093 6.42092 18.6956 6.42092 18.2609C6.31453 17.7172 5.45328 17.8267 4.80281 18.0424ZM11.2779 21.5087C9.22618 22.0496 9.01137 22.9192 9.76622 23.352C10.3056 23.6792 11.3843 23.352 11.8166 21.9428C11.4927 23.352 12.0321 24.2168 12.787 24.11H12.8974C13.4348 23.8983 13.5459 23.1356 12.8974 22.2707C12.8407 22.2148 12.7843 22.1297 12.7284 22.0455L12.7284 22.0455C12.6756 21.9658 12.6232 21.8868 12.5715 21.8339C12.6287 21.8924 12.6866 21.9504 12.7452 22.0089C12.7955 22.0592 12.8463 22.1099 12.8974 22.1619C13.7593 22.7035 14.6219 22.7035 14.9445 22.3776C15.0556 22.2707 15.0556 22.1619 15.0556 22.0496C15.1437 21.8709 15.0858 21.7664 15.0001 21.612L15.0001 21.612L15.0001 21.6119L15 21.6118C14.9823 21.5799 14.9635 21.5459 14.9445 21.5087C14.5135 21.1875 13.7593 21.0759 12.8974 21.1875C14.0832 20.8602 15.0556 20.1022 14.298 19.5606C13.8677 19.2346 13.3284 19.3421 12.8974 19.7749C12.6951 19.9756 12.4081 20.3607 12.279 20.7586C12.6465 19.4148 12.0164 18.6983 11.3843 18.8025C10.414 19.0196 10.847 20.4274 11.4927 20.9711C10.3056 20.209 9.11978 20.1022 8.90498 20.7507C8.79791 21.2943 9.76622 21.8339 11.2779 21.5087ZM12.2496 20.8602C12.26 20.826 12.2698 20.7921 12.279 20.7586C12.268 20.7924 12.2582 20.8263 12.2496 20.8602ZM15.8098 7.31535C15.8098 7.31535 15.8098 7.20784 15.9162 6.99213C16.0253 6.77372 16.4562 6.55937 17.2104 6.23412C17.2104 6.23412 16.2407 6.23412 15.9162 5.79933C15.9162 5.74649 15.8902 5.71979 15.8638 5.69279C15.837 5.6652 15.8098 5.63731 15.8098 5.58092L15.9162 5.47611C16.1296 5.36725 16.5626 5.15086 17.4279 5.79933C17.4279 5.79933 16.7794 4.71878 17.7498 3.8492C17.7498 3.8492 18.4003 4.5024 17.8609 5.69249L17.8807 5.67095C18.0226 5.51533 18.557 4.92947 19.4763 4.82562C19.4763 4.82562 19.2615 5.69249 18.1807 6.01368C18.1807 6.01368 19.1551 6.01368 19.3699 6.77372C19.3699 6.77372 18.7221 7.42625 17.8609 6.4505C17.8609 6.4505 18.4003 7.42625 17.3215 7.96855C17.3215 7.96855 16.671 7.64263 17.4279 6.55937C17.4279 6.55937 16.5626 7.42625 15.9162 7.42625C15.9162 7.31535 15.8098 7.31535 15.8098 7.31535ZM27.4606 12.9474C27.6465 13.136 27.5852 13.3206 27.3637 13.5073C27.6175 13.7588 28.0444 13.9238 28.3239 13.9238C28.0343 13.9238 27.7508 13.9786 27.5273 14.0766C27.6727 14.1895 27.7475 14.3282 27.6781 14.4681C27.5717 14.6838 27.3522 14.6838 27.2451 14.6838C27.1212 14.6838 26.9792 14.6419 26.8344 14.5777C26.7011 14.7447 26.6438 14.93 26.7058 15.1186C26.8149 15.2255 27.0297 15.3364 27.2451 15.3364C27.5717 15.3364 28.1111 15.1186 28.5367 14.4681C27.7845 15.878 28.1111 16.5265 28.8653 16.4156C29.2962 16.4156 29.6174 15.6576 29.0787 14.4681C29.8356 15.6576 30.5925 15.9835 30.9144 15.4432C31.3446 15.0118 30.5925 14.2538 29.4026 14.0354C30.8032 14.1442 31.3446 13.491 31.0228 12.9474C30.6962 12.2989 29.7285 12.7357 29.1878 13.491C29.7285 12.7357 29.8356 11.6504 29.0787 11.6504C28.5367 11.6504 28.2175 12.4078 28.6505 13.491C28.2175 12.5173 27.5717 12.1921 27.2451 12.4078C27.1361 12.4078 27.0297 12.5173 27.0297 12.5173C26.9691 12.61 26.9401 12.7012 26.9287 12.7912C27.0324 12.756 27.1388 12.7357 27.2451 12.7357C27.3522 12.7357 27.4606 12.8426 27.4606 12.9474ZM25.5183 13.7101C25.4874 13.7139 25.457 13.7182 25.427 13.7228C25.4585 13.7201 25.489 13.7159 25.5183 13.7101ZM24.4395 14.5749C24.1292 14.2652 24.6195 13.8481 25.427 13.7228C24.8788 13.7698 24.0243 13.3604 24.3331 12.9473C24.5479 12.7357 25.1984 12.7357 25.7337 13.491C25.3028 12.8425 25.4139 12.2989 25.8462 12.192C26.4879 12.192 26.4879 12.8425 26.166 13.3842C26.3297 13.1414 26.6138 12.8973 26.9283 12.7911C26.8993 13.0177 27.0145 13.2293 27.2448 13.3842C27.2661 13.416 27.2961 13.4439 27.3261 13.4718C27.3387 13.4835 27.3513 13.4952 27.3633 13.5072C27.3542 13.5149 27.3454 13.5226 27.3365 13.5302C27.3088 13.5543 27.281 13.5785 27.2448 13.6026C27.1478 13.6026 27.0289 13.6243 26.8981 13.6483C26.7382 13.6776 26.5606 13.7101 26.3835 13.7101C26.7054 13.7101 27.0293 13.8169 27.2448 13.9238C27.3586 13.9623 27.4495 14.0171 27.5269 14.0766C27.4165 14.1253 27.3162 14.1814 27.2448 14.2537C27.0636 14.3437 26.931 14.4566 26.834 14.5776C26.6274 14.4857 26.4143 14.3369 26.2299 14.1163C26.2099 14.0895 26.1886 14.0625 26.166 14.0353C26.1869 14.0633 26.2082 14.0903 26.2299 14.1163C26.687 14.7284 26.4744 15.2301 26.166 15.3363C25.6273 15.4432 25.1984 15.0118 25.7337 14.0353C25.3028 14.6838 24.657 14.9022 24.4395 14.5749Z" fill="url(#paint0_linear_193_36)"/>
<mask id="mask0_193_36" style="mask-type:luminance" maskUnits="userSpaceOnUse" x="0" y="0" width="86" height="59">
<path fill-rule="evenodd" clip-rule="evenodd" d="M44.3999 1.89906C44.1851 2.00793 44.076 2.00792 43.9696 2.00792C43.3239 2.11476 42.8909 1.89906 42.8909 1.57584C42.8909 1.35946 43.4329 1.24789 43.9696 1.35946C44.076 1.35946 44.2935 1.35946 44.3999 1.4663C44.3999 1.4663 44.5029 1.4663 44.5087 1.56678C44.5059 1.51764 44.4798 1.49181 44.4539 1.46613C44.4268 1.43925 44.3999 1.41254 44.3999 1.35946C43.9696 1.02948 43.7521 0.489875 44.2935 0.27417H44.3999C44.7245 0.27417 45.1554 0.708961 45.0504 1.4663C45.1554 0.708961 45.8032 0.381008 46.2362 0.489875C46.7749 0.813771 46.2362 1.35946 45.3723 1.57584C45.9116 1.4663 46.5574 1.4663 46.884 1.68268C46.9904 1.68268 46.9904 1.79222 46.9904 1.89906C46.9904 2.00793 46.9904 2.11476 46.884 2.22633C46.6685 2.44272 46.018 2.33588 45.3723 2.00792C46.1291 2.54753 46.2362 3.1987 45.8032 3.30554C45.2659 3.41643 44.8329 2.98232 44.8329 2.11476C44.8329 2.54753 44.6181 2.76594 44.3999 2.98232C44.2935 3.09389 44.076 3.09389 43.9696 3.09389H43.7521C43.3239 2.87751 43.2127 2.54753 43.9696 2.11476C44.0361 2.11476 44.1036 2.0731 44.1972 2.01529C44.2535 1.98053 44.3192 1.93994 44.3999 1.89906ZM35.229 14.7927C35.1226 15.4432 36.2007 15.7691 37.9279 15.2255C35.7684 16.0944 35.5549 17.0688 36.4162 17.394C37.0619 17.6124 38.1434 17.0688 38.5736 15.5534C38.4693 16.3088 38.4693 16.8504 38.68 17.2831C38.8975 17.7173 39.3285 17.8268 39.7588 17.7173C40.6247 17.394 40.5204 16.1992 39.3285 15.3364C40.3029 15.878 41.0577 15.9835 41.488 15.7691C41.8099 15.6576 42.0254 15.4432 42.0254 15.1187C42.1338 14.7927 41.9203 14.575 41.488 14.4682C41.0875 14.3656 40.4059 14.3585 39.7031 14.6208C41.0177 14.071 41.8877 13.1474 41.0577 12.6289C40.4066 12.2989 39.3285 12.9474 38.8975 14.3579C39.1123 13.4911 39.0059 12.8426 38.68 12.5173C38.4693 12.2989 38.1434 12.2989 37.8215 12.2989C36.7407 12.6289 37.2794 14.0354 38.1434 14.575C36.7407 13.9238 35.3374 14.0354 35.229 14.7927ZM39.546 14.6839C39.599 14.6634 39.6514 14.6424 39.7031 14.6208C39.6508 14.6403 39.5984 14.6613 39.546 14.6839ZM78.4973 25.1932C79.0387 25.3047 79.0387 26.599 78.7121 27.1433C78.9235 26.933 80.477 26.3109 80.7416 27.1041C80.7403 27.1501 80.7484 27.1967 80.7625 27.244C80.7181 28.019 79.0387 28.1177 79.0387 28.1177C80.1174 28.4477 80.6541 29.4207 80.4393 29.7439C80.0063 30.2883 78.7121 29.2043 78.4973 28.6627C78.6057 29.5275 78.6057 29.961 78.1727 30.3951C77.6313 30.5019 77.4185 30.2883 77.3094 29.961C77.2703 29.961 77.2318 29.9749 77.1887 29.9977C77.1732 29.711 77.1682 29.252 77.4184 28.7233H76.8763C76.8481 28.7336 76.8191 28.7438 76.7897 28.7542L76.7894 28.7543C76.483 28.8625 76.1335 28.986 76.2305 29.2949C76.3396 29.5214 76.5544 29.6343 76.8763 29.7507L76.8821 29.7568C76.9595 29.8384 77.0365 29.9196 77.1123 30.0426L77.0887 30.0574C77.0306 30.0938 76.9623 30.1365 76.8765 30.1787C76.3398 30.5019 75.6913 30.5019 75.4738 30.3951C74.5062 30.2883 74.1803 30.5019 74.0732 31.262C73.967 32.4284 75.4144 32.0346 76.5922 31.7142L76.6637 31.6947C76.7727 31.588 76.7728 31.5879 76.8762 31.478L76.8765 31.4777C77.094 31.1531 77.094 30.9388 77.094 30.9394L77.6313 31.4777C77.8488 31.4777 78.0643 31.5879 78.1727 31.6947C78.4468 31.6947 78.7353 31.6089 79.0328 31.5203C79.5546 31.3649 80.1043 31.2012 80.6541 31.4777C80.6541 31.4777 80.7632 31.8083 81.3025 32.4521C81.3458 32.4974 81.3894 32.5772 81.4405 32.6706C81.5153 32.8073 81.6061 32.9731 81.7348 33.1032C81.6791 33.1032 81.5966 33.076 81.5149 33.0491C81.4347 33.0226 81.3552 32.9964 81.3025 32.9964C78.9276 32.3473 77.9579 32.9964 77.6313 33.6462C77.3187 34.0691 77.9213 34.6904 77.9563 34.7265L77.9579 34.7281L76.8765 34.6206L75.9068 34.5097C75.6443 34.775 75.3831 34.9674 75.0619 35.204L75.0617 35.2041L75.0617 35.2041C74.9867 35.2594 74.9084 35.3171 74.826 35.3786L61.9875 44.4835L49.687 53.2544L46.8838 55.2066L44.3997 57.0479L43.9694 57.3751L42.7843 58.1331L41.488 57.2676L38.6801 55.3134L34.3678 52.2807L27.2448 47.2965L21.5272 43.2867L15.916 39.3891L14.9443 38.7393L12.8973 37.3288L8.5803 34.2974C7.06723 33.4285 7.06723 32.018 8.5803 32.4521C8.65487 32.4714 8.73587 32.4937 8.81996 32.517L8.82009 32.517C9.22196 32.6279 9.69433 32.7584 9.87251 32.6678C10.5646 32.2643 10.6408 31.5195 10.3809 31.0949L10.4746 31.0596C11.1486 30.805 11.9478 30.5032 12.6775 30.8888C12.7866 30.8888 12.897 31.001 12.897 31.1132C13.1104 31.4569 13.002 31.9113 12.897 32.2535C12.897 32.3657 12.7866 32.4849 12.7866 32.4849H12.897H13.9757C13.8673 32.3657 13.2168 31.2261 13.7589 31.001C13.8673 30.8888 14.2976 30.8888 14.944 31.1132C15.2679 31.2261 15.5945 31.3425 15.9157 31.5726C16.0374 31.6349 16.1611 31.7363 16.3046 31.8539L16.3046 31.8539L16.3047 31.8539C16.4128 31.9426 16.5322 32.0404 16.6706 32.1377L16.6666 32.1253C16.557 31.7806 16.3435 31.1091 15.9157 30.7738C15.7009 30.4323 15.3763 30.2051 15.1615 30.2051C15.0551 30.2051 14.944 30.0901 14.944 30.0901C14.4667 30.0901 14.0548 30.1952 13.7642 30.2694L13.7642 30.2694C13.5305 30.329 13.3754 30.3686 13.3279 30.3173C13.2715 30.3173 13.2162 30.2006 13.1474 30.0554C13.081 29.915 13.0019 29.7481 12.897 29.6343H12.7866C12.6775 29.6343 12.6775 30.4323 12.6775 30.4323C12.5578 30.4323 12.2727 30.2576 11.9869 30.0825C11.7581 29.9423 11.5288 29.8019 11.3839 29.7507C10.9228 29.7507 10.5847 30.1086 10.2376 30.4758C10.1391 30.5801 10.0398 30.6851 9.93684 30.7829C9.70628 30.7485 9.42359 30.8476 9.11967 31.1531C8.25641 32.018 7.06723 32.018 7.06723 31.4777C6.99821 31.0674 7.36297 30.9608 7.91348 30.8C8.233 30.7066 8.61509 30.595 9.01126 30.3951C9.46647 30.1673 9.655 29.8295 9.84008 29.498C9.91756 29.3592 9.99443 29.2215 10.09 29.0934C9.98361 28.8791 9.87251 28.5545 9.87251 28.2259C9.65703 29.0934 9.11967 29.6371 8.5803 29.4207C7.93252 29.2043 8.148 28.2259 8.7978 27.4679C8.148 27.7978 6.85378 27.4679 7.06723 26.818C7.18036 26.1709 8.03891 26.2778 8.90487 26.7126C8.25641 26.1709 8.03891 25.0856 8.47189 24.8693C9.11967 24.4372 9.65703 25.4116 9.65703 26.4921C9.87251 25.7368 10.4139 24.8693 11.0597 25.1932C11.599 25.4116 11.0597 26.599 10.5223 26.818C10.9533 26.7126 11.599 26.7126 11.8165 26.818C11.8165 26.388 12.3586 26.1709 12.8973 26.1709C13.6501 26.1709 14.2979 26.4921 13.8676 27.0365C13.8676 27.0365 13.3283 27.6849 13.6501 28.1177C13.976 28.4477 14.5134 28.2259 14.9443 27.7978C15.0555 28.1177 15.2682 28.3374 15.5948 28.3374C15.6488 28.2808 15.7034 28.2529 15.7579 28.225C15.8108 28.198 15.8636 28.171 15.916 28.1177C16.0821 27.9509 16.0558 27.6502 16.0359 27.4234L16.0359 27.4234C16.0303 27.3587 16.0251 27.3 16.0251 27.2522C16.1295 27.9033 16.6709 28.4477 17.2102 28.2259C17.6432 27.9033 17.1032 26.9289 16.5625 26.9289C17.1938 26.7538 17.4858 26.8234 17.6558 26.864C17.6701 26.8674 17.6836 26.8706 17.6964 26.8735C17.4074 26.5638 16.425 26.2724 15.916 26.171C15.7012 26.171 15.5948 26.0601 15.5948 26.0601C15.8096 26.599 15.3766 27.361 14.9443 27.7979L14.8352 27.6843C14.8352 27.6401 14.8538 27.5955 14.8757 27.5432C14.9067 27.4688 14.9443 27.3788 14.9443 27.2522C14.9443 27.2071 14.9634 27.1624 14.9857 27.11C15.0173 27.0358 15.0554 26.9461 15.0554 26.8181C15.0554 26.929 14.9443 26.929 14.9443 26.929C14.0831 26.929 13.4346 25.9532 14.1915 25.9532L14.8352 26.0601C13.976 24.9788 14.5134 24.5447 14.9443 24.7604V24.8693C15.3716 25.0831 15.4812 25.404 15.5909 25.7255L15.5948 25.7368C15.6351 25.6548 15.6602 25.5259 15.6875 25.3857C15.7321 25.1561 15.7827 24.896 15.916 24.7604L16.0251 24.6536C16.3893 24.6536 16.5217 24.9623 16.6194 25.1901L16.6195 25.1902C16.6374 25.2319 16.6541 25.2709 16.6708 25.3048C16.6708 25.5205 16.6708 25.7368 16.5624 26.171C16.6708 26.0601 17.8607 26.0601 17.9651 26.7126C17.8742 26.8951 17.817 26.9006 17.6965 26.8735C17.703 26.8806 17.7103 26.8875 17.7176 26.8944C17.7299 26.906 17.742 26.9175 17.7496 26.9289C18.4001 27.7978 19.8027 27.4679 19.4761 26.1709C20.3401 26.4921 20.662 26.06 20.662 25.8437C20.662 25.6273 20.3401 25.3047 20.0182 25.5204C19.2613 25.7368 18.6129 25.4116 18.5065 24.7604C18.4001 25.3047 18.0755 26.06 17.5368 25.7368C16.9948 25.5204 17.4277 24.7604 17.7496 24.4372C15.4837 25.0856 15.8096 22.7034 17.7496 23.4614C15.916 22.4843 18.1806 20.8601 18.6129 22.8123C18.5065 20.8601 20.8795 21.8338 19.3698 23.0287C20.662 22.1618 21.0943 23.0287 20.8795 23.4614C20.4485 23.8982 21.0943 24.4372 21.5272 24.2167C21.74 24.1099 21.8538 23.8982 21.9575 23.5703L21.9186 23.5299C21.8059 23.4134 21.6217 23.2232 21.5272 23.0287C21.4208 22.5939 21.4208 22.0502 21.5272 21.4017C21.6336 21.0758 21.8538 20.7506 22.173 20.4274C22.173 20.4274 23.0383 20.971 23.1454 22.2707C23.2533 21.732 24.0997 20.7709 25.3734 21.8005C25.3869 21.8119 25.4004 21.823 25.4139 21.8338C25.4004 21.8225 25.3869 21.8114 25.3734 21.8005C24.851 21.3586 24.4369 20.526 24.3332 20.1021C24.6571 20.1021 25.3028 20.3185 25.8463 21.1874C25.7338 20.971 25.3028 20.1021 25.4139 19.5605C25.4139 19.5605 26.1661 19.7748 26.2732 19.9926C26.488 19.4509 26.8146 19.1264 27.2448 18.91C27.8906 18.5841 28.7566 18.6956 28.9714 19.2346C29.2959 19.6693 29.2959 19.6693 29.2959 20.2089C29.4023 19.8884 29.7282 19.3421 30.3767 19.0195C30.4811 19.5605 30.2683 20.3185 30.0501 20.7506L30.0864 20.7146L30.0864 20.7146C30.4079 20.3959 30.8188 19.9887 31.2353 19.8884C31.3443 20.6437 30.9141 21.4017 30.2683 22.0502C30.2683 22.0502 32.4251 21.7263 32.2103 20.5369C32.137 20.3901 31.9666 20.2442 31.7975 20.0994L31.7975 20.0994L31.7975 20.0994C31.7151 20.0288 31.6329 19.9585 31.5625 19.8884C31.1289 19.1264 31.1289 18.4792 31.3443 17.7172C31.4528 17.7172 31.5625 18.0424 31.5625 18.2615C31.6689 17.8267 31.7773 17.5008 31.8837 17.394C31.8837 17.394 32.1012 17.613 32.2103 18.0424C32.2197 18.0045 32.2291 17.9648 32.2388 17.9238C32.3392 17.5006 32.4726 16.9382 32.9625 16.7428C33.0689 16.8503 33.0689 17.1776 33.0689 17.394C33.18 17.0687 33.3954 16.7428 33.6109 16.7428C33.7193 16.8503 33.6109 17.1776 33.5018 17.2831C33.7193 17.0687 33.9348 17.0687 33.9348 17.0687C33.9348 17.2831 33.9348 17.394 33.8284 17.5008C33.8722 17.5008 33.9342 17.4827 34.0073 17.4615C34.112 17.431 34.2393 17.394 34.3678 17.394H34.5806L34.5805 17.394C34.4764 17.5006 34.4762 17.5008 34.3683 17.6125L34.3678 17.613C34.2567 17.8267 34.2567 17.9329 34.3678 18.0424L34.3717 18.0464C34.4788 18.1546 34.5845 18.2615 34.9065 18.2615C34.6917 18.4792 34.5806 18.5841 34.3678 18.6956C34.2567 18.8025 34.0432 18.91 33.8284 18.91C33.9534 18.91 34.0779 18.947 34.182 18.9781C34.2569 19.0004 34.3213 19.0195 34.3678 19.0195C34.6821 19.1232 34.7897 19.2281 34.8967 19.3325L34.9065 19.3421C34.9065 19.5605 34.6917 19.7748 34.3678 19.8884C34.3116 19.8884 34.2565 19.915 34.202 19.9413C34.1486 19.9671 34.0958 19.9926 34.0432 19.9926C34.0958 19.9926 34.1486 20.0194 34.202 20.0464C34.2565 20.0741 34.3116 20.1021 34.3678 20.1021C34.7961 20.2089 35.3374 19.8884 35.4465 19.3421C35.9474 19.6436 36.0765 20.108 36.1998 20.552C36.3425 21.0658 36.4776 21.5522 37.1731 21.7263C36.8742 20.8899 36.9049 20.4171 36.9379 19.9066C36.9649 19.4911 36.9934 19.0505 36.8471 18.3684C36.8801 18.3853 36.9156 18.4022 36.9525 18.4197C37.1567 18.5166 37.4043 18.634 37.4949 18.91C37.4949 18.8655 37.5131 18.8212 37.5345 18.7692C37.5647 18.6954 37.6013 18.6062 37.6013 18.4792C38.2518 19.2346 38.7912 19.9926 38.5737 21.6181C38.5737 21.7263 38.6801 21.8338 38.6801 21.8338C38.7912 21.8338 38.8976 21.7263 38.8976 21.5086C38.7912 20.2089 39.3285 19.0195 40.3029 18.4792C40.4066 18.6956 40.4066 19.8884 40.0874 20.7506C39.9763 21.0758 40.5204 21.4017 40.6248 20.4274C40.6248 19.5324 41.0795 19.5498 41.3193 19.5589C41.3411 19.5597 41.3612 19.5605 41.3789 19.5605L41.488 19.4509C41.7055 19.1264 42.0254 19.0195 42.4577 19.1264C42.0254 18.8025 42.1338 18.2615 42.2449 18.152C42.6732 17.613 43.2125 17.613 43.9694 17.613H44.3997H44.6179C44.5633 17.613 44.5361 17.585 44.5088 17.5569C44.4815 17.5289 44.4542 17.5008 44.3997 17.5008L44.373 17.4738C44.1757 17.2739 44.0713 17.1683 43.9694 16.9571C43.5391 16.3087 43.5391 15.5534 43.8583 15.3363H43.9694H44.3997C44.9391 15.5534 45.4784 16.1991 45.6986 17.1776C45.803 16.0943 46.3424 15.2254 46.8838 15.1186H47.0992C47.745 15.3363 47.3141 16.5264 46.8838 17.2831C46.8421 17.3255 46.8163 17.3673 46.7945 17.4027C46.7591 17.46 46.734 17.5008 46.6683 17.5008H46.8838C48.2844 17.1776 49.1497 17.5008 49.2561 17.9329C49.3651 17.7172 49.4742 17.613 49.687 17.5008C49.7954 17.394 49.9018 17.394 50.0129 17.394C51.2008 17.1776 52.062 18.0424 52.7078 19.0195C51.9529 19.3421 52.3859 20.4274 52.9232 20.7506C51.9529 20.3185 50.8769 20.4274 50.7678 20.971C50.6614 21.4017 51.5206 21.7263 52.8169 21.2942C51.0923 21.9427 50.9806 22.7034 51.7361 22.9191C52.1684 23.1355 53.0317 22.7034 53.2471 21.5086C53.1407 22.8123 53.5737 23.3519 54.3279 23.1355C54.9764 22.9191 54.8673 22.0502 53.8956 21.4017C55.0801 22.0502 56.0551 21.8338 56.1615 21.1874C56.1615 20.5369 55.0801 20.5369 54.002 20.8601C55.0801 20.4274 56.0551 19.6693 55.2982 19.2346C54.8673 19.1264 54.3279 19.3421 54.002 19.7748C54.002 19.7748 53.8956 18.4792 55.0801 17.1776C55.4066 17.394 55.6221 17.613 56.0551 18.5841C56.0551 17.8267 56.1615 17.1776 56.4854 16.8503C56.5046 16.87 56.5265 16.8914 56.5506 16.915C56.7946 17.1535 57.2694 17.618 57.5641 18.8025C57.6732 19.3421 57.9971 19.3421 58.1062 18.8025C58.2126 18.152 58.752 16.8503 59.5068 16.5264C59.5068 17.2831 59.5068 18.152 58.8584 19.3421C59.1917 19.3421 59.5259 18.9404 59.9066 18.4829C60.388 17.9044 60.9437 17.2365 61.6663 17.1776C61.1243 17.2831 60.9094 17.9329 61.8791 18.0424C61.3397 19.2346 60.0435 19.9926 60.0435 19.9926C60.4982 20.0694 60.8466 19.8795 61.2745 19.6464C61.4568 19.547 61.6536 19.4398 61.8791 19.3421H61.9875C62.3101 19.3421 62.7424 19.7748 62.2037 20.2089C62.0654 20.302 62.202 20.3356 62.4043 20.3855C62.677 20.4527 63.069 20.5492 63.069 20.8601C63.069 21.0758 62.7424 21.1874 62.636 21.1874C62.636 21.2942 62.8508 21.4017 63.1754 21.4017C63.069 21.5086 62.8508 21.7263 62.5269 21.7263C62.8521 21.7908 62.9422 21.9739 63.0092 22.11C63.0539 22.2007 63.0883 22.2707 63.1754 22.2707C62.9957 22.4496 62.7498 22.4631 62.5113 22.4763C62.319 22.4869 62.1315 22.4973 61.9875 22.5939C61.9331 22.5939 61.906 22.6215 61.879 22.649C61.8523 22.6763 61.8257 22.7034 61.7727 22.7034C61.6663 23.0287 61.6663 23.3519 61.9875 23.5703C62.636 24.0044 64.2541 23.8982 65.0089 23.0287C65.5503 22.3775 66.5207 21.8338 67.4903 22.1618C68.6692 22.4325 69.1636 23.3913 69.3538 23.7602L69.3539 23.7604L69.354 23.7605C69.3904 23.831 69.4156 23.8799 69.4323 23.8982C69.5434 24.1099 69.5434 24.2167 69.5434 24.3256C69.5942 24.317 69.6464 24.3084 69.6995 24.2997C70.3191 24.1978 71.0609 24.0759 71.1589 23.6792C71.2152 23.537 70.9545 23.4248 70.5425 23.2474C69.3787 22.7462 67.0078 21.7251 67.1684 18.0424C68.4299 19.9142 69.4578 20.3727 70.3449 20.7685C71.0499 21.0829 71.6659 21.3577 72.2396 22.2707C72.5186 21.2286 71.7338 19.7767 71.3873 19.1358C71.3365 19.0418 71.2952 18.9652 71.2679 18.91C74.0732 21.0758 74.3978 21.5086 73.3163 23.1355C73.0097 23.6989 73.3809 23.7289 73.9713 23.7766C74.6281 23.8297 75.5562 23.9047 76.1243 24.7604C75.4705 24.5435 75.1096 24.716 74.617 24.9515C74.3754 25.0669 74.1022 25.1975 73.7473 25.3047C72.5868 25.6218 71.8133 25.447 71.1617 25.2998C70.4822 25.1463 69.9353 25.0227 69.2202 25.5184H69.2162L69.1105 24.8693C68.9809 24.888 68.842 24.9003 68.7018 24.9128C68.0228 24.9731 67.3134 25.036 67.4903 25.8437C67.6852 26.6254 67.7233 26.5851 68.0051 26.2872L68.0051 26.2872C68.1918 26.0899 68.4853 25.7796 69.002 25.5204C69.0167 25.5204 69.0363 25.5201 69.0597 25.5197L69.0598 25.5197C69.1019 25.5189 69.1561 25.518 69.2162 25.5184L69.2169 25.5204L69.2177 25.5197L69.2191 25.519C69.2195 25.5188 69.2199 25.5187 69.2202 25.5184C69.6182 25.5204 70.3798 25.6016 70.7286 26.388C70.835 26.7126 70.835 28.0122 70.2956 28.8791C70.0808 29.3139 69.9717 29.8535 69.9717 30.3951C69.8633 28.9859 68.895 28.7702 68.4627 29.2043C67.5967 29.8535 68.5691 30.8292 69.4323 30.8292C68.0297 30.9394 66.951 31.5879 67.0621 32.1288C67.1684 32.7773 68.2472 32.5636 69.5434 31.4777C67.9206 33.1032 68.1401 33.8626 69.002 33.8626C69.5434 33.8626 70.402 32.8842 70.1872 31.5879C70.5131 32.8842 71.3743 33.3189 72.0228 32.7773C72.6686 32.2364 72.1292 31.3708 70.7286 31.0436C72.346 31.1531 73.3163 30.5019 73.1009 29.8535C73.0008 29.1384 71.7549 29.4804 70.7969 30.2459C71.7676 29.3859 72.2858 28.2198 71.2679 28.1177C71.2679 28.1177 71.1589 28.2259 71.0525 28.2259C71.1359 28.1432 71.1385 27.9949 71.1414 27.8254C71.1461 27.557 71.1518 27.2354 71.4807 27.0365C71.8073 26.818 72.2396 27.1433 72.346 28.0122C72.7797 26.7126 73.8584 26.4921 74.2887 26.9289C74.7217 27.4679 74.3978 28.3374 73.6429 28.8791C74.4161 28.938 74.8601 28.6354 75.3561 28.2974C75.7598 28.0223 76.1981 27.7237 76.8765 27.5774H77.094C76.9855 27.5774 76.8765 27.4679 76.8765 27.4679C76.2307 27.1433 75.4738 26.2778 75.9068 25.8437C76.0132 25.5204 76.4462 25.6273 76.8765 25.8437C77.199 26.06 77.6313 26.4921 77.8488 27.0365C77.6313 26.388 77.7404 25.0856 78.4973 25.1932ZM70.6202 30.3951C70.6805 30.3466 70.7395 30.2968 70.7969 30.2459C70.7368 30.294 70.6777 30.3438 70.6202 30.3951ZM23.1453 29.8658C22.7587 29.7833 22.5945 29.6421 22.4123 29.4853C22.3403 29.4234 22.2654 29.3591 22.173 29.2949C22.2821 29.5214 22.4996 30.0901 22.2821 30.4323C22.0666 30.6617 21.74 30.3173 21.6336 30.2051L21.5272 30.0901C21.5272 30.0199 21.4855 29.9046 21.4276 29.7445L21.4276 29.7444L21.4276 29.7444L21.4276 29.7443L21.4275 29.7443L21.4275 29.7443L21.4275 29.7442L21.4275 29.7442L21.4275 29.7442L21.4275 29.7441L21.4274 29.744L21.4274 29.7438L21.4273 29.7437L21.4273 29.7437C21.3928 29.6481 21.3524 29.5366 21.3117 29.4092C21.2033 29.5214 20.3401 30.2051 19.9071 29.6343C19.9071 29.3384 20.2302 29.1875 20.5145 29.0547C20.6648 28.9845 20.8042 28.9193 20.8794 28.8405C20.5549 28.9563 19.8027 28.499 19.6943 28.3847C19.5437 28.2264 19.6527 28.1774 19.7689 28.1251C19.8211 28.1016 19.8748 28.0774 19.9071 28.0425C20.3401 27.9275 20.773 28.0425 21.2033 28.3847C21.2033 28.3158 21.1545 28.2267 21.0979 28.1233C20.966 27.8824 20.7917 27.5641 21.0942 27.2452H21.3117H21.5272C21.68 27.2452 21.7231 27.3052 21.7774 27.3808C21.7987 27.4105 21.8217 27.4427 21.8538 27.4745C22.0666 27.701 22.0666 27.9275 22.0666 28.1554C22.173 28.0425 22.7124 27.8153 22.7124 27.8153C23.1453 27.5867 23.4692 28.0425 23.1453 28.2739L22.606 28.7234C23.9022 29.182 23.5756 29.7507 23.1453 29.8658ZM27.7315 25.141C27.7579 25.0844 27.7842 25.0281 27.7842 24.9724C27.7842 24.9724 27.6778 24.8581 27.6778 24.7452L28.5363 24.5137C28.5843 24.5137 28.6309 24.534 28.6848 24.5575C28.759 24.5897 28.847 24.628 28.9713 24.628C29.0784 24.628 29.1875 24.5137 29.1875 24.2908C29.0784 24.1793 28.8649 24.1793 28.7565 24.1793C28.7216 24.2159 28.6981 24.2524 28.6746 24.289C28.6266 24.3637 28.5787 24.4384 28.4326 24.5137L27.6778 24.7452C27.5725 24.5162 27.4626 24.4039 27.3553 24.2943L27.3519 24.2908L27.7842 23.6056C27.8374 23.5509 27.919 23.5509 28.0006 23.5509C28.0823 23.5509 28.1639 23.5509 28.2171 23.4963C28.3235 23.3784 28.3235 23.2662 28.2171 23.1512C27.9996 23.039 27.8905 23.039 27.7842 23.2662C27.7128 23.3414 27.7371 23.4192 27.7609 23.4952C27.7726 23.5326 27.7842 23.5696 27.7842 23.6056L27.2448 24.1793C27.0293 24.0593 26.8145 24.0593 26.599 24.0593V23.2662C26.599 23.2184 26.6363 23.1904 26.6799 23.1578C26.741 23.112 26.8145 23.057 26.8145 22.9247C26.8145 22.8097 26.7054 22.6947 26.599 22.6947C26.3835 22.6947 26.2731 22.8097 26.3835 22.9247C26.3835 22.9818 26.4096 23.0383 26.4356 23.0949C26.4617 23.1517 26.4879 23.2086 26.4879 23.2662V24.0593C26.2731 24.0593 26.0576 24.0593 25.9512 24.1793L25.4139 23.4963C25.3495 23.4963 25.3597 23.4567 25.3797 23.3793C25.3942 23.323 25.4139 23.2468 25.4139 23.1512C25.3028 23.039 25.0853 23.039 24.9809 23.039C24.8725 23.1512 24.8725 23.3784 24.9809 23.3784C25.035 23.4395 25.0914 23.4689 25.1477 23.4983C25.2001 23.5256 25.2525 23.5529 25.3028 23.6056L25.8462 24.1793C25.788 24.2369 25.7315 24.3244 25.6754 24.4113L25.6753 24.4113L25.6753 24.4113C25.6229 24.4923 25.5709 24.5728 25.5183 24.628L24.657 24.4015C24.5479 24.4015 24.5208 24.3456 24.4938 24.2899C24.467 24.2345 24.4402 24.1793 24.3331 24.1793C24.224 24.0593 24.0065 24.1793 24.0065 24.2908C23.9022 24.4015 24.0065 24.5137 24.224 24.5137C24.2753 24.5674 24.3259 24.5459 24.3878 24.5196C24.4576 24.4899 24.5417 24.4542 24.657 24.5137L25.5183 24.7452C25.4139 24.8581 25.4139 24.9724 25.4139 24.9724V25.3139L24.5479 25.5389C24.503 25.5389 24.4583 25.5195 24.4061 25.4968L24.4061 25.4968L24.4061 25.4968C24.3324 25.4647 24.2437 25.4261 24.1176 25.4261C24.0065 25.4261 23.9022 25.5389 24.0065 25.7683C24.0065 25.8826 24.224 25.8826 24.3331 25.8826C24.3681 25.845 24.3916 25.8076 24.4151 25.7702C24.463 25.694 24.511 25.6176 24.657 25.5389L25.5183 25.3139C25.5183 25.5389 25.6273 25.6561 25.8462 25.7683L25.3028 26.4492C25.2506 26.5074 25.1962 26.5074 25.1283 26.5074C25.0604 26.5074 24.9789 26.5074 24.8725 26.5656C24.7654 26.6778 24.7654 26.7935 24.8725 26.9029C25.0853 27.015 25.1984 27.015 25.3028 26.7935C25.3583 26.7357 25.3583 26.6787 25.3583 26.6216C25.3583 26.5645 25.3583 26.5074 25.4139 26.4492L25.9512 25.8826C26.0576 25.9948 26.2731 25.9948 26.4879 25.9948V26.7935C26.4879 26.8381 26.4523 26.8645 26.41 26.8957C26.3486 26.9413 26.2731 26.9971 26.2731 27.1343C26.2731 27.2451 26.3835 27.3615 26.4879 27.3615C26.7054 27.3615 26.8145 27.2451 26.8145 27.1343L26.8029 27.1217C26.698 27.0071 26.599 26.899 26.599 26.7935V25.9948C26.8145 25.9948 27.0293 25.9948 27.1357 25.8826H27.2448L27.6778 26.5656C27.731 26.5656 27.731 26.5937 27.731 26.6498C27.731 26.706 27.731 26.7903 27.7842 26.9029C27.7842 27.015 27.9996 27.015 28.1107 27.015C28.2171 26.9029 28.2171 26.6778 28.1107 26.6778C28.0568 26.6233 28.0034 26.5953 27.9505 26.5676C27.8944 26.5382 27.8389 26.5091 27.7842 26.4492L27.2448 25.8826C27.3959 25.8024 27.4956 25.6658 27.5784 25.5523L27.5785 25.5523C27.6138 25.5039 27.646 25.4598 27.6778 25.4261L28.4326 25.6561C28.541 25.6561 28.5671 25.7124 28.5933 25.7688C28.6196 25.8256 28.6461 25.8826 28.7565 25.8826C28.8649 25.9948 29.0784 25.8826 29.0784 25.7683C29.1875 25.6561 29.0784 25.5389 28.8649 25.5389C28.8113 25.4831 28.7581 25.5112 28.7043 25.5397C28.6494 25.5687 28.5938 25.5981 28.5363 25.5389L27.6778 25.3139C27.6778 25.256 27.7047 25.1983 27.7315 25.141ZM36.4159 24.6281C35.9791 24.4754 35.7397 24.3246 35.4976 24.172C35.3807 24.0983 35.2631 24.0243 35.1224 23.9494C35.1477 24.0309 35.1917 24.1252 35.2395 24.2278C35.392 24.5553 35.5838 24.9669 35.3372 25.314C35.0153 25.5391 34.5803 25.199 34.3675 24.9725C34.283 24.8855 34.2008 24.6004 34.1194 24.3183C34.0939 24.2296 34.0684 24.1413 34.0429 24.0594C33.9345 24.1794 32.7494 24.9725 32.3164 24.4016C32.2388 23.9052 32.7332 23.7096 33.1316 23.552C33.2796 23.4934 33.4143 23.4401 33.5016 23.3785C33.0686 23.4964 32.1009 22.9248 31.9945 22.6948C31.777 22.4704 31.9945 22.3561 32.21 22.3561C32.7494 22.0118 33.3952 22.239 33.9345 22.6948C33.9076 22.609 33.8527 22.5083 33.7928 22.3984C33.6163 22.0745 33.3963 21.6707 33.7191 21.333L34.0429 21.2159H34.3675C34.5803 21.333 34.6914 21.4452 34.6914 21.4452C35.0153 21.7853 35.0153 22.1261 35.0153 22.4704C35.1224 22.239 35.7681 21.8989 35.7681 21.8989C36.4159 21.6703 36.8469 22.239 36.4159 22.5826L35.6611 23.0391C37.2792 23.7207 36.9553 24.5138 36.4159 24.6281ZM48.8236 18.7167C48.1778 18.7167 47.5293 18.5995 46.8836 18.373H46.7745L46.8836 18.4895C47.3139 18.9418 47.9623 19.6248 47.7448 20.1935C48.0687 19.8498 48.6101 19.0568 48.8236 18.7167ZM45.9112 19.2825C46.1287 19.9691 46.4505 20.3056 46.8835 20.535H46.9899L46.8835 20.65C46.2357 20.8743 45.5873 20.65 45.2654 20.1934C45.6929 19.9719 45.8 19.6335 45.907 19.2956L45.9112 19.2825ZM44.4957 18.9332C44.4721 18.9417 44.4455 18.9417 44.3995 18.9417L44.3995 18.9417C44.3379 19.0083 44.312 19.0363 44.2801 19.0481C44.2568 19.0567 44.2304 19.0567 44.1847 19.0567L44.2931 19.1689H44.3995C44.4542 19.1127 44.4814 19.0558 44.5087 18.9989C44.536 18.9421 44.5632 18.8852 44.6177 18.8288C44.5546 18.8941 44.528 18.9216 44.4957 18.9332ZM43.9692 21.8988V21.7852C44.0756 21.7852 44.2931 21.7852 44.2931 21.8988C44.2931 22.126 44.2931 22.2389 44.1847 22.2389H43.9692C43.9041 22.1728 43.8772 22.1454 43.8446 22.134C43.8216 22.126 43.7958 22.126 43.7517 22.126C43.7914 22.0834 43.8163 22.0409 43.8376 22.0044L43.8377 22.0044C43.8736 21.9432 43.8996 21.8988 43.9692 21.8988ZM41.9202 24.7451C41.9202 24.9723 42.0253 25.0845 42.1337 25.0845C42.2448 25.0845 42.3512 24.858 42.3512 24.7451C42.3512 24.6961 42.3131 24.6676 42.2688 24.6345C42.2073 24.5884 42.1337 24.5332 42.1337 24.4015C42.1337 24.5332 42.0615 24.5884 42.001 24.6345C41.9576 24.6676 41.9202 24.6961 41.9202 24.7451ZM43.4317 24.628C43.3233 24.628 43.2122 24.628 43.1058 24.5137C43.1058 24.4763 43.1177 24.4389 43.1296 24.4017C43.1532 24.3275 43.1767 24.2536 43.1058 24.1793L42.6729 23.4963C42.5658 23.6056 42.351 23.6056 42.1335 23.6056C41.92 23.6056 41.7052 23.6056 41.5961 23.4963L41.4877 23.6056L41.1658 24.0593C41.0986 24.1338 41.1148 24.205 41.1368 24.3015C41.1502 24.3606 41.1658 24.4291 41.1658 24.5137C41.1118 24.5707 41.0847 24.5992 41.0574 24.5995C41.0299 24.5997 41.0021 24.5711 40.9463 24.5137C40.8393 24.5137 40.7329 24.2908 40.8393 24.1793C40.8928 24.1193 40.9473 24.1193 40.9885 24.1193C41.0297 24.1193 41.0574 24.1193 41.0574 24.0593L41.4877 23.4963L41.5961 23.3784H41.4877C41.3786 23.2663 41.2722 23.1512 41.2722 22.9247C41.2722 22.8097 41.1658 22.6947 41.1658 22.6947C41.1658 22.6389 41.1922 22.5831 41.2187 22.527C41.2454 22.4703 41.2722 22.4135 41.2722 22.356L40.6245 22.126C40.5721 22.0687 40.5174 22.0972 40.4628 22.1257C40.4085 22.154 40.3543 22.1823 40.3026 22.126C40.1915 22.126 40.0871 22.0117 40.0871 21.8988C40.1915 21.7852 40.3026 21.6702 40.4063 21.7852C40.5352 21.7852 40.5515 21.8643 40.5648 21.9291C40.574 21.9738 40.5818 22.0117 40.6245 22.0117L41.2722 22.2389C41.2722 22.126 41.3786 22.0117 41.4877 21.8988H41.5961L41.4877 21.6702L41.1658 21.2158L41.4877 21.558L41.5961 21.7852C41.8096 21.6702 41.92 21.6702 42.1335 21.6702V20.8743C42.1335 20.7679 42.0361 20.6616 41.9365 20.5529L41.92 20.5349C41.92 20.4206 42.0251 20.3056 42.1335 20.3056C42.351 20.3056 42.4574 20.4206 42.351 20.5349C42.351 20.6683 42.3143 20.7234 42.284 20.7688C42.2627 20.8008 42.2446 20.828 42.2446 20.8743V21.6702C42.351 21.6702 42.5658 21.6702 42.6729 21.7852L43.1058 21.2158C43.159 21.1608 43.159 21.1041 43.159 21.0469C43.159 20.9896 43.159 20.9318 43.2122 20.8743C43.2122 20.6499 43.4317 20.6499 43.5388 20.7621C43.6472 20.8743 43.6472 20.9893 43.5388 21.1057C43.4853 21.1608 43.4314 21.1608 43.377 21.1608C43.3227 21.1608 43.2678 21.1608 43.2122 21.2158L42.784 21.8988L42.7878 21.9029C42.893 22.0145 43.0007 22.1288 43.1058 22.356V22.6947V22.9247L43.7516 23.1512C43.8171 23.222 43.8422 23.2057 43.8778 23.1827C43.9 23.1683 43.9263 23.1512 43.9691 23.1512H44.0755C44.293 23.1512 44.293 23.2663 44.293 23.3784C44.293 23.6056 44.0755 23.6056 43.9691 23.4963C43.9129 23.4963 43.8852 23.4375 43.8577 23.3794C43.8308 23.3225 43.8042 23.2663 43.7516 23.2663L43.1058 23.0391C43.0067 23.2507 42.9052 23.3626 42.8058 23.4722L42.784 23.4963L43.1058 24.0593C43.1612 24.1218 43.2178 24.1517 43.2747 24.1818C43.3271 24.2095 43.3797 24.2373 43.4317 24.2908C43.5388 24.4016 43.5388 24.5137 43.4317 24.628ZM41.1658 21.2158C41.1039 21.1529 41.0774 21.126 41.0453 21.1144C41.0212 21.1057 40.994 21.1057 40.9463 21.1057C40.8393 20.9893 40.8393 20.7621 40.9463 20.6499C40.9938 20.6499 41.0209 20.6499 41.0449 20.6586C41.0772 20.6703 41.1037 20.6978 41.1658 20.7621C41.2403 20.9212 41.2105 21.026 41.1859 21.1123C41.1754 21.1492 41.1658 21.1828 41.1658 21.2158ZM41.2722 22.9247L40.6245 23.2663C40.5609 23.2663 40.5361 23.3078 40.5007 23.3669C40.478 23.4049 40.4508 23.4501 40.4063 23.4963C40.3026 23.6056 40.0871 23.4963 40.0871 23.3784C40.0871 23.2663 40.0871 23.0391 40.3026 23.0391C40.3543 23.0391 40.4086 23.067 40.463 23.095C40.5175 23.1231 40.5722 23.1512 40.6245 23.1512L41.2722 22.9247ZM47.853 26.337C47.6362 25.7683 48.5008 24.858 49.6866 24.4015C49.8624 24.3418 50.0371 24.3143 50.2287 24.2841C50.3923 24.2583 50.5682 24.2306 50.7674 24.1793C50.5924 24.1144 50.3861 24.0525 50.182 23.9912L50.182 23.9912L50.1818 23.9912C50.0083 23.9391 49.8364 23.8874 49.6866 23.8349C49.543 23.8349 49.3992 23.8222 49.2554 23.8095L49.2553 23.8095C48.9678 23.7841 48.6804 23.7587 48.3944 23.8349C47.9538 23.9492 47.7376 24.3889 47.5462 24.7781C47.3617 25.1533 47.2003 25.4814 46.8834 25.426L46.2356 25.0845C46.2356 25.0845 46.342 25.426 46.342 25.8826C46.342 26.073 45.9353 26.085 45.4635 26.0991C45.0942 26.11 44.6849 26.1222 44.3993 26.222C44.3373 26.289 44.2746 26.3551 44.2115 26.4216L44.2115 26.4216L44.2114 26.4216L44.2114 26.4217L44.2114 26.4217L44.1519 26.4844C44.1264 26.5113 44.1009 26.5383 44.0754 26.5656C44.0754 26.6212 44.0492 26.6493 44.0228 26.6775C43.996 26.7063 43.969 26.7352 43.969 26.7935C43.8579 27.015 43.7515 27.3615 43.5387 28.4989C43.5387 28.4989 43.7515 28.3846 43.969 28.1553C44.0009 28.1214 44.0331 28.0772 44.0683 28.0289C44.1504 27.9162 44.249 27.7809 44.3993 27.7009C45.0498 27.1343 45.911 26.6778 46.6679 26.7935L46.8834 27.015C47.0989 27.2451 47.0989 28.0424 47.0989 28.0424L48.6099 27.015C48.6099 27.015 47.9621 26.6778 47.853 26.337ZM64.039 28.2739C63.1751 28.7233 62.5266 28.7233 61.9872 28.6097C61.557 28.6097 61.124 28.7233 60.6917 29.0684L60.3718 28.3846C60.3718 28.3846 61.8788 27.9274 61.8788 27.4744C61.9083 27.3494 61.6822 27.3092 61.3266 27.246C60.375 27.0768 58.4964 26.7427 58.1053 24.1793C59.299 25.2138 60.1268 25.3822 60.8567 25.5307C61.2479 25.6102 61.611 25.6841 61.9872 25.8826C62.197 25.9914 62.3034 26.103 62.5077 26.3171L62.5266 26.337C62.5266 25.8826 62.3098 25.3139 61.9872 24.8581C61.7838 24.64 61.6228 24.4259 61.5039 24.2677C61.435 24.1761 61.3802 24.1033 61.3395 24.0593C61.557 24.1793 61.7724 24.2908 61.9872 24.4015C63.8229 25.3139 64.039 25.6561 63.499 26.7935C63.3437 27.2286 63.6348 27.194 64.0872 27.1404C64.5783 27.0821 65.2594 27.0014 65.7655 27.4744C65.265 27.4744 65.0489 27.6235 64.7103 27.8571C64.5369 27.9767 64.3313 28.1185 64.039 28.2739ZM51.0924 10.5645C51.4163 10.7856 51.3072 11.5409 51.3072 11.5409L52.6014 10.9993C52.6014 10.9993 52.1685 10.674 52.1685 10.3535C52.0621 9.70235 53.3556 9.37439 54.7609 9.15869C54.0021 9.05117 53.0317 8.51157 53.0317 8.51157C52.5466 8.51157 52.1952 8.91364 51.9195 9.22913C51.7666 9.40409 51.6369 9.55242 51.5207 9.59078L51.0924 9.15869C51.0924 9.15869 50.9806 9.59078 50.9806 9.80919C50.9248 9.80919 50.8464 9.80182 50.7513 9.79289C50.4845 9.76781 50.0863 9.7304 49.6871 9.80919C49.4743 9.80919 49.2561 9.80919 49.0433 10.0249C49.0433 10.0249 48.9639 10.2575 48.8103 10.5807C49.1403 10.6105 49.4514 10.6903 49.6871 10.8924C50.3355 10.674 50.9806 10.4577 51.0924 10.5645ZM44.3997 10.4577C44.2933 10.4577 44.0758 10.3536 43.9694 10.244C43.1062 9.80924 42.1338 9.48331 41.4881 9.26964C41.1662 9.15874 40.9467 9.15874 40.9467 9.15874C41.0086 9.09883 41.1027 9.07231 41.2112 9.04173C41.2974 9.01743 41.3926 8.99057 41.4881 8.94236C42.5661 8.61914 43.3237 8.18232 43.3237 8.18232C43.5392 8.18232 43.7519 8.28916 43.9694 8.40073C44.0241 8.45767 44.108 8.51371 44.1911 8.56923C44.2699 8.62185 44.348 8.67399 44.3997 8.72598C44.7444 9.01405 45.0573 9.36155 45.3235 9.65721L45.3236 9.65728L45.3236 9.65733C45.5598 9.91959 45.7592 10.141 45.9114 10.244C46.0178 9.9181 46.6683 9.48331 46.6683 9.48331L46.7747 10.4577C46.7747 10.5645 46.8838 10.5645 46.8838 10.5645C47.0884 10.6484 47.4318 10.6244 47.8207 10.5972C48.1372 10.575 48.4838 10.5507 48.8103 10.5808C48.7066 10.8012 48.5686 11.0622 48.3948 11.3273C48.3948 11.3273 49.0433 11.1089 49.687 10.8925H49.7955C49.7955 10.8925 50.4439 12.299 50.9806 13.7102C50.5503 13.3843 50.12 13.061 49.687 12.8426C48.6103 12.1921 47.5296 11.7594 46.8838 11.9778C46.6683 11.9778 46.5572 12.0853 46.4508 12.1921C46.236 12.629 46.236 13.4911 46.236 13.4911L44.3997 12.629L44.0758 12.5174C44.0758 12.5174 44.1849 12.4078 44.3997 12.299C44.7243 12.0853 45.1552 11.6505 45.0502 11.2157C44.9425 11.006 44.7374 10.7988 44.4294 10.4876L44.4293 10.4876L44.3997 10.4577ZM60.1529 7.53376C59.398 8.07742 59.291 8.61905 59.7239 8.94227C60.1529 9.15865 60.5859 8.61905 60.5859 7.75014C60.8007 8.72589 61.34 9.05113 61.6666 8.83475C62.0989 8.51153 61.6666 7.85901 61.0182 7.53376C61.34 7.64263 61.6666 7.75014 61.9878 7.75014C62.3104 7.75014 62.5272 7.64263 62.4208 7.31535C62.4208 7.09897 62.204 6.99213 61.9878 6.99213C61.6666 6.88259 61.34 6.99213 60.9098 7.20784C61.773 6.77372 61.773 6.12525 61.34 5.9082C60.9098 5.69249 60.4768 6.4505 60.4768 6.99213C60.2633 6.23412 59.7239 5.69249 59.398 5.9082C59.0741 6.12525 59.291 6.77372 60.1529 7.20784C58.9698 6.66485 58.5341 6.99213 58.6432 7.53376C58.7523 7.75014 59.398 7.96855 60.1529 7.53376ZM78.9276 18.8024C79.2515 18.6956 79.7909 19.1263 79.4697 20.1021C79.7909 19.2345 80.4393 18.6956 80.7632 19.0195C81.2796 19.3283 80.7073 19.9377 79.9957 20.2751C79.9628 20.2884 79.9308 20.3029 79.9 20.3184C79.9321 20.3046 79.9641 20.2901 79.9957 20.2751C80.42 20.1032 81.0002 20.1176 81.3026 20.3184C81.409 20.4273 81.409 20.5369 81.409 20.6437C81.409 20.8601 81.3026 20.971 81.3026 20.971C80.9767 21.2942 80.4393 21.1874 79.7909 20.7505C80.4393 21.401 80.5457 22.1617 80.0064 22.3775C79.4697 22.5938 79.1431 22.0495 79.2515 20.971C79.0387 21.9427 78.3909 22.3775 78.0644 22.1617C77.525 21.9427 77.6314 21.2942 78.9276 20.7505C77.958 21.0758 77.3095 20.8601 77.3095 20.4273C77.4186 19.9925 78.2778 19.8884 79.0387 20.3184C78.6057 19.9925 78.2778 19.0195 78.9276 18.8024ZM76.8768 15.4431C76.9194 15.4862 76.962 15.5124 76.998 15.5346C77.0541 15.5692 77.0943 15.594 77.0943 15.6574C77.0943 15.769 76.9858 15.8779 76.8768 15.9834C76.4465 16.1991 75.5832 16.3086 75.5832 16.3086L75.9071 17.0687C76.231 16.7427 76.5549 16.7427 76.8768 16.7427C76.9449 16.7563 77.013 16.7715 77.0822 16.787C77.563 16.8948 78.0941 17.0139 79.039 16.6332C79.2688 16.534 79.4486 16.4347 79.6059 16.3479C79.9632 16.1506 80.2046 16.0173 80.6544 16.0943C80.1982 15.5222 79.5313 15.5238 79.0676 15.5248C78.6538 15.5258 78.4018 15.5264 78.606 15.1185C79.1433 13.9237 78.9279 13.6025 76.8768 12.2988H76.7731L76.8768 12.4077L76.9131 12.4621C77.1673 12.8425 77.8437 13.8546 77.7407 14.5749C77.5654 14.4 77.3894 14.2556 77.2302 14.125L77.2301 14.1249C77.097 14.0158 76.9758 13.9163 76.8768 13.8169C76.6933 13.7476 76.5098 13.6981 76.3222 13.6475C75.6272 13.4599 74.8757 13.2571 73.8587 11.9776C74.063 14.6553 75.9289 15.1775 76.7578 15.4095L76.7581 15.4095C76.8005 15.4214 76.8402 15.4325 76.8768 15.4431ZM30.8032 8.40057C30.8032 8.40057 31.6692 8.07735 31.5628 7.64256C31.453 6.99206 29.8356 5.79926 28.4329 5.69242C29.8356 4.93509 30.4813 5.25763 30.4813 5.25763C30.9904 5.37206 31.3218 5.87197 31.5996 6.29094C31.852 6.67166 32.0602 6.98554 32.3169 6.88252C32.6408 6.77365 33.0691 6.45043 33.0691 6.45043L32.8563 7.20777C32.9353 7.53051 33.3727 7.49446 33.8581 7.45444C34.0266 7.44055 34.2009 7.42618 34.368 7.42618C34.4436 7.45127 34.5193 7.47051 34.5935 7.48939C34.8374 7.55141 35.0662 7.60961 35.2293 7.85894C35.2293 7.85894 35.9855 8.40057 36.0946 10.1343C35.6616 9.48315 35.0165 8.9422 34.368 8.61898C33.6112 8.18216 32.8563 8.07735 32.5338 8.40057C32.2106 8.61898 32.4254 9.37429 32.4254 9.37429C31.9951 8.9422 31.3446 8.61898 30.8032 8.40057ZM60.4765 14.0354C59.6132 15.4433 59.7237 16.4156 60.5856 16.5265C61.3398 16.6334 61.7727 15.5535 61.2327 14.1443C61.4509 14.575 61.6663 14.9023 61.9875 15.1187C62.636 15.6576 63.3909 15.7692 63.7168 15.2255C64.1477 14.4682 63.1754 13.817 61.9875 13.6027C63.2838 13.7102 64.5753 13.1679 64.0393 12.4078C63.7168 11.8682 62.8508 11.9778 61.9875 12.5174C61.8394 12.5945 61.6939 12.7209 61.5815 12.8622C61.7485 12.6066 61.9013 12.3639 61.9875 12.1921C62.2037 11.6505 62.0986 11.3273 61.9875 10.9993C61.8791 10.8925 61.6663 10.7857 61.4509 10.7857C60.4765 10.5645 60.263 12.1921 60.5856 12.9474C59.8307 11.7594 58.6429 11.3273 58.2126 11.9778C57.7796 12.5174 58.5338 13.2774 60.1526 13.4911C57.886 13.3843 57.3467 14.2538 57.886 14.9023C58.2126 15.3364 59.5068 15.3364 60.4765 14.0354ZM69.0022 14.575C68.6777 14.3579 68.6777 13.9238 69.7544 13.491C69.0022 13.7101 68.4629 13.491 68.4629 13.1678C68.5693 12.8426 69.217 12.7357 69.7544 13.061C69.4325 12.8426 69.217 12.0852 69.65 11.9777C69.9719 11.8682 70.4022 12.1921 70.1874 12.9474C70.4022 12.2989 70.8352 11.8682 71.159 12.0852C71.594 12.2989 71.0527 12.8426 70.4022 13.1678C71.0527 12.9474 71.7011 12.9474 71.7011 13.3842C71.594 13.817 71.0527 13.9238 70.4022 13.491C70.9442 13.9238 70.9442 14.575 70.6203 14.6838C70.1874 14.9022 69.8635 14.4681 69.9719 13.6026C69.8635 14.3579 69.3281 14.6838 69.0022 14.575ZM3.83316 25.0856C3.42807 25.3183 3.36324 25.9537 3.3081 26.4941C3.26022 26.9634 3.21965 27.361 2.96989 27.361L2.10596 27.0364C2.10596 27.0364 2.42783 27.5774 2.53692 27.7978C2.59039 28.064 2.17093 28.3039 1.70628 28.5698C1.22887 28.8429 0.703765 29.1434 0.594908 29.5275C0.594908 29.5275 0.275056 29.9609 0.809714 31.4776C1.1363 30.0718 2.53692 28.6627 3.18739 28.6627C3.61566 28.6627 3.83316 29.637 3.83316 29.637C4.04796 28.9859 4.48094 28.4476 5.02031 28.1176C5.02031 28.1176 4.26412 28.2258 4.04796 27.9033C3.61566 27.0364 4.6944 25.1931 6.09906 24.6535C4.48094 24.4371 3.83316 25.0856 3.83316 25.0856ZM18.8619 17.4973C18.1454 17.4882 16.9334 17.4727 15.9163 16.5264L15.8851 16.4947C15.5676 16.1715 15.1551 15.7517 14.9446 15.2254C14.8894 15.1713 14.8621 15.0892 14.8348 15.007C14.8082 14.9269 14.7816 14.8467 14.7291 14.7926L14.9446 14.9022C15.2685 15.1186 15.5951 15.3363 15.9163 15.4431C16.736 15.7343 17.3406 15.7437 17.8743 15.7521C18.5344 15.7624 19.0863 15.771 19.803 16.3087C19.5855 15.3363 18.2892 14.3579 17.9653 14.1442C20.7733 14.9022 21.0945 15.1186 20.8797 16.6332C20.7807 17.0384 21.0518 16.97 21.4387 16.8725L21.439 16.8724C21.4679 16.8652 21.4974 16.8577 21.5275 16.8503C22.0669 16.6332 22.7126 16.4155 23.3584 16.8503C22.8475 16.9229 22.6346 17.1477 22.3125 17.4876L22.3125 17.4876C22.1604 17.6482 21.9839 17.8344 21.7403 18.0424C21.7403 18.1102 21.6995 18.1361 21.6432 18.1717C21.6085 18.1937 21.568 18.2194 21.5275 18.2608C20.9151 18.7209 20.3756 18.795 19.9084 18.8591C19.3867 18.9308 18.9552 18.9901 18.6131 19.5605L18.0758 18.9093C18.0758 18.9093 19.4764 18.152 19.4764 17.6124C19.4416 17.5046 19.2103 17.5017 18.8619 17.4973ZM83.6758 26.7125C84.7539 26.818 85.8353 26.4921 85.4023 25.8436C85.0813 25.4154 84.1254 25.5185 83.4778 26.2575C84.2121 25.4014 83.8864 24.7595 83.3519 24.6535C82.5971 24.5446 82.4887 25.6272 82.8146 26.1709C82.3816 25.5204 81.6247 25.1931 81.3028 25.3047C81.0854 25.3047 80.9769 25.3047 80.9769 25.4115C80.7635 25.6272 80.8705 25.8436 81.3028 26.1709C81.5183 26.2777 81.9513 26.4921 82.4887 26.5989C82.0973 26.5211 81.7613 26.5566 81.5244 26.5817C81.436 26.591 81.3614 26.5989 81.3028 26.5989C80.9008 26.7348 80.7487 26.912 80.7419 27.104C80.7444 27.1111 80.7483 27.1164 80.7522 27.1217C80.7554 27.1261 80.7586 27.1304 80.761 27.1358L80.7617 27.1377C80.7624 27.1394 80.763 27.1412 80.7635 27.1432C80.7671 27.1702 80.7656 27.1955 80.764 27.2208C80.7636 27.2285 80.7631 27.2362 80.7628 27.244C80.7843 27.3184 80.8207 27.3927 80.8705 27.4678C80.9769 27.5773 81.0854 27.6842 81.3028 27.6842C81.6247 27.7978 82.2752 27.5773 82.8146 27.0364C82.1661 27.9033 82.2752 28.6626 82.921 28.7695C83.5694 28.879 83.8906 28.0121 83.3519 27.0364C84.1081 28.1176 84.9694 28.3374 85.296 27.7978C85.6178 27.361 84.6475 26.818 83.6758 26.7125ZM10.9536 17.8268C10.6317 17.6125 10.6317 17.1777 11.5993 16.6334C10.8472 16.9573 10.3058 16.7429 10.3058 16.3088C10.3058 15.9835 10.9536 15.8781 11.5993 16.3088C11.2781 15.9835 10.9536 15.2255 11.3845 15.0119C11.7105 14.9023 12.0323 15.3364 11.9259 16.1993C12.0323 15.4433 12.5717 15.0119 12.8976 15.2255V15.3364C13.1062 15.4408 13.0074 15.648 12.9047 15.8631L12.8976 15.8781C12.8339 16.0028 12.6991 16.0905 12.5556 16.1838C12.4501 16.2524 12.3399 16.324 12.2498 16.4156L12.2537 16.4137C12.4652 16.3075 12.6794 16.1999 12.8976 16.3088C13.2175 16.3088 13.435 16.4156 13.435 16.7429C13.435 16.9573 13.2175 17.1777 12.8976 17.0688C12.6781 17.0688 12.4626 16.9573 12.1407 16.7429C12.7872 17.2832 12.8976 17.933 12.4626 18.0425C12.1407 18.261 11.8168 17.7173 11.8168 16.8504C11.7105 17.7173 11.2781 18.0425 10.9536 17.8268ZM4.80281 18.0424C5.55766 17.7172 5.99064 17.0687 5.34016 16.8503C5.02031 16.6333 4.48093 17.0687 4.48093 17.9329C4.48093 16.9572 3.93954 16.6333 3.61565 16.7428C3.07628 17.0687 3.61565 17.8267 4.04796 18.0424C3.29108 17.8267 2.53691 17.9329 2.53691 18.3684C2.53691 18.6956 3.18738 18.9093 4.04796 18.4793C2.96989 19.1264 3.07628 19.6694 3.61565 19.8884C3.93954 19.9926 4.48093 19.5605 4.48093 18.6956C4.588 19.6694 5.02031 20.1021 5.45328 19.8884C5.88155 19.6694 5.66674 19.0195 4.80281 18.4793C5.77314 18.9093 6.42092 18.6956 6.42092 18.2609C6.31453 17.7172 5.45328 17.8267 4.80281 18.0424ZM11.2779 21.5087C9.22618 22.0496 9.01137 22.9192 9.76622 23.352C10.3056 23.6792 11.3843 23.352 11.8166 21.9428C11.4927 23.352 12.0321 24.2168 12.787 24.11H12.8974C13.4348 23.8983 13.5459 23.1356 12.8974 22.2707C12.8407 22.2148 12.7843 22.1297 12.7284 22.0455L12.7284 22.0455C12.6756 21.9658 12.6232 21.8868 12.5715 21.8339C12.6287 21.8924 12.6866 21.9504 12.7452 22.0089C12.7955 22.0592 12.8463 22.1099 12.8974 22.1619C13.7593 22.7035 14.6219 22.7035 14.9445 22.3776C15.0556 22.2707 15.0556 22.1619 15.0556 22.0496C15.1437 21.8709 15.0858 21.7664 15.0001 21.612L15.0001 21.612L15.0001 21.6119L15 21.6118C14.9823 21.5799 14.9635 21.5459 14.9445 21.5087C14.5135 21.1875 13.7593 21.0759 12.8974 21.1875C14.0832 20.8602 15.0556 20.1022 14.298 19.5606C13.8677 19.2346 13.3284 19.3421 12.8974 19.7749C12.6951 19.9756 12.4081 20.3607 12.279 20.7586C12.6465 19.4148 12.0164 18.6983 11.3843 18.8025C10.414 19.0196 10.847 20.4274 11.4927 20.9711C10.3056 20.209 9.11978 20.1022 8.90498 20.7507C8.79791 21.2943 9.76622 21.8339 11.2779 21.5087ZM12.2496 20.8602C12.26 20.826 12.2698 20.7921 12.279 20.7586C12.268 20.7924 12.2582 20.8263 12.2496 20.8602ZM15.8098 7.31535C15.8098 7.31535 15.8098 7.20784 15.9162 6.99213C16.0253 6.77372 16.4562 6.55937 17.2104 6.23412C17.2104 6.23412 16.2407 6.23412 15.9162 5.79933C15.9162 5.74649 15.8902 5.71979 15.8638 5.69279C15.837 5.6652 15.8098 5.63731 15.8098 5.58092L15.9162 5.47611C16.1296 5.36725 16.5626 5.15086 17.4279 5.79933C17.4279 5.79933 16.7794 4.71878 17.7498 3.8492C17.7498 3.8492 18.4003 4.5024 17.8609 5.69249L17.8807 5.67095C18.0226 5.51533 18.557 4.92947 19.4763 4.82562C19.4763 4.82562 19.2615 5.69249 18.1807 6.01368C18.1807 6.01368 19.1551 6.01368 19.3699 6.77372C19.3699 6.77372 18.7221 7.42625 17.8609 6.4505C17.8609 6.4505 18.4003 7.42625 17.3215 7.96855C17.3215 7.96855 16.671 7.64263 17.4279 6.55937C17.4279 6.55937 16.5626 7.42625 15.9162 7.42625C15.9162 7.31535 15.8098 7.31535 15.8098 7.31535ZM27.4606 12.9474C27.6465 13.136 27.5852 13.3206 27.3637 13.5073C27.6175 13.7588 28.0444 13.9238 28.3239 13.9238C28.0343 13.9238 27.7508 13.9786 27.5273 14.0766C27.6727 14.1895 27.7475 14.3282 27.6781 14.4681C27.5717 14.6838 27.3522 14.6838 27.2451 14.6838C27.1212 14.6838 26.9792 14.6419 26.8344 14.5777C26.7011 14.7447 26.6438 14.93 26.7058 15.1186C26.8149 15.2255 27.0297 15.3364 27.2451 15.3364C27.5717 15.3364 28.1111 15.1186 28.5367 14.4681C27.7845 15.878 28.1111 16.5265 28.8653 16.4156C29.2962 16.4156 29.6174 15.6576 29.0787 14.4681C29.8356 15.6576 30.5925 15.9835 30.9144 15.4432C31.3446 15.0118 30.5925 14.2538 29.4026 14.0354C30.8032 14.1442 31.3446 13.491 31.0228 12.9474C30.6962 12.2989 29.7285 12.7357 29.1878 13.491C29.7285 12.7357 29.8356 11.6504 29.0787 11.6504C28.5367 11.6504 28.2175 12.4078 28.6505 13.491C28.2175 12.5173 27.5717 12.1921 27.2451 12.4078C27.1361 12.4078 27.0297 12.5173 27.0297 12.5173C26.9691 12.61 26.9401 12.7012 26.9287 12.7912C27.0324 12.756 27.1388 12.7357 27.2451 12.7357C27.3522 12.7357 27.4606 12.8426 27.4606 12.9474ZM25.5183 13.7101C25.4874 13.7139 25.457 13.7182 25.427 13.7228C25.4585 13.7201 25.489 13.7159 25.5183 13.7101ZM24.4395 14.5749C24.1292 14.2652 24.6195 13.8481 25.427 13.7228C24.8788 13.7698 24.0243 13.3604 24.3331 12.9473C24.5479 12.7357 25.1984 12.7357 25.7337 13.491C25.3028 12.8425 25.4139 12.2989 25.8462 12.192C26.4879 12.192 26.4879 12.8425 26.166 13.3842C26.3297 13.1414 26.6138 12.8973 26.9283 12.7911C26.8993 13.0177 27.0145 13.2293 27.2448 13.3842C27.2661 13.416 27.2961 13.4439 27.3261 13.4718C27.3387 13.4835 27.3513 13.4952 27.3633 13.5072C27.3542 13.5149 27.3454 13.5226 27.3365 13.5302C27.3088 13.5543 27.281 13.5785 27.2448 13.6026C27.1478 13.6026 27.0289 13.6243 26.8981 13.6483C26.7382 13.6776 26.5606 13.7101 26.3835 13.7101C26.7054 13.7101 27.0293 13.8169 27.2448 13.9238C27.3586 13.9623 27.4495 14.0171 27.5269 14.0766C27.4165 14.1253 27.3162 14.1814 27.2448 14.2537C27.0636 14.3437 26.931 14.4566 26.834 14.5776C26.6274 14.4857 26.4143 14.3369 26.2299 14.1163C26.2099 14.0895 26.1886 14.0625 26.166 14.0353C26.1869 14.0633 26.2082 14.0903 26.2299 14.1163C26.687 14.7284 26.4744 15.2301 26.166 15.3363C25.6273 15.4432 25.1984 15.0118 25.7337 14.0353C25.3028 14.6838 24.657 14.9022 24.4395 14.5749Z" fill="white"/>
</mask>
<g mask="url(#mask0_193_36)">
</g>
<defs>
<linearGradient id="paint0_linear_193_36" x1="0.5" y1="0.27417" x2="0.5" y2="58.1331" gradientUnits="userSpaceOnUse">
<stop stop-color="#5CB531"/>
<stop offset="0.284299" stop-color="#5CB531"/>
<stop offset="0.599729" stop-color="#00A4EA"/>
<stop offset="1" stop-color="#004EA2"/>
</linearGradient>
</defs>
</svg>
