<svg width="95" height="91" viewBox="0 0 95 91" fill="none" xmlns="http://www.w3.org/2000/svg">
<path d="M23.2503 1.1502C20.7503 2.4002 18.8503 4.6002 17.9503 7.3002L1.05032 58.3002C0.150319 60.9502 0.35032 63.8502 1.65032 66.4002C2.90032 68.9502 5.10032 70.8002 7.75032 71.7002L63.2003 90.4002C65.9003 91.3002 68.7503 91.1002 71.3003 89.8002C73.8503 88.5002 75.7003 86.3502 76.6003 83.6502L93.5003 32.6502C95.3503 27.1002 92.3503 21.0502 86.8003 19.2002L31.3003 0.550197C28.6503 -0.349803 25.8003 -0.149802 23.2503 1.1502Z" fill="#FEFEFE"/>
<path d="M50.1502 50.4501C47.1502 53.8501 43.4002 56.5501 39.0502 58.2501L36.5502 59.2501V35.6001L39.0002 36.5501C43.3502 38.2501 47.1002 40.9501 50.1002 44.3001C52.2502 40.8001 53.6002 36.8001 53.8502 32.4001C54.5502 21.0501 47.5002 10.6501 37.8002 7.05012L29.9002 4.35012C26.3002 3.15012 22.4502 5.15012 21.2502 8.75012L4.35024 59.8501C3.15024 63.5001 5.15024 67.4001 8.80024 68.6001L47.1502 81.5001C51.0502 77.3001 53.6002 71.7501 53.9502 65.5501C54.3002 60.0501 52.8502 54.8501 50.1502 50.4501ZM28.0002 34.1501V60.6501H24.2002V34.1501H28.0002Z" fill="#00A4E2"/>
<path d="M85.2004 22.85L50.0004 11C54.7504 16.2 57.6004 23.15 57.6504 30.75C57.6504 36.75 55.8004 42.5 52.5504 47.3C55.8004 52.1 57.6504 57.8 57.7004 63.85C57.7004 71 55.1504 77.6 50.9004 82.7L64.1504 87.15C67.7504 88.35 71.6004 86.35 72.8004 82.75L89.7004 31.65C90.8504 28 88.8504 24.05 85.2004 22.85ZM75.9004 60.5H71.1504L61.3504 47.25L71.3004 34H76.1004L66.1504 47.3L75.9004 60.5Z" fill="#004898"/>
<path d="M48.0004 47.25C45.9004 44.7 43.4004 42.55 40.5004 41V53.5C43.4004 51.95 45.9504 49.75 48.0004 47.25Z" fill="#E7390E"/>
</svg>
