<svg width="86" height="86" viewBox="0 0 86 86" fill="none" xmlns="http://www.w3.org/2000/svg">
<path d="M43 0.5C66.46 0.5 85.5 19.54 85.5 43C85.5 66.46 66.46 85.5 43 85.5C19.54 85.5 0.5 66.46 0.5 43C0.5 19.54 19.54 0.5 43 0.5ZM43 8.9435C24.1865 8.9435 8.9435 24.1865 8.9435 43C8.9435 61.8135 24.1865 77.0565 43 77.0565C61.8135 77.0565 77.0565 61.8135 77.0565 43C77.0565 24.1865 61.8135 8.9435 43 8.9435ZM66.9135 20.5035V39.3165H52.69V45.72H66.9135V64.93H46.06V58.81H60.2835V51.84H46.06V33.0265H60.2835V26.6235H46.06V20.5035H66.9135ZM39.94 20.5035V26.6235H25.7165V33.0265H39.94V51.84H25.7165V58.81H39.94V64.93H19.0865V45.72H33.31V39.3165H19.0865V20.5035H39.94Z" fill="#CF0106"/>
</svg>
