<?xml version="1.0" standalone="no"?><!DOCTYPE svg PUBLIC "-//W3C//DTD SVG 1.1//EN" "http://www.w3.org/Graphics/SVG/1.1/DTD/svg11.dtd"><svg t="1722074246366" class="icon" viewBox="0 0 1024 1024" version="1.1" xmlns="http://www.w3.org/2000/svg" p-id="15415" xmlns:xlink="http://www.w3.org/1999/xlink" width="256" height="256"><path d="M512 1024a512 512 0 1 1 512-512 512 512 0 0 1-512 512z m108.202667-273.066667c128.341333 0 232.448-114.449067 232.448-255.624533s-104.106667-255.5904-232.448-255.5904h-155.0336V750.933333h154.999466zM201.6256 750.933333a183.296 183.296 0 0 0 186.026667-180.4288V239.7184H325.666133v330.752a122.197333 122.197333 0 0 1-124.0064 120.32H170.666667V750.933333h30.993066z" fill="#ED171F" p-id="15416"></path><path d="M620.168533 299.861333h-93.047466v390.894934h93.013333c94.173867 0 170.496-87.517867 170.496-195.447467s-76.322133-195.447467-170.496-195.447467z" fill="#ED171F" p-id="15417"></path></svg>