<svg width="86" height="86" viewBox="0 0 86 86" fill="none" xmlns="http://www.w3.org/2000/svg">
<path fill-rule="evenodd" clip-rule="evenodd" d="M1.25084 43.2125C1.25084 20.0024 20.0685 1.18582 43.2808 1.18582C66.4932 1.18582 85.3108 20.0024 85.3108 43.2125C85.3108 66.4238 66.4932 85.2414 43.2808 85.2414C20.0685 85.2414 1.25084 66.4238 1.25084 43.2125Z" fill="url(#paint0_radial_3292_22)"/>
<path fill-rule="evenodd" clip-rule="evenodd" d="M45.6949 46.3622C42.493 49.3464 38.7308 51.7386 34.5856 53.3669C33.1903 57.1521 32.4276 61.2459 32.4276 65.5158C32.4276 72.8006 34.6435 79.5645 38.4386 85.1728C40.0844 85.372 41.7521 85.5 43.4527 85.5C44.4321 85.5 45.3907 85.4212 46.3537 85.3523C41.4917 80.1565 38.4933 73.1956 38.4933 65.5158C38.4933 58.1796 41.2105 51.4781 45.6949 46.3622ZM43.6267 39.7941C42.8323 40.5339 42.0728 41.3097 41.3495 42.1195C42.1505 41.3874 42.9122 40.6105 43.6267 39.7941ZM67.568 30.3777C63.0376 30.3777 58.7085 31.2345 54.7318 32.7961C53.1899 36.9807 50.8755 40.7889 47.9592 44.0521C53.1297 39.3269 60.0118 36.4445 67.568 36.4445C74.3133 36.4445 80.5059 38.7611 85.439 42.6164C85.3865 39.9342 85.1042 37.3079 84.5691 34.7713C79.5298 31.9765 73.7377 30.3777 67.568 30.3777Z" fill="#FFFFFE" fill-opacity="0.54"/>
<path fill-rule="evenodd" clip-rule="evenodd" d="M47.9592 44.0521C47.1625 44.7787 46.4062 45.5514 45.6949 46.3622C46.4839 45.628 47.2402 44.8553 47.9592 44.0521ZM41.3495 42.1195C36.18 46.8414 29.3009 49.7194 21.7492 49.7194C21.0083 49.7194 20.2729 49.692 19.5463 49.6373C18.8427 51.56 18.2485 53.5374 17.7736 55.5597C19.078 55.7085 20.4043 55.784 21.7492 55.784C26.2796 55.784 30.6089 54.9273 34.5856 53.3669C36.1252 49.1855 38.4376 45.3806 41.3495 42.1195ZM0.657578 40.6191C0.629126 41.2527 0.561279 41.8798 0.561279 42.5232C0.561279 44.749 0.784517 46.9169 1.11828 49.0475C4.15278 51.2569 7.54841 52.999 11.2012 54.1579C11.6619 52.1761 12.2222 50.2337 12.8788 48.3351C8.16778 46.8195 3.98426 44.1308 0.657578 40.6191ZM56.7 16.9963C54.67 17.4527 52.6904 18.0272 50.759 18.7144C50.8006 19.3524 50.8224 19.9958 50.8224 20.6447C50.8224 27.9788 48.1079 34.6794 43.6267 39.7941C46.8287 36.8132 50.5899 34.4222 54.7318 32.7961C56.1259 29.0098 56.8882 24.9158 56.8882 20.6447C56.8882 19.4126 56.8247 18.1957 56.7 16.9963ZM42.6833 0.499756C45.7878 3.72467 48.1592 7.65869 49.5205 12.0381C51.4279 11.399 53.3779 10.8562 55.3674 10.4141C54.3781 7.17282 52.9326 4.13065 51.1073 1.36097C48.3868 0.799595 45.569 0.507416 42.6833 0.499756Z" fill="#FFFFFE" fill-opacity="0.51"/>
<path d="M49.5205 12.0381C51.4279 11.399 53.3779 10.8562 55.3674 10.4141C56.0141 12.5305 56.4647 14.7311 56.7 16.9963C54.67 17.4527 52.6904 18.0272 50.759 18.7144C50.6069 16.4043 50.1837 14.1676 49.5205 12.0381Z" fill="#FFFFFE" fill-opacity="0.58"/>
<path d="M43.6267 39.7941C46.8287 36.8132 50.5899 34.4222 54.7318 32.7961C53.1899 36.9807 50.8755 40.7889 47.9592 44.0521C47.1625 44.7787 46.4062 45.5514 45.6949 46.3622C42.493 49.3464 38.7308 51.7386 34.5856 53.3669C36.1252 49.1855 38.4376 45.3806 41.3495 42.1195C42.1505 41.3874 42.9122 40.6105 43.6267 39.7941Z" fill="#FFFFFE" fill-opacity="0.58"/>
<path d="M12.8788 48.3351C12.2222 50.2337 11.6619 52.1761 11.2012 54.1579C13.3132 54.8276 15.5094 55.3025 17.7736 55.5597C18.2485 53.5374 18.8427 51.56 19.5463 49.6373C17.2373 49.4633 15.0039 49.0179 12.8788 48.3351Z" fill="#FFFFFE" fill-opacity="0.58"/>
<path d="M29.3856 23.6868C31.5917 21.7335 33.9499 19.9421 36.4351 18.3368C36.4767 18.792 36.4974 19.2538 36.4974 19.7189C36.4974 23.561 35.0683 27.0682 32.7144 29.7394C32.1739 30.2461 31.6453 30.7637 31.1277 31.2944C28.486 33.5301 25.0696 34.8783 21.3392 34.8783C20.769 34.8783 20.2055 34.8465 19.6517 34.7853C21.3074 32.3318 23.1459 30.0108 25.1451 27.843C26.9869 26.9796 28.486 25.5078 29.3856 23.6868Z" fill="#FFFFFE" fill-opacity="0.58"/>
<path fill-rule="evenodd" clip-rule="evenodd" d="M67.309 74.5295C62.355 74.5295 58.3389 70.5178 58.3389 65.5595C58.3389 60.6012 62.355 56.5906 67.309 56.5906C72.264 56.5906 76.28 60.6012 76.28 65.5595C76.28 70.5178 72.264 74.5295 67.309 74.5295ZM67.3093 50.4011C58.939 50.4011 52.15 57.1836 52.15 65.5594C52.15 72.6505 57.0273 78.586 63.6029 80.2428C71.5454 75.8196 77.8891 68.8971 81.6009 60.5399C79.5294 54.6361 73.92 50.4011 67.3093 50.4011Z" fill="#FFFFFE" fill-opacity="0.44"/>
<path fill-rule="evenodd" clip-rule="evenodd" d="M32.7144 29.7394C32.1739 30.2461 31.6453 30.7637 31.1277 31.2944C31.6935 30.8151 32.2242 30.2953 32.7144 29.7394ZM25.3955 5.12199C17.395 8.88092 10.7624 15.0561 6.48261 22.7436C7.77608 29.1288 13.0815 34.0575 19.6517 34.7853C21.3074 32.3318 23.1459 30.0108 25.1451 27.843C23.9896 28.3847 22.6991 28.6878 21.3389 28.6878C16.3828 28.6878 12.3678 24.6761 12.3678 19.7189C12.3678 14.7606 16.3828 10.7445 21.3389 10.7445C26.2928 10.7445 30.3089 14.7606 30.3089 19.7189C30.3089 21.1448 29.9765 22.4908 29.3856 23.6868C31.5917 21.7335 33.9499 19.9421 36.4351 18.3368C35.8606 11.9887 31.366 6.78096 25.3955 5.12199Z" fill="#FFFFFE" fill-opacity="0.62"/>
<path fill-rule="evenodd" clip-rule="evenodd" d="M36.4351 18.3368C40.4807 15.7225 44.8697 13.5964 49.5205 12.0381C50.1837 14.1676 50.6069 16.4043 50.759 18.7144C43.9809 21.1251 37.8522 24.9136 32.7144 29.7394C35.0683 27.0682 36.4974 23.561 36.4974 19.7189C36.4974 19.2538 36.4767 18.792 36.4351 18.3368ZM55.3674 10.4141C59.3846 9.52228 63.5584 9.04423 67.8404 9.02672C70.7129 11.1234 73.3349 13.5429 75.5902 16.2874C73.1401 15.9296 70.6352 15.7392 68.0833 15.7392C64.1734 15.7392 60.3615 16.1734 56.7 16.9963C56.4647 14.7311 56.0141 12.5305 55.3674 10.4141ZM9.69009 67.4142C9.69009 62.8554 10.213 58.4158 11.2012 54.1579C13.3132 54.8276 15.5094 55.3025 17.7736 55.5597C16.8806 59.3667 16.408 63.3347 16.408 67.4142C16.408 70.3229 16.6597 73.1681 17.1215 75.9443C14.3431 73.7557 11.8634 71.218 9.71526 68.4035C9.71269 68.2744 9.70827 68.1456 9.70384 68.0167C9.69697 67.8168 9.69009 67.6165 9.69009 67.4142ZM31.1277 31.2944C28.486 33.5301 25.0696 34.8783 21.3392 34.8783C20.769 34.8783 20.2055 34.8465 19.6517 34.7853C16.8383 38.9513 14.5498 43.4983 12.8788 48.3351C15.0039 49.0179 17.2373 49.4633 19.5463 49.6373C22.0862 42.706 26.0676 36.4705 31.1277 31.2944ZM29.3856 23.6868C27.9028 25 26.4879 26.3876 25.1451 27.843C26.9869 26.9796 28.486 25.5078 29.3856 23.6868Z" fill="#FFFFFE" fill-opacity="0.58"/>
<defs>
<radialGradient id="paint0_radial_3292_22" cx="0" cy="0" r="1" gradientUnits="userSpaceOnUse" gradientTransform="translate(43.0002 42.9999) rotate(90) scale(68.2187 68.1204)">
<stop stop-color="#F3C700"/>
<stop offset="1" stop-color="#D6342E"/>
</radialGradient>
</defs>
</svg>
