<svg width="86" height="76" viewBox="0 0 86 76" fill="none" xmlns="http://www.w3.org/2000/svg">
<path d="M28.0169 36.5665L28.7539 13.2025C28.8109 11.161 29.5479 9.8 32.0994 9.8H35.3319V2C35.3319 1.60218 35.4899 1.22065 35.7712 0.939341C36.0525 0.658036 36.4341 0.5 36.8319 0.5H48.9149C49.3127 0.5 49.6942 0.658036 49.9755 0.939341C50.2568 1.22065 50.4149 1.60218 50.4149 2V9.8H53.6469C56.2549 9.8 56.9354 11.161 56.9919 13.2025L57.7294 36.4535L46.9559 42.691V28.684C46.9559 26.756 45.3679 25.225 43.4969 25.225H42.3629C40.4349 25.225 38.9039 26.813 38.9039 28.684V42.8045L28.0169 36.5665ZM58.6189 38.1795L78.5704 50.497C80.3179 51.567 81.1329 52.883 79.8569 55.0835L78.2409 57.8705L85.0244 61.7705C85.3556 61.9609 85.6017 62.2705 85.7124 62.6361C85.8232 63.0017 85.7903 63.3958 85.6204 63.738L85.5744 63.823L79.5374 74.2345C79.3383 74.5778 79.0113 74.8281 78.6281 74.9309C78.2448 75.0336 77.8364 74.9802 77.4924 74.7825L70.6994 70.8775L69.0834 73.6645C67.7794 75.914 66.2554 75.8205 64.4514 74.8485L43.8614 63.8585L43.8229 51.449L56.0054 58.4525C57.6819 59.417 59.8074 58.813 60.7434 57.1995L61.3104 56.2215C62.2744 54.559 61.6589 52.445 60.0309 51.509L47.7504 44.449L58.6189 38.1795ZM27.3809 38.1795L7.42938 50.497C5.68188 51.567 4.86688 52.883 6.14288 55.0835L7.75888 57.8705L0.975376 61.7705C0.644165 61.9609 0.398078 62.2705 0.287323 62.6361C0.176567 63.0017 0.20949 63.3958 0.379375 63.738L0.425377 63.823L6.46238 74.2345C6.66144 74.5778 6.98841 74.8281 7.3717 74.9309C7.75498 75.0336 8.16334 74.9802 8.50738 74.7825L15.3004 70.8775L16.9164 73.6645C18.2204 75.914 19.7444 75.8205 21.5484 74.8485L42.1384 63.8585L42.1769 51.449L29.9944 58.4525C28.3179 59.417 26.1924 58.813 25.2564 57.1995L24.6894 56.2215C23.7254 54.559 24.3409 52.445 25.9689 51.509L38.2494 44.449L27.3809 38.1795Z" fill="#E50619"/>
</svg>
