<svg width="85" height="80" viewBox="0 0 85 80" fill="none" xmlns="http://www.w3.org/2000/svg">
<path fill-rule="evenodd" clip-rule="evenodd" d="M49.711 19.9358L51.9222 7.94179H83.4678L85 0H49.1901L46.9765 11.9351H27.5594L23.0922 35.8689H3.75284L0 55.866H19.2875L14.8275 79.7856H55.4299L59.9465 55.8895H74.4534L75.9408 47.9053L57.1342 47.8794L52.6365 71.8297H20.5581L21.2818 67.8836H49.1241L53.6336 43.8767L76.6834 43.8932L78.2369 35.942L50.9628 35.9184L46.4438 59.8569H22.7858L23.5236 55.8495L42.9432 55.9108L46.6984 35.9184L27.3189 35.8689L28.0638 31.8591H55.906L58.1997 19.9122L81.2 19.891L82.7087 11.8856L55.4747 11.9351L53.1857 23.9008H29.5701L30.3127 19.9358H49.711ZM20.8221 47.8794H5.74477L6.48733 43.8767H21.5623L20.8221 47.8794ZM40.9395 43.8767L40.1969 47.8181H25.0795L25.8173 43.8767H40.9395Z" fill="#005C42"/>
</svg>
