<?xml version="1.0" standalone="no"?><!DOCTYPE svg PUBLIC "-//W3C//DTD SVG 1.1//EN" "http://www.w3.org/Graphics/SVG/1.1/DTD/svg11.dtd"><svg t="1722074134909" class="icon" viewBox="0 0 1024 1024" version="1.1" xmlns="http://www.w3.org/2000/svg" p-id="12509" data-spm-anchor-id="a313x.search_index.0.i28.58003a81MpJiFE" xmlns:xlink="http://www.w3.org/1999/xlink" width="256" height="256"><path d="M621.5 425.5c1.4-2.7 2.7-6.8 2.7-12.3v-17.8c0-5.5-1.4-9.6-2.7-12.3-1.4-1.4-5.5-2.7-10.9-2.7h-96.9c-5.5 0-9.6 1.4-10.9 2.7-1.4 1.4-2.7 4.1-2.7 9.6v21.8c0 5.5 1.4 9.6 2.7 12.3 2.7 2.7 5.5 2.7 10.9 2.7h95.6c6.7 0.1 10.8-1.2 12.2-4z" fill="#2B5EE6" p-id="12510"></path><path d="M811 243.7c-1.4 1.4-147.5-21.8-300.4-68.3C380.9 221.9 213 245.1 213 245.1c-9.6 2.7-17.8 12.3-17.8 21.8V529c0 2.7 4.1 58.7 42.3 125.6 21.8 39.6 68.3 75.1 105.1 105.1 45.1 36.9 99.7 66.9 163.8 87.4l5.5 1.4 5.5-1.4c62.8-20.5 118.8-50.5 163.8-87.4 36.9-30 81.9-65.5 105.1-105.1 38.2-66.9 42.3-124.2 42.3-127v-262c0.2-9.6-8-19.2-17.6-21.9zM407.1 676.8c0 16.4-6.8 24.6-20.5 24.6-8.2 0-15-1.4-17.8-5.5-2.7-4.1-5.5-9.6-5.5-19.1V523.9c-6.8 9.6-13.7 15-20.5 16.4-6.8 1.4-12.3-1.4-17.8-5.5-6.8-4.1-10.9-10.9-10.9-16.4 0-6.8 4.1-15 12.3-25.9 16.4-21.8 28.7-45.1 38.2-68.3 9.6-23.2 17.8-47.8 24.6-73.7 2.7-10.9 5.5-17.8 9.6-23.2 4.1-5.5 10.9-6.8 20.5-5.5 9.6 1.4 15 5.5 16.4 10.9 1.4 6.8 1.4 15-2.7 27.3-4.1 15-8.2 28.7-12.3 41-4.1 12.3-9.6 24.6-13.7 35.5v240.3z m301.8-21.9c-1.4 2.7-2.7 6.8-5.5 10.9-5.5 6.8-12.3 9.6-19.1 8.2-6.8-1.4-15-6.8-23.2-13.7-17.7-13.7-32.8-27.3-45.1-39.6-12.3-13.7-23.2-27.3-32.8-41v99.7c0 8.2-1.4 15-5.5 17.8-2.7 4.1-9.6 5.5-16.4 5.5-8.2 0-13.7-1.4-17.8-5.5-4.1-4.1-6.8-9.6-6.8-17.8v-83.3c-8.2 10.9-16.4 20.5-25.9 30-9.6 9.6-21.8 20.5-36.9 31.4-12.3 9.6-21.8 13.7-30 15-8.2 1.4-13.7-1.4-19.1-8.2-2.7-4.1-4.1-6.8-5.5-9.6-1.4-2.7-1.4-6.8 0-9.6 1.4-4.1 2.7-6.8 6.8-10.9 2.7-4.1 8.2-8.2 15-12.3 4.1-2.7 9.6-6.8 16.4-12.3 6.8-5.5 12.3-10.9 19.1-16.4l20.5-20.5c6.8-6.8 13.7-15 19.1-23.2h-66.9c-8.2 0-15-1.4-19.1-5.5-4.1-4.1-5.5-9.6-5.5-16.4 0-8.2 1.4-13.7 5.5-16.4 4.1-4.1 9.6-5.5 19.1-5.5h86V477h-43.7c-15 0-25.9-4.1-31.4-10.9-5.5-6.8-8.2-17.7-8.2-31.4v-56c0-13.7 2.7-24.6 8.2-31.4 5.5-6.8 16.4-9.6 31.4-9.6h139.3c13.7 0 24.6 2.7 30 9.6 5.5 6.8 8.2 17.7 8.2 32.8v56c0 13.7-2.7 24.6-8.2 31.4-5.5 6.8-16.4 10.9-31.4 10.9h-49.2v28.7h102.4c8.2 0 15 1.4 17.8 5.5 2.7 4.1 5.5 9.6 5.5 16.4 0 6.8-1.4 12.3-5.5 16.4-4.1 4.1-9.6 5.5-17.8 5.5H609c13.7 16.4 27.3 30 39.6 42.3 13.7 12.3 24.6 21.8 35.5 28.7 6.8 4.1 12.3 9.6 15 13.7 4.1 4.1 5.5 8.2 6.8 10.9 4.3 1.6 4.3 4.3 3 8.4z" fill="#2B5EE6" p-id="12511"></path></svg>