<svg width="86" height="46" viewBox="0 0 86 46" fill="none" xmlns="http://www.w3.org/2000/svg">
<path d="M79.5825 0L80.1845 0.0499992L80.786 0.150002L81.338 0.299999L81.8895 0.5L82.391 0.75L82.8925 1.05L83.3435 1.4L84.146 2.2L84.497 2.65L84.798 3.15L85.0485 3.65L85.2495 4.2L85.3995 4.75L85.4495 5.4L85.5 6V39.55L85.45 40.15L85.35 40.75L85.199 41.3L84.999 41.85L84.748 42.35L84.447 42.85L84.096 43.3L83.2935 44.1L82.842 44.45L82.3405 44.75L81.839 45L81.2875 45.2L80.736 45.35L80.134 45.45L79.5325 45.5H6.4675L5.866 45.45L5.264 45.35L4.7125 45.2L4.161 45L3.6595 44.75L3.158 44.45L2.7065 44.1L1.904 43.3L1.553 42.85L1.252 42.35L1.0015 41.85L0.801001 41.3L0.650499 40.75L0.550501 40.1L0.5 39.5V5.95L0.549999 5.35L0.65 4.75L0.801001 4.2L1.001 3.65L1.252 3.15L1.553 2.65L1.904 2.2L2.7065 1.4L3.158 1.05L3.6595 0.75L4.161 0.5L4.7125 0.299999L5.264 0.150002L5.866 0.0499992L6.4675 0H79.5825ZM79.5825 0.950001H6.5675C3.8065 0.950001 1.5785 3.1255 1.505 5.86L1.503 6V39.5C1.503 42.2535 3.685 44.475 6.428 44.548L6.568 44.55H79.583C82.344 44.55 84.572 42.3745 84.6455 39.64L84.6475 39.5V6C84.5975 3.2 82.3405 0.950001 79.5825 0.950001ZM79.4755 2.666C81.3295 2.666 82.8325 4.1635 82.8325 6.011V28.825C82.8325 30.6725 81.3295 32.17 79.4755 32.17H6.525C4.671 32.17 3.168 30.6725 3.168 28.825V6.011C3.168 4.1635 4.671 2.666 6.525 2.666H79.4755ZM58.482 11.602H45.355C45.205 11.602 45.1045 11.702 45.1045 11.852V13C45.1045 13.15 45.2045 13.2495 45.3545 13.2495H50.766V19.0905H44.904C44.754 19.0905 44.6535 19.1905 44.6535 19.34V20.538C44.6535 20.688 44.7535 20.788 44.9035 20.788H50.766V23.034C50.766 23.184 50.866 23.284 51.0165 23.284H52.8205C52.9705 23.284 53.0705 23.184 53.0705 23.034V20.7875H58.933C59.083 20.7875 59.1835 20.6875 59.1835 20.538V19.34C59.1835 19.19 59.0835 19.09 58.9335 19.09H53.071V13.25H58.482C58.632 13.25 58.7325 13.15 58.7325 13V11.852C58.7325 11.702 58.632 11.602 58.482 11.602ZM19.501 10.953H17.5975C17.447 10.953 17.347 11.053 17.347 11.203V12.6005H12.637C11.785 12.6005 11.084 13.2995 11.084 14.148V19.24C11.084 20.089 11.785 20.7875 12.637 20.7875H17.347V22.9845C17.347 23.1345 17.447 23.234 17.597 23.234H19.501C19.6515 23.234 19.752 23.134 19.752 22.984V20.7875H24.462C25.3135 20.7875 26.015 20.089 26.015 19.24V14.148C26.015 13.2995 25.3135 12.6005 24.4615 12.6005H19.7515V11.2025C19.7515 11.0525 19.651 10.953 19.501 10.953ZM41.3465 11.3525H29.7225C28.8705 11.3525 28.169 12.0515 28.169 12.9V21.387C28.169 22.2355 28.8705 22.9345 29.7225 22.9345H41.3465C42.1985 22.9345 42.9 22.2355 42.9 21.387V12.9C42.9 12.0515 42.1985 11.3525 41.3465 11.3525ZM65.0455 14.2975H63.4925C63.3425 14.2975 63.242 14.3975 63.242 14.5475V15.546H60.787C60.637 15.546 60.5365 15.646 60.5365 15.7955V16.9435C60.5365 17.0935 60.6365 17.1935 60.7865 17.1935H63.0915V17.892C63.0915 18.741 63.4925 19.5395 64.4945 20.039C64.8955 20.239 65.3965 20.438 65.8975 20.688C64.9955 21.0375 64.144 21.237 63.2925 21.237H61.0875C60.9375 21.237 60.787 21.337 60.787 21.487V22.635C60.787 22.785 60.887 22.8845 61.0875 22.8845H63.242C64.094 22.8845 65.146 22.6845 66.048 22.385C66.3985 22.235 67.1 21.936 67.8515 21.5865C68.653 21.936 69.3045 22.2355 69.7055 22.385C70.6075 22.735 71.6595 22.8845 72.511 22.8845H74.666C74.816 22.8845 74.916 22.7845 74.916 22.6345V21.4865C74.916 21.3365 74.816 21.237 74.666 21.237H72.461C71.6095 21.237 70.8075 21.087 69.856 20.688C70.357 20.438 70.858 20.1885 71.2585 20.039C72.311 19.5395 72.6615 18.741 72.6615 17.892V17.243H74.9665C75.1165 17.243 75.2165 17.143 75.2165 16.9935V15.8455C75.317 15.6955 75.2165 15.5455 75.0665 15.5455H72.7615V14.5475C72.7615 14.3975 72.6615 14.2975 72.5115 14.2975H70.958C70.808 14.2975 70.6575 14.3975 70.6575 14.5475V15.546H65.2965V14.5475C65.2965 14.3975 65.1965 14.2975 65.0455 14.2975ZM40.7955 12.9V21.337H30.2235V12.9H40.7955ZM39.743 13.8485H31.326V15.2465H34.4825V16.195H31.7765V17.493H34.4825V18.8905H31.326V20.2885H39.743V18.2915H38.14V18.8905H36.5865V17.493H39.2925V16.245H36.5865V15.2465H39.743V13.8485ZM70.557 17.2435L70.607 17.7425C70.607 18.192 70.507 18.591 69.906 18.8905C69.405 19.1405 68.603 19.4895 67.9015 19.839C67.2 19.4895 66.3985 19.1405 65.8975 18.8905C65.2965 18.591 65.196 18.2415 65.196 17.7425V17.243L70.557 17.2435ZM17.297 14.3975V19.19H13.2385V14.3975H17.297ZM23.81 14.3975V19.19H19.752V14.3975H23.81ZM57.831 14.198H56.027C55.827 14.198 55.626 14.298 55.576 14.448L53.7725 17.942C53.7225 18.092 53.7725 18.192 53.9225 18.192H55.7265C55.9265 18.192 56.127 18.092 56.1775 17.942L57.981 14.4475C58.031 14.2975 57.981 14.198 57.831 14.198ZM47.71 14.198H45.906C45.756 14.198 45.6555 14.298 45.756 14.448L47.5595 17.942C47.6095 18.042 47.7595 18.192 48.0105 18.192H49.814C49.964 18.192 50.0645 18.092 49.964 17.942L48.1605 14.4475C48.1105 14.2975 47.9105 14.198 47.71 14.198ZM68.7535 10.903H66.9495C66.7995 10.903 66.6995 11.003 66.6995 11.153V11.8015H61.9395C61.1875 11.8015 60.5365 12.401 60.5365 13.1995V14.098C60.6365 14.248 60.7365 14.348 60.887 14.348H62.1395C62.29 14.348 62.39 14.248 62.39 14.098V13.3H73.413V14.0985C73.413 14.2485 73.513 14.3485 73.6635 14.3485H74.916C75.0665 14.3485 75.1665 14.2485 75.1665 14.0985V13.2C75.1665 13.016 75.1302 12.8339 75.0597 12.664C74.9891 12.4941 74.8857 12.3397 74.7554 12.2099C74.6252 12.08 74.4705 11.9771 74.3004 11.9071C74.1302 11.8371 73.948 11.8014 73.764 11.802H69.004V11.1535C69.004 11.0035 68.904 10.903 68.7535 10.903Z" fill="#EC681B"/>
<path d="M27.028 37.435C27.093 37.582 27.216 37.623 27.3955 37.5575C28.5385 37.035 29.2735 36.6105 29.6 36.284C29.796 36.137 29.9185 36.0635 29.9675 36.0635C30.0325 36.0795 30.155 36.1615 30.335 36.3085C31.0556 36.8073 31.8378 37.2106 32.662 37.5085C32.8415 37.5735 32.964 37.5335 33.029 37.386C33.062 37.223 32.9885 37.1005 32.809 37.0185C31.9878 36.7308 31.2123 36.3267 30.506 35.8185C30.2285 35.606 30.049 35.5 29.9675 35.5C29.8695 35.5 29.6895 35.606 29.4285 35.8185C28.7525 36.3521 27.9904 36.7664 27.175 37.0435C27.0115 37.125 26.9625 37.2555 27.028 37.435ZM32.833 41.085C32.948 41.0685 33.013 40.987 33.029 40.84C33.013 40.709 32.9475 40.644 32.833 40.644H31.437C31.4695 40.644 31.502 40.6275 31.535 40.595C31.731 40.35 31.968 39.9415 32.245 39.37C32.2945 39.223 32.2535 39.109 32.123 39.027C31.992 38.978 31.8945 39.027 31.829 39.174C31.6655 39.55 31.437 39.9255 31.143 40.301C31.045 40.4645 31.0615 40.5785 31.192 40.644H30.286V38.856H32.515C32.645 38.856 32.719 38.7825 32.735 38.6355C32.719 38.5045 32.645 38.431 32.515 38.415H30.286V37.6555H31.682C31.8125 37.6555 31.886 37.582 31.902 37.4355C31.886 37.3045 31.8125 37.2305 31.682 37.2145H28.3995C28.2525 37.231 28.1795 37.3045 28.1795 37.435C28.1795 37.582 28.2525 37.6555 28.3995 37.6555H29.7715V38.415H27.5915C27.4445 38.431 27.371 38.505 27.371 38.635C27.371 38.7825 27.4445 38.856 27.591 38.856H29.771V40.644H27.346C27.1995 40.644 27.126 40.709 27.126 40.84C27.126 40.987 27.1995 41.0685 27.346 41.085H32.833ZM28.4485 40.3745C28.5305 40.5375 28.6445 40.5865 28.7915 40.5215C28.906 40.4565 28.9305 40.3335 28.865 40.154C28.7084 39.8232 28.5283 39.504 28.326 39.199C28.212 39.084 28.0895 39.06 27.959 39.125C27.8445 39.223 27.828 39.3375 27.91 39.468C28.106 39.762 28.285 40.064 28.4485 40.3745ZM38.985 41.2805C39.0175 41.3955 39.1075 41.4355 39.2545 41.403C39.3845 41.3705 39.442 41.289 39.426 41.158C39.3605 40.8155 39.2135 40.358 38.985 39.7865C38.92 39.6725 38.8215 39.6315 38.691 39.664C38.5605 39.729 38.5195 39.8275 38.5685 39.958C38.5685 39.9905 38.6335 40.1865 38.7645 40.546L38.2255 40.6195V39.272H38.838C39.05 39.2885 39.1565 39.166 39.1565 38.905V36.627C39.1565 36.4145 39.034 36.3085 38.789 36.3085H38.2255V35.7695C38.209 35.639 38.1275 35.5655 37.9805 35.549C37.8335 35.5655 37.7605 35.639 37.7605 35.769V36.3085H37.2215C36.9435 36.3085 36.813 36.431 36.8295 36.6755V38.9535C36.7965 39.1985 36.9435 39.305 37.2705 39.272H37.7605V40.644C37.2215 40.6765 36.9435 40.701 36.9275 40.7175C36.764 40.7335 36.6825 40.8155 36.6825 40.9625C36.715 41.1095 36.813 41.1825 36.9765 41.1825C37.009 41.1665 37.646 41.085 38.8865 40.9375C38.936 41.134 38.9685 41.248 38.985 41.2805ZM36.3395 36.039C36.4865 36.039 36.5595 35.974 36.5595 35.843C36.5595 35.7125 36.4865 35.639 36.3395 35.6225H33.89C33.7265 35.639 33.637 35.7125 33.6205 35.8425C33.637 35.9735 33.7265 36.039 33.89 36.039H36.3395ZM35.8495 37.582C36.127 37.6145 36.258 37.476 36.2415 37.1655V36.749C36.258 36.4715 36.1355 36.341 35.874 36.3575H34.282C34.0045 36.3575 33.8735 36.4875 33.89 36.749V37.1655C33.8735 37.443 34.0045 37.582 34.282 37.582H35.8495ZM37.417 38.8315C37.303 38.8475 37.254 38.8065 37.2705 38.709V36.9205C37.254 36.8225 37.311 36.7655 37.4415 36.749H37.76V38.8315H37.417ZM38.7155 38.709C38.7155 38.807 38.6665 38.8475 38.5685 38.8315H38.2255V36.749H38.544C38.6585 36.749 38.7155 36.8145 38.7155 36.945V38.709ZM35.7025 37.1655H34.4535C34.3555 37.1655 34.3065 37.1165 34.3065 37.0185V36.8715C34.29 36.8065 34.331 36.7735 34.429 36.7735H35.7025C35.7845 36.7735 35.825 36.8065 35.825 36.8715V37.043C35.825 37.125 35.7845 37.1655 35.7025 37.1655ZM33.8165 41.256C33.947 41.24 34.0205 41.1745 34.0365 41.0605V38.513C34.0205 38.3985 34.078 38.3415 34.2085 38.3415H36.0455C36.1105 38.3415 36.1515 38.3985 36.168 38.513V40.644C36.168 40.791 36.021 40.8155 35.727 40.7175C35.5965 40.6685 35.507 40.701 35.4575 40.8155C35.425 40.946 35.474 41.0355 35.6045 41.085C36.225 41.2805 36.552 41.15 36.5845 40.693V38.3905C36.5845 38.0965 36.413 37.9495 36.07 37.9495H34.0615C33.7675 37.966 33.6205 38.0965 33.6205 38.3415V41.0605C33.6205 41.1745 33.6855 41.24 33.8165 41.256ZM35.0655 40.987C35.1965 40.9705 35.27 40.905 35.286 40.791V39.836H35.8495C36.062 39.705 36.062 39.566 35.8495 39.419H35.58C35.6831 39.2464 35.7734 39.0664 35.85 38.8805C35.866 38.8315 35.89 38.7825 35.923 38.7335C35.9555 38.5865 35.915 38.48 35.8005 38.415C35.6535 38.382 35.564 38.431 35.531 38.562C35.4495 38.758 35.3435 38.978 35.2125 39.223C35.1635 39.305 35.1555 39.37 35.188 39.419H34.3555C34.2085 39.4355 34.135 39.509 34.135 39.6395C34.135 39.77 34.2085 39.8355 34.355 39.8355H34.87V40.8155C34.87 40.9295 34.935 40.987 35.0655 40.987ZM34.527 39.223C34.592 39.37 34.69 39.4275 34.821 39.3945C34.951 39.3295 34.9925 39.223 34.9435 39.076C34.8945 38.978 34.8285 38.856 34.7475 38.709C34.7145 38.6435 34.6985 38.5945 34.6985 38.562C34.633 38.4475 34.535 38.407 34.4045 38.4395C34.274 38.5045 34.241 38.6025 34.3065 38.7335C34.3555 38.8475 34.4045 38.97 34.4535 39.1005C34.486 39.166 34.5105 39.207 34.527 39.223ZM42.9075 38.905C43.234 38.905 43.414 38.7335 43.4465 38.39C43.414 38.064 43.234 37.884 42.9075 37.8515C42.581 37.884 42.4095 38.064 42.393 38.3905C42.4095 38.717 42.5805 38.8885 42.9075 38.905ZM47.8835 41.305C48.0305 41.289 48.112 41.215 48.1285 41.085V38.4885C48.3735 38.7335 48.5695 39.0025 48.7165 39.2965C48.7815 39.4435 48.8875 39.468 49.0345 39.37C49.149 39.272 49.1735 39.15 49.108 39.0025C48.8129 38.593 48.4852 38.2081 48.128 37.8515V37.729H48.9365C49.198 37.5655 49.198 37.394 48.9365 37.2145H48.1285V36.2105C48.1775 36.2105 48.251 36.202 48.3485 36.1855C48.5935 36.153 48.7735 36.1125 48.8875 36.0635C49.0185 36.0145 49.0675 35.9165 49.0345 35.7695C48.9855 35.639 48.896 35.5815 48.7655 35.598C48.259 35.7285 47.6055 35.818 46.8055 35.8675C46.6755 35.8835 46.618 35.9655 46.634 36.1125C46.6505 36.2595 46.724 36.3325 46.8545 36.3325C47.1645 36.3325 47.4345 36.3165 47.663 36.284V37.2145H46.732C46.471 37.378 46.463 37.5495 46.7075 37.729H47.5895C47.312 38.4475 46.9445 38.9945 46.4875 39.37C46.3895 39.501 46.381 39.6315 46.4625 39.762C46.5605 39.8435 46.683 39.819 46.83 39.6885C47.1754 39.3587 47.4577 38.9686 47.663 38.5375V41.085C47.663 41.215 47.737 41.289 47.8835 41.305ZM51.386 41.3785C51.533 41.3625 51.615 41.2885 51.631 41.1585V39.7135C51.713 39.697 51.925 39.664 52.268 39.615C52.3825 39.599 52.4395 39.517 52.4395 39.37C52.407 39.207 52.3335 39.125 52.219 39.125C52.17 39.1415 52.064 39.158 51.9005 39.174C51.8115 39.1897 51.7214 39.1981 51.631 39.199V35.941C51.615 35.8105 51.533 35.737 51.386 35.7205C51.223 35.737 51.141 35.8105 51.141 35.9405V39.272C50.8635 39.321 50.488 39.3865 50.0145 39.468C49.606 39.533 49.2225 39.5905 48.863 39.6395C48.7165 39.6725 48.651 39.77 48.6675 39.9335C48.7165 40.0805 48.8145 40.146 48.961 40.1295C49.1245 40.113 49.3695 40.0805 49.696 40.0315C50.251 39.9335 50.733 39.8515 51.141 39.7865V41.183C51.141 41.297 51.223 41.3625 51.386 41.3785ZM50.529 37.386C50.6105 37.5165 50.7165 37.533 50.8475 37.435C50.9455 37.337 50.9615 37.215 50.8965 37.0675C50.6188 36.6594 50.2894 36.2889 49.9165 35.9655C49.786 35.884 49.6635 35.892 49.549 35.99C49.451 36.1205 49.4675 36.235 49.598 36.333C49.908 36.6105 50.2185 36.9615 50.529 37.386ZM50.1615 38.7335C50.2595 38.8635 50.3735 38.872 50.5045 38.758C50.6025 38.66 50.6105 38.5375 50.529 38.3905C50.2836 38.0156 49.9772 37.6844 49.6225 37.4105C49.492 37.329 49.3775 37.3455 49.2795 37.4595C49.1815 37.59 49.1895 37.6965 49.3045 37.778C49.6309 38.0573 49.9191 38.3789 50.1615 38.7335ZM58.6155 41.305C58.7955 41.354 58.9175 41.297 58.983 41.134C59.032 40.987 58.975 40.8805 58.8115 40.8155C58.338 40.6685 57.8155 40.3905 57.244 39.9825C57.7665 39.5415 58.1745 38.9535 58.469 38.219C58.583 37.8105 58.477 37.59 58.15 37.5575H56.9745V36.6755H58.5665C58.6975 36.6755 58.771 36.594 58.787 36.4305C58.771 36.284 58.697 36.202 58.567 36.1855H56.9745V35.8185C56.958 35.688 56.8765 35.6145 56.7295 35.598C56.566 35.598 56.4845 35.663 56.4845 35.794V36.186H55.064C54.9335 36.202 54.86 36.284 54.8435 36.431C54.86 36.594 54.9335 36.676 55.0635 36.676H56.4845V37.5575H55.358C55.211 37.574 55.129 37.6555 55.113 37.8025C55.129 37.966 55.203 38.0475 55.333 38.0475H57.8075C57.9055 38.08 57.9375 38.1535 57.9055 38.2675C57.6546 38.7936 57.2857 39.2547 56.8275 39.615C56.5825 39.468 56.215 39.0515 55.7255 38.366C55.6105 38.235 55.4885 38.211 55.358 38.2925C55.2435 38.3905 55.2355 38.5125 55.333 38.66C55.758 39.313 56.109 39.7455 56.3865 39.958C56.0435 40.2195 55.4965 40.4725 54.7455 40.7175C54.5655 40.7665 54.4925 40.8725 54.525 41.036C54.59 41.183 54.713 41.232 54.8925 41.183C55.5523 40.9513 56.1914 40.6645 56.803 40.3255C57.3673 40.7211 57.9755 41.0495 58.6155 41.305ZM53.325 41.2075C53.929 41.3375 54.2555 41.2075 54.305 40.8155V38.978C54.5985 38.864 54.819 38.7415 54.966 38.611C55.0475 38.5455 55.064 38.456 55.015 38.341C54.9335 38.227 54.8435 38.1945 54.745 38.2435C54.5495 38.374 54.4025 38.4555 54.305 38.4885V37.239H54.7945C54.925 37.239 54.9985 37.1655 55.0145 37.019C54.9985 36.888 54.925 36.8145 54.7945 36.798H54.3045V35.8675C54.288 35.753 54.2065 35.6875 54.0595 35.6715C53.9125 35.688 53.8395 35.753 53.8395 35.8675V36.798H53.2515C53.1205 36.8145 53.047 36.888 53.031 37.0185C53.047 37.1655 53.121 37.239 53.251 37.239H53.839V38.66C53.5125 38.807 53.259 38.8965 53.08 38.9295C52.933 38.9945 52.8755 39.1005 52.9085 39.2475C52.9575 39.3785 53.0635 39.419 53.227 39.37C53.423 39.3375 53.627 39.264 53.839 39.15V40.6685C53.8555 40.8155 53.7165 40.848 53.423 40.7665C53.2595 40.7175 53.153 40.7665 53.1045 40.9135C53.088 41.0435 53.162 41.142 53.325 41.2075Z" fill="#EC681B"/>
</svg>
