<svg width="86" height="73" viewBox="0 0 86 73" fill="none" xmlns="http://www.w3.org/2000/svg">
<path d="M51.877 49.029C59.8365 64.9175 79.617 62.309 84.035 48.777C84.035 48.777 85.3825 45.679 85.5 40.0095V12.2915L72.5665 0V33.8405C72.5665 33.8405 71.1555 50.0175 51.8815 49.029H51.877ZM37.1215 30.2665C36.7865 9.6235 62.9615 8.251 70.0835 23.0915C70.0835 23.0915 51.5245 23.3475 49.571 38.9065C49.571 38.9065 49.8105 58.099 35.1675 60.0755C35.1675 60.0755 19.3035 62.867 15.1475 49.276C15.1475 49.276 36.3975 52.241 37.121 30.2665H37.1215ZM1.6035 23.5305C1.6035 23.5305 0.5 28.2355 0.5 32.4905V60.204L13.4425 72.5L13.4475 38.6595C13.4475 38.6595 14.84 22.478 34.1365 23.4665C26.168 7.5735 6.0215 10.0035 1.6035 23.5305Z" fill="#012882"/>
</svg>
