<svg width="59" height="84" viewBox="0 0 59 84" fill="none" xmlns="http://www.w3.org/2000/svg">
<path d="M39.019 18.8705V27.735C39.019 29.0065 39.553 30.158 40.41 30.9935L46.5965 36.966C47.0065 37.361 47.0065 38.0085 46.5965 38.4035L40.4205 44.369C39.5555 45.2065 39.019 46.3615 39.019 47.6375V56.4995C49.778 56.4995 58.5 48.076 58.5 37.6845C58.5 27.295 49.778 18.8705 39.019 18.8705ZM45.9415 17.46C46.8065 18.2965 48.0025 18.814 49.3255 18.814H58.5C58.5 8.423 49.778 0 39.019 0C28.2605 0 19.54 8.423 19.54 18.814H28.7155C29.9725 18.8193 31.1827 18.3374 32.092 17.4695L38.275 11.495C38.685 11.1 39.355 11.1 39.765 11.495L45.9415 17.46ZM26.409 39.03L20.223 45.0035C19.8155 45.3985 19.1455 45.3985 18.7355 45.0035L12.56 39.0395C11.6496 38.1658 10.4353 37.6801 9.1735 37.685H0C0 48.0755 8.72 56.5 19.4795 56.5C30.238 56.5 38.9585 48.0755 38.9585 37.685H29.783C28.5266 37.6797 27.3172 38.1619 26.409 39.03ZM19.479 37.6285V28.7655C19.479 27.494 18.948 26.341 18.088 25.506L11.902 19.534C11.8048 19.4411 11.7275 19.3295 11.6746 19.2059C11.6218 19.0822 11.5945 18.9492 11.5945 18.8148C11.5945 18.6803 11.6218 18.5473 11.6746 18.4236C11.7275 18.3 11.8048 18.1884 11.902 18.0955L18.078 12.1305C18.9455 11.2945 19.4795 10.138 19.4795 8.8625V0C8.723 0 0 8.4235 0 18.815C0 29.205 8.7225 37.6285 19.479 37.6285Z" fill="#4ABDD2"/>
<path d="M31.027 34C32.663 34 34 32.6635 34 31.0275V26.472C34 24.837 32.663 23.5 31.027 23.5H26.473C24.837 23.5 23.5 24.837 23.5 26.472V31.027C23.5 32.6635 24.837 34 26.473 34H31.027Z" fill="#FBCF00"/>
<path d="M18.5 64.5H0V66.638H6.7775V82.968C6.7775 83.538 7.2645 84 7.866 84H10.634C11.233 84 11.72 83.538 11.72 82.9675V66.638H18.5V64.5ZM36.615 67.661C36.8655 67.3258 37.0006 66.9184 37 66.5C37 65.3955 36.075 64.5 34.9345 64.5H21.22V66.6385H31.852L19.7985 81.4185C19.597 81.6885 19.5 82.0195 19.5 82.3795C19.5 83.2845 20.2335 83.9965 21.1655 84H36.918V81.861H25.046L36.615 67.661ZM52.333 78.7175C52.333 80.8465 50.3915 82.261 48.533 82.261H44.645C43.946 82.241 43.3875 81.6945 43.38 81.0195V75.0515H48.47C50.2965 75.0515 52.333 76.296 52.333 78.7175ZM44.6375 66.237H48.032C49.928 66.237 51.647 67.4945 51.647 69.4C51.647 71.763 49.768 72.873 47.964 72.873H43.38V67.466C43.3925 66.7985 43.946 66.261 44.6375 66.237ZM53.614 73.7575C55.4495 72.905 56.312 71.107 56.312 69.2105C56.312 67.3195 54.76 64.5 50.249 64.5H40.1435C39.234 64.5 38.5 65.142 38.5 65.9345V82.403C38.5 83.303 39.234 84 40.1435 84H50.9375C55.4475 84 57 80.7975 57 78.6825C57 76.2745 55.9265 74.619 53.614 73.7575Z" fill="#4ABDD2"/>
</svg>
