<svg width="82" height="90" viewBox="0 0 82 90" fill="none" xmlns="http://www.w3.org/2000/svg">
<path d="M78.9998 59.8C78.9998 61.6 78.4998 63.3 77.5498 64.95L75.5498 63.3C74.2998 63.7 73.1998 65 73.0498 66.3L75.1498 67.85C73.1498 69.55 70.5998 70.45 68.0998 70.45C63.9998 70.45 58.4998 67.25 58.4998 62.9C58.4998 60.8 60.0998 58.55 62.4498 58.55C64.6498 58.55 66.4998 60.3 66.4998 62.4C66.4998 64.1 65.0498 65.9 63.2998 66.15L65.7998 68.1C67.7998 67.3 69.6498 64.95 69.6498 62.8C69.6498 62.05 69.4998 61.4 69.2498 60.85C69.5998 60.95 69.9998 60.95 70.3498 60.95C72.9498 60.95 75.3998 58.5 75.8998 56L73.3998 54V54.25C73.4998 56.25 71.4498 57.95 69.5498 57.95C67.3498 57.95 65.4998 56.15 65.4998 54C65.4998 51.7 67.9498 49.95 70.1998 49.95C75.1498 50 78.9998 55.2 78.9998 59.8ZM81.9998 68.8L79.8498 67C81.1998 64.85 81.8498 62.35 81.8498 59.8C81.8498 52.5 76.1998 46.75 68.9498 46.75C65.4498 46.75 62.0498 48.15 59.4498 50.5L58.8498 50L60.8498 47.6C60.4998 46.5 59.4998 45.7 58.3498 45.5L56.3498 48L44.4998 38.25L56.1498 28.75L57.7498 30.7L55.6498 32.45L57.2498 34.45L59.3998 32.7L60.9998 34.7L58.8998 36.45L60.4998 38.45L66.2498 33.75L60.1998 30.3L61.8498 28.95L67.4998 32.15L65.4998 26L67.0998 24.65L69.1998 31.35L75.0498 26.65L73.4498 24.55L71.2998 26.3L69.6498 24.3L71.7998 22.55L70.1998 20.55L68.0498 22.3L66.4498 20.3L71.1998 16.45C71.0498 15.1 69.9498 13.7 68.5998 13.35L43.2498 34.05V0.6C42.6498 0.2 41.8998 0 41.2498 0C40.5998 0 39.8498 0.15 39.2498 0.5V6.65H36.6498V3.9H34.0498V6.65H31.4998V3.9H28.9998V11.4L35.4498 8.8V10.9L29.4998 13.35L35.4498 15.75V17.9L28.9998 15.25V22.7H31.5498V19.95H34.0998V22.7H36.6998V19.95H39.2998V33.95L13.8998 13.35C12.6498 13.7 11.5498 15.1 11.3998 16.45L16.1498 20.3L14.5498 22.3L12.3998 20.5L10.7498 22.5L12.8998 24.25L11.2998 26.25L9.14981 24.5L7.49981 26.65L13.2998 31.35L15.3998 24.65L16.9998 26L15.0998 32.2L20.7998 29L22.3998 30.35L16.3498 33.8L22.0998 38.5L23.7498 36.5L21.5998 34.75L23.1998 32.75L25.3498 34.5L26.9998 32.5L24.8498 30.75L26.4498 28.8L38.1498 38.3L26.1998 48L24.1998 45.5C23.0998 45.65 22.0498 46.5 21.6998 47.6L23.6998 50L23.0998 50.5C20.5998 48.2 17.0998 46.75 13.5998 46.75C6.3498 46.75 0.699806 52.5 0.699806 59.8C0.699806 62.4 1.4498 64.85 2.7998 67L0.549805 68.8C0.699805 70.15 1.7998 71.45 3.0498 71.9L5.2998 70.05C7.8998 72.45 11.2998 73.9 14.7998 73.9C22.0498 73.9 27.6998 68.05 27.6998 60.95C27.6998 58.35 26.9498 55.85 25.6998 53.65L26.2998 53.15L28.2998 55.65C29.3998 55.5 30.4998 54.65 30.7998 53.55L28.7998 51.1L39.2998 42.5V56.3H36.0998C35.7498 56.8 35.5998 57.4 35.5998 58C35.5998 58.6 35.7498 59.1 35.9998 59.6H39.2498V60.35C32.6998 61.35 27.5498 66.75 27.5498 73.4C27.5498 80.25 32.6998 85.75 39.2498 86.65L39.3498 89.5C39.9498 89.85 40.5998 90 41.3498 90C41.9998 90 42.6998 89.85 43.2498 89.5V86.65C49.7998 85.7 55.0498 80.25 55.0498 73.4C55.0498 66.65 49.7998 61.25 43.2498 60.35V59.6H46.4998C46.7498 59.1 46.8998 58.6 46.8998 58C46.8998 57.4 46.7498 56.8 46.4998 56.3H43.2498V42.5L53.8998 51.1L51.8998 53.55C52.2498 54.65 53.2498 55.5 54.3998 55.65L56.3998 53.15L56.9998 53.65C55.6498 55.85 54.9998 58.35 54.9998 60.95C54.9998 68.1 60.6498 73.9 67.8998 73.9C71.3998 73.9 74.7998 72.5 77.3998 70.05L79.5498 71.9C80.8498 71.45 81.8498 70.15 81.9998 68.8ZM51.9998 73.45C51.9998 78.55 48.2998 82.65 43.3998 83.5V80.9C42.7998 80.55 42.1498 80.4 41.3998 80.4C40.7498 80.4 40.0998 80.55 39.3998 80.9L39.4998 83.5C34.5998 82.65 30.9498 78.6 30.9498 73.45C30.9498 70.05 32.3998 66.5 36.2498 66.5C38.3998 66.5 39.8998 68.25 39.8998 70.4C39.8998 72.4 38.1498 74.2 36.0998 74.2C35.1998 74.2 34.1998 73.9 33.5498 73.25V76.55C34.3498 76.95 35.3498 77.2 36.3498 77.2C38.5998 77.2 40.3498 76.55 41.3998 74.55C42.5498 76.55 44.2998 77.2 46.4998 77.2C47.3998 77.2 48.3998 76.95 49.2498 76.55V73.25C48.5998 73.9 47.5998 74.2 46.6998 74.2C44.6498 74.2 42.9998 72.4 42.9998 70.4C42.9998 68.25 44.3998 66.5 46.5498 66.5C50.4998 66.5 51.9998 70.05 51.9998 73.45ZM24.4998 62.95C24.4998 67.35 19.0498 70.5 14.8998 70.5C12.3998 70.5 9.84981 69.6 7.84981 67.9L9.94981 66.35C9.79981 65.05 8.69981 63.75 7.44981 63.35L5.44981 65C4.49981 63.35 3.99981 61.65 3.99981 59.85C3.99981 55.25 7.9498 50.05 12.7998 50.05C15.0498 50.05 17.4998 51.8 17.4998 54.1C17.4998 56.25 15.6498 58.05 13.4498 58.05C11.4498 58.05 9.3998 56.15 9.5998 54.1L7.09981 56.1C7.59981 58.6 10.0498 61.05 12.6498 61.05C12.9998 61.05 13.3998 61.05 13.7498 60.95C13.4998 61.5 13.3498 62.15 13.3498 62.9C13.3498 65 15.1998 67.4 17.1998 68.2L19.6998 66.25C17.9498 66 16.4998 64.2 16.4998 62.5C16.4998 60.4 18.3498 58.65 20.5498 58.65C22.8998 58.6 24.4998 60.8 24.4998 62.95Z" fill="black"/>
</svg>
