<?xml version="1.0" standalone="no"?><!DOCTYPE svg PUBLIC "-//W3C//DTD SVG 1.1//EN" "http://www.w3.org/Graphics/SVG/1.1/DTD/svg11.dtd"><svg t="1722079960819" class="icon" viewBox="0 0 1024 1024" version="1.1" xmlns="http://www.w3.org/2000/svg" p-id="4555" xmlns:xlink="http://www.w3.org/1999/xlink" width="256" height="256"><path d="M190.74048 195.57262222c-29.64366222 3.73191111-59.28618667 28.26922667-68.99029333 56.53390223-6.46599111 17.60142222-122.35207111 516.80028445-122.88568889 525.8695111-1.07975111 26.13248 14.01059555 45.33361778 38.80277333 50.13504 9.1648 2.13219555 303.44874667 2.13219555 313.15285334 0 28.02460445-5.33617778 54.43470222-27.20199111 64.13880888-53.86808888 3.77287111-10.13304889 123.42613333-518.93248 123.42613334-527.46808889 1.61792-24.00256-12.93880889-43.73617778-36.11079112-50.66865778-5.39192889-1.06268445-299.13543111-2.13219555-311.53493333-0.53475555z" fill="#E60012" p-id="4556"></path><path d="M465.08032 195.57262222c-29.64366222 3.73191111-59.28618667 28.26922667-68.98574222 56.53390223-5.93237333 17.60142222-122.34979555 516.80028445-122.34979556 525.8695111-1.08088889 26.13248 14.01059555 45.33361778 38.80732445 50.13504 9.15911111 2.13219555 303.44305778 2.13219555 313.14716444 0 28.02915555-5.33617778 54.43925333-27.20199111 64.13880889-53.86808888 3.77400889-10.13304889 123.42499555-518.93248 123.42499555-527.46808889 1.62019555-24.00256-12.93198222-43.73617778-36.10851555-50.66865778-5.93237333-1.06268445-299.67587555-2.13219555-312.07424-0.53475555z" fill="#00508E" p-id="4557"></path><path d="M751.28376889 195.57262222c-29.64366222 3.73191111-59.29187555 28.26922667-68.99143111 56.53390223-5.92668445 17.60142222-122.34979555 516.80028445-122.34979556 525.8695111-1.0752 26.13248 14.01742222 45.33361778 38.80732445 50.13504 9.1648 2.13219555 227.99132445 2.13219555 237.69088 0 28.02801778-5.33617778 54.43925333-27.20199111 64.13880888-53.86808888 3.77287111-10.13304889 123.43068445-518.93248 123.43068445-527.46808889 1.61336889-24.00256-12.93767111-43.73617778-36.11648-50.66865778-5.38624-1.59744-251.16216889-2.66581333-263.56053333-1.06268445h26.95054222v0.52906667z" fill="#00908C" p-id="4558"></path><path d="M181.57681778 357.70595555c0 0.53475555-0.54158222 3.73418667-1.61564445 6.93475556-12.39722667 41.59943111-24.79559111 97.59971555-23.17653333 104.53219556 4.31217778 20.80199111 35.03559111 19.20113778 45.81376-2.66581334 3.23356445-5.86410667 26.41009778-103.46496 26.41009778-110.39630222 0-0.53475555 36.65009778 0 36.65009777 0.52792889 0 0 0 1.60199111-0.54044444 3.20512-0.53930667 1.59630222-6.46599111 23.99687111-12.93198222 50.66410667-14.55786667 56.53390222-16.17123555 62.39800889-23.71697778 73.59829333-24.79559111 36.27008-107.79989333 35.20284445-114.26588444-1.59744-1.61792-8.00085333 16.17123555-100.26552889 24.25742222-125.33646222 0-1.59630222 43.11608889-0.53361778 43.11608889 0.53475555z m550.84259555 0c24.79217778 5.33617778 32.33564445 25.06524445 21.01703112 54.40398223-11.31747555 29.33191111-35.56920889 42.12963555-78.14940445 42.12963555-12.93767111 0-11.85905778-2.13219555-19.94410667 37.86752-1.61450667 7.46609778-3.23242667 14.39971555-3.23242666 15.46695112-0.54158222 2.66581333-38.8096 2.66581333-38.26915556 0 32.34247111-137.06581333 35.03559111-148.79857778 35.03559111-149.8680889l0.53930667-1.59516444h38.80277333c30.72341333 0.52792889 39.34776889 0.52792889 44.20039111 1.59630222z m-332.55196444 52.80199112c5.38737778 1.06723555 9.15911111 5.33617778 9.15911111 9.06808888 0 13.33134222-27.48871111 22.40056889-37.72871111 12.26410667-9.69955555-10.13191111 10.78044445-25.6 28.5696-21.33333333z m-95.40152889 10.13077333c0 1.06951111-0.53930667 3.20512-0.53930667 4.80142222l-0.53930666 2.13674667 6.46599111-3.20398222c17.24871111-8.52992 33.95584-6.93361778 39.34776889 3.73304888 3.23242667 6.40455111 2.69312 10.1376-5.92782222 49.60142223-1.61792 6.93361778-3.77173333 16.53646222-4.31217778 21.33105777-2.15836445 10.67235555-0.53930667 10.1376-19.94296889 10.1376-16.71054222 0-16.71054222 0-16.17009778-1.6019911 0-1.06723555 2.15722667-9.59715555 4.31217778-19.73475556 8.62435555-37.86183111 9.1648-43.19800889 1.61792-43.19800889-4.31217778 0-10.24455111 2.66581333-10.77816889 4.26666667-1.07861333 3.73418667-10.78385778 50.13048889-11.32316444 54.39943111l-1.0752 4.80142222-16.71054223 1.06723555c-20.47772445 0.53475555-18.86435555 2.13105778-14.55217777-16.00170666 5.92782222-23.46780445 9.1648-39.99744 11.3197511-54.93191111 2.69312-16.00056889 1.07861333-14.39857778 16.17009778-16.53418667 7.00643555-1.06951111 14.01173333-2.13219555 16.17123556-2.66581333 5.38737778-1.60312889 6.46599111-1.06951111 6.46599111 1.59630222z m256.01592889-0.52792889c0 1.06154667-0.53930667 3.19829333-0.53930667 4.79687111l-0.54158222 2.66922667 6.47168-3.20398222c33.41653333-17.06439111 46.34965333-3.20056889 36.65009778 40.53674666-2.15381333 9.59829333-4.85262222 23.46439111-6.46599111 29.86666667-1.07975111 6.93361778-2.69880889 12.79772445-3.23356445 13.33134222-2.15950222 2.13219555-33.95584 1.60426667-33.42222222 0 0-1.06723555 2.15950222-9.59715555 4.31331555-19.2 9.16593778-38.93020445 9.16593778-43.73162667 1.07975112-43.73162667-6.46599111 0-9.69955555 2.13105778-10.77816889 6.93134223-1.62019555 5.86524445-9.70524445 44.26638222-10.78044445 51.2l-1.07861333 5.86865777-16.71054222 0.53475556c-20.47886222 0.52906667-18.86435555 2.66467555-14.01287111-17.07008 5.39306667-21.33333333 9.16593778-41.06695111 11.85905778-55.46552889 2.15381333-13.86609778 0.53930667-12.26752 14.01173333-14.39971555 5.93123555-1.06723555 13.47811555-2.13674667 16.17237333-2.66467556 5.39079111-2.67150222 7.00529778-2.13674667 7.00529778 0z m327.16458666-0.53475556c2.15267555 32.53134222 2.69425778 42.12963555 2.69425778 42.66439112 0 0.53475555 4.85148445-8.00085333 10.23886222-18.66638222 10.77816889-21.33219555 8.62435555-19.20113778 20.48227556-20.79857778 3.23356445-0.53361778 9.69955555-1.60312889 14.55217778-2.66467556 11.85905778-2.13674667 11.85905778-3.20512-1.61905778 20.26382222-18.32391111 31.46865778-43.65425778 75.73504-52.81905778 91.73560889-27.48529778 49.59687111-27.48529778 49.59687111-50.66183111 50.13048889l-14.01287111 0.53475556 1.0752-3.73418667c0.53930667-2.13105778 2.15836445-6.39772445 2.69653334-9.59715555l1.61564444-5.86979556h4.31217778c4.85262222 0 5.92668445-1.06951111 10.24-8.53560889 1.61905778-2.66467555 4.31217778-6.93248 5.39079111-9.59715555 1.61564445-2.66581333 7.00643555-11.20028445 11.31975111-19.73475556l8.62435556-14.93333334-2.15836445-19.72906666c-2.69312-22.93532445-5.92668445-50.13617778-7.54460445-58.13703111-1.08088889-7.46609778-1.08088889-7.46609778 8.62435556-8.53333333 4.31217778-0.53020445 11.31861333-2.13219555 15.09148444-2.66581334 10.23886222-3.19943111 11.31747555-3.19943111 11.85792-2.13219556z m-406.39488 0.53475556c41.50158222 7.46609778 26.94940445 78.92764445-18.32504888 89.06524444-30.72341333 6.93361778-51.74044445-4.80142222-51.74044445-28.27036444 0.53475555-41.06581333 31.25703111-67.73191111 70.06435556-60.79488z m310.45404445 2.13105778c2.15381333 1.06723555 5.39192889 3.19943111 7.00643555 4.80142222 2.69312 2.66467555 2.69312 2.66467555 2.69312 1.06268444 0.54044445-2.13105778 0-2.13105778 21.56202667-5.33048888 17.24643555-2.66467555 16.70712889-2.66467555 15.63192889 2.13219555-7.00643555 29.86552889-12.93767111 55.99800889-15.63192889 68.80142223-3.77173333 19.20113778-1.07861333 17.06439111-22.09678222 16.53077333h-17.78915555v-2.13219556c0-2.13105778-1.0752-3.19943111-2.15495112-1.60085333-5.93123555 9.60284445-35.03445333 5.86865778-43.11950222-5.86524444-19.93955555-29.86666667 22.63722667-92.79943111 53.89767111-78.39971556z m-386.99121778 15.46808889s0 2.66467555-0.53930667 4.80028444c-4.30762667 17.06552889-11.85336889 51.73361778-13.47356444 58.13134223l-1.61792 8.00085333-17.78574222 0.53361777c-21.01703111 0.53475555-19.94296889 1.59744-15.63079111-11.19914666 3.77287111-12.26865778 7.54688-27.20199111 9.70524444-43.20369778 2.15267555-13.86496 0-11.73390222 15.63079111-13.86496 7.00529778-1.06951111 14.55217778-2.13105778 16.16554667-2.66467556 4.31217778-1.06837333 7.00643555-1.06837333 7.54574222-0.53475555z m94.32177778 110.39630222c0 0.53475555-1.07406222 2.67150222-2.69312 5.33617778-1.08088889 2.66467555-2.69312 4.80142222-2.69312 4.80142222 31.79633778 0.52792889 32.87608889 0.52792889 32.33564445 2.13105778l-5.92668445 19.20113777h-46.35306667l-2.69312 2.13105778c-5.93237333 5.33504-37.18940445 12.26752-37.18940444 7.99971556l5.92782222-19.2h4.31104c7.54574222 0 9.15911111-1.59744 15.63079111-12.79658667l5.38737778-10.1376c28.03029333-0.52906667 33.95470222 0 33.95470222 0.53475556z m70.61048889 0c0 0.53475555-0.54044445 3.19943111-1.62019556 6.40455111-1.07861333 2.66467555-1.61223111 5.33048889-1.61223111 5.86410667 0 0 2.69198222-1.06951111 5.92440889-3.73191111 11.85905778-8.00199111 22.09792-9.59943111 52.28088889-9.59943112 11.85905778 0 22.09792 0 22.63722667 0.52906667 0.54044445 1.06837333-17.24416 58.66951111-19.94296889 64-3.77287111 6.93816889-7.54688 10.67121778-13.47128889 13.33589333l-5.39306667 2.13219556-30.71772444 0.53475556-30.72341333 0.53248-5.39079112 18.13276444c-10.77930667 34.66808889-10.77930667 32.00341333 4.85148445 30.40142222 12.39836445-1.06951111 11.85905778-2.13105778 8.08618667 10.66552889l-3.23356445 10.66666667h-15.63079111c-33.95584 0.53475555-38.26801778-1.59744-35.03559111-15.46695111 1.61905778-6.93361778 40.42296889-133.86638222 40.96227555-134.93475556 0.53930667-0.52906667 28.02915555-0.52906667 28.02915556 0.53475556z m141.74890666 0c0 0.53475555-0.53930667 2.13560889-1.07406222 4.26666667-1.61905778 5.33617778-1.61905778 5.33617778 5.38737778 1.60426666 9.16366222-4.80256 30.72227555-6.40455111 74.91697778-6.40455111h14.01742222v6.40455111c0 7.46609778 0.54044445 7.99857778 7.00643556 9.06353778l4.85148444 0.53361778-2.69880889 9.60284444-2.69198222 9.59715556h-9.70524445c-24.79104 0.53475555-28.56277333-2.13105778-29.10435555-16.52963556v-6.93816888l-1.61336889 4.80142222-1.61905778 5.33617778H763.67644445c-2.69312 0-5.38737778 0-5.38737778 0.53475555 0 0-26.40896 86.92736-30.18296889 99.19601778-0.53930667 1.06951111 0 1.60312889 3.23470222 1.60312889 4.85148445 0 4.85148445 0 3.23242667 4.26097778-1.61450667 4.80256-1.61450667 4.80256 3.77287111 4.80256 3.77287111 0 5.93237333-0.53475555 8.62435555-2.13105778 3.77400889-2.13674667 3.77400889-1.60199111 21.01816889-25.6l7.00643556-10.13646222h-14.55217778c-17.78460445 0-16.16440889 1.06837333-12.93198222-9.59715556l2.69312-8.53560889h35.57603555c3.23242667-11.20028445 4.30648889-14.39971555 4.30648889-14.93333333 0-0.53475555-7.54574222-0.53475555-17.24416-0.53475556h-17.24643555l5.38737778-19.2h48.50688c26.41009778 0 48.51256889 0 48.51256888 0.53475556 0 0.53361778-1.07861333 4.80142222-2.69653333 9.60284444l-2.69425778 9.06353778-16.17123555 0.53361778-16.16782222 0.53361778c-2.69653333 8.00085333-3.77173333 11.73390222-4.31104 12.80227555l-0.53930667 2.13105778h15.63079111c18.32504889 0 17.24529778-1.06723555 13.47128889 9.59829333l-2.69312 8.53447111h-35.57376l-5.38737778 6.39886223h14.01287111l2.15267556 12.80227555c2.15950222 14.39971555 2.15950222 14.39971555 9.1648 14.39971555 5.39306667 0 5.39306667-1.06951111 1.62019555 11.73276445l-3.23925333 10.66666667h-10.23886222c-17.78460445 0-21.01816889-2.66467555-24.25742222-20.79857778l-1.6133689-11.73390222-6.4659911 8.53560888c-17.79029333 23.99687111-18.86435555 24.53048889-41.50158223 24.5304889-14.55672889 0-14.55672889 0-12.39836444-4.26666667 0.54044445-2.13105778 0.54044445-2.13105778-3.77287111-2.13105778-4.31217778 0-4.31217778 0-5.39079112 3.19943111l-0.54044444 3.19829334H688.21902222l0.53930667-1.60199112c1.62019555-5.32935111 4.31217778-4.79573333-28.56391111-4.79573333-28.56846222 0-30.18183111 0-29.64252445-1.60312889l2.69425778-9.59715556c3.23242667-9.60284445 2.69312-9.60284445 5.92668444-9.60284444 2.69653333 0 2.69653333 0 3.77173334-3.73304889 25.33603555-83.73134222 33.42108445-110.39857778 34.49628444-114.13048889l2.15836445-6.93361778h15.09148444c9.69955555 0 16.70485333 0.52906667 16.70485333 1.06268445z m-191.33667555 45.86837333l-5.93123555 18.66638222h-32.33564445c-3.23356445 10.66666667-4.31217778 13.86609778-4.85376 14.93333334-0.53930667 1.60312889 0.54044445 1.60312889 16.17237333 1.60312889 9.16366222 0 16.70940445 0.53475555 16.70940445 0.53475555 0 0.52792889-0.53930667 1.59516445-1.08088889 3.19715556-0.53816889 1.06382222-1.61792 5.33162667-2.69084444 9.59829333l-2.15950223 6.93248H470.47111111l-3.77287111 12.80227556c-5.39079111 18.13276445-4.85148445 18.66638222 15.63079111 16.00170667 8.62549333-1.06837333 8.08618667-2.13560889 4.31217778 10.66666666l-3.23242667 10.66552889h-22.64177777c-35.57034667 0-36.10965333-1.06837333-26.41009778-31.46865778 2.69880889-9.59829333 5.39306667-17.59914667 5.39306666-17.59914667s-3.77400889-0.53475555-9.16593778-0.53475555c-4.84693333 0-9.15911111 0-9.1591111-0.53361778 3.77173333-13.33020445 5.38624-17.59914667 5.38624-18.66638222 0.53930667-1.06268445 1.61905778-1.59630222 9.70524444-1.59630222h9.15911111l4.31217778-16.53646223h-8.61980445c-6.47168 0-8.62435555 0-8.62435555-1.06837333 0-1.06154667 4.85148445-16.52963555 5.38510222-18.13276444 1.08088889-1.06154667 82.46954667-0.53361778 81.92910222 0.53475555z m104.56177778 38.40227556c0 1.06723555-1.07975111 4.26666667-1.61564445 6.93248-3.23811555 14.93333333-7.54460445 18.13276445-24.79445333 19.2-5.92668445 0.53475555-11.31861333 1.06723555-11.31861333 1.06723556-1.07975111 1.59857778-1.07975111 14.40085333 0 16.5319111l1.61905778 2.1356089 10.77816888-0.53475556c5.92782222-0.53361778 10.77930667-0.53361778 10.77930667-0.53361778 0 1.06837333-5.92782222 19.73475555-6.46712889 20.26382222-1.07861333 1.06951111-33.95470222 0.53475555-38.26801778-1.06268444-6.46599111-2.13674667-6.46599111-1.60312889-5.93237333-35.20284444l0.54158222-29.33191112h27.48871111v11.20028445h5.39306667c5.92554667 0 6.46485333-0.53475555 9.15911111-8.00199111l1.61792-4.26666667h10.78044444c9.69841778 0.53475555 10.77816889 0.53475555 10.23886223 1.60312889z m50.66524444-228.26780444l-5.93123555 25.6h8.08618666c41.50158222 1.06723555 58.75143111-46.40312889 18.32391112-49.60256-6.46712889-0.53475555-12.39381333-1.06837333-12.93312-1.06837334-1.61792 0-1.61792 1.60426667-7.54460445 25.07093334z m-214.51889777 36.26552888c-10.23886222 4.26666667-19.93841778 42.66780445-11.85223112 48.53304889 5.92554667 4.80142222 14.55217778-3.19943111 18.86435556-16.53077333 7.00643555-24.53617778 4.84693333-36.27008-7.01212444-32.00227556z m321.23904 2.66467556c-10.78385778 5.33617778-18.86435555 43.20256-10.78385778 47.46922666 10.78385778 5.86524445 24.79672889-14.39744 24.79672888-36.26894222 0-10.13191111-5.93237333-14.93333333-14.0128711-11.20028444zM564.25472 569.97774222l-2.69425778 9.59829333c-1.61792 4.80142222-2.69312 9.06808889-3.23242667 9.59715556 0 0.53475555 2.69312-0.52906667 6.46599112-2.66581333 10.77816889-5.33048889 14.01287111-6.39772445 29.64252444-6.93134223l13.47811556-0.53475555c2.15381333-6.39772445 2.69425778-9.06353778 2.69425778-9.59715555 0.53930667-0.53475555-45.81489778-0.53475555-46.35420445 0.53475555z m-9.15911111 30.93048889l-2.16064 8.53333334 46.35420444-0.53475556 2.69425778-8.53333334c-36.65009778 0-46.88782222 0-46.88782222 0.53475556z m146.60039111-19.20113778c-2.15722667 6.93703111-3.77173333 12.26752-3.23242667 12.26752l6.46599112-2.13105778c3.23356445-1.06951111 9.1648-2.67036445 12.39836444-3.1994311 3.23242667-0.53361778 5.92668445-1.06951111 6.46599111-1.06951112 0 0 5.39306667-16.53418667 5.39306667-17.06780444 0 0-5.39306667-0.52906667-11.85905778-0.52906667H705.46773333l-3.77287111 11.73048889z m-8.62435555 27.20085334c0 0.53361778-2.15381333 5.86979555-3.7740089 12.26752-2.15267555 6.39886222-3.77173333 12.26865778-3.77173333 12.26865778 0 0.52906667 2.69312-0.53475555 6.46599111-2.13674667 3.77287111-1.59630222 9.1648-3.19943111 12.39836445-3.73191111 7.00529778-1.06951111 7.54460445-1.59744 8.08618667-4.26780445 0.53930667-1.06382222 1.61792-5.33048889 2.69198222-8.52992l2.15950222-6.40341333H705.46773333c-6.46599111 0-12.39836445 0-12.39836444 0.53361778z m-18.86435556 61.33532444l23.71697778 0.53475556c4.85148445-16.00170667 6.46599111-21.33788445 6.46599111-21.87150222l-23.71584-1.06268445-6.46712889 22.39943111z" fill="#FFFFFF" p-id="4559"></path></svg>