<?xml version="1.0" standalone="no"?><!DOCTYPE svg PUBLIC "-//W3C//DTD SVG 1.1//EN" "http://www.w3.org/Graphics/SVG/1.1/DTD/svg11.dtd"><svg t="1722074367277" class="icon" viewBox="0 0 1024 1024" version="1.1" xmlns="http://www.w3.org/2000/svg" p-id="24113" xmlns:xlink="http://www.w3.org/1999/xlink" width="256" height="256"><path d="M15.81056 308.78208h993.22368c14.95552 0 14.95552-11.55584 14.95552-11.55584V191.2832c0-28.50816-23.33184-51.84-51.84512-51.84H51.84C23.33184 139.4432 0 162.76992 0 191.2832v98.7904c0 18.70848 15.81056 18.70848 15.81056 18.70848z" fill="#e6b52a" p-id="24114"></path><path d="M1002.39872 419.08224H16.32256C0 419.08224 0 432.04096 0 432.04096v400.67584c0 28.50816 23.32672 51.84 51.84 51.84h920.31488c28.50304 0 51.84512-23.3216 51.84512-51.84V440.20736c-0.00512 0-0.00512-21.12512-21.60128-21.12512zM157.26592 581.15072a18.44224 18.44224 0 0 1-18.3808 18.39104H72.02816a18.45248 18.45248 0 0 1-18.38592-18.39104V517.12a18.43712 18.43712 0 0 1 18.38592-18.37568h66.85696a18.43712 18.43712 0 0 1 18.3808 18.37568v64.03072z m141.79328 0a18.44736 18.44736 0 0 1-18.38592 18.39104H213.82656a18.45248 18.45248 0 0 1-18.3808-18.39104V517.12a18.432 18.432 0 0 1 18.3808-18.37568H280.6784A18.43712 18.43712 0 0 1 299.06432 517.12v64.03072z m350.0288 47.83104c0 2.65216-0.60416 5.48864-1.83296 8.50944l-64.11264 158.0288c-6.69184 16.61952-17.42848 24.92928-32.20992 24.92928-13.98784 0-24.42752-8.30976-31.31904-24.92928L454.57408 637.4912c-1.21344-3.03104-1.8176-5.8624-1.8176-8.50944 0-5.8624 2.2272-10.63936 6.67648-14.27968 4.6592-3.82976 9.92768-5.76 15.80544-5.76 9.73312 0 16.4096 4.64896 20.06016 13.9776l53.18144 135.84896c1.01888 2.432 1.82784 3.64032 2.44736 3.64032 0.60928 0 1.51552-1.408 2.72384-4.25984l53.19168-135.23968c3.65056-9.3184 10.22464-13.97248 19.75296-13.97248 5.86752 0 11.136 1.93024 15.7952 5.74976 4.45952 3.65568 6.69696 8.43264 6.69696 14.29504z m78.69952 169.61024c0 14.57152-7.48544 21.8624-22.4768 21.8624-13.5936 0-20.37248-7.38816-20.37248-22.17984v-167.45984c0-14.60224 6.77888-21.86752 20.37248-21.86752 14.99136 0 22.4768 7.2704 22.4768 21.86752v167.77728z m231.5776-118.8608c0 18.24768-6.08256 33.84832-18.23232 46.8224-12.1344 13.17888-27.55584 19.74784-46.19776 19.74784h-77.48608v54.08768c0 13.3888-7.1936 20.06016-21.57056 20.06016-14.39232 0-21.59616-6.67136-21.59616-20.06016v-153.75872c0-9.73824 3.33824-17.54112 10.01984-23.41888 6.6816-5.85216 15.40608-8.80128 26.14272-8.80128h87.22944c18.23232 0 33.23904 6.5792 44.96384 19.74784 11.1616 12.38016 16.72704 27.5712 16.72704 45.57312z m-42.83392 0.31744c0-7.69024-2.23232-14.06976-6.6816-19.13856-4.46976-4.86912-10.04032-7.30112-16.72192-7.30112h-67.75296c-5.2992 0-7.92576 3.33824-7.92576 10.04032v43.14112h75.67872c6.48192 0 12.05248-2.53952 16.72192-7.59808 4.44928-5.07392 6.6816-11.45344 6.6816-19.14368z" fill="#e6b52a" p-id="24115"></path></svg>