<?xml version="1.0" standalone="no"?><!DOCTYPE svg PUBLIC "-//W3C//DTD SVG 1.1//EN" "http://www.w3.org/Graphics/SVG/1.1/DTD/svg11.dtd"><svg t="1722079359089" class="icon" viewBox="0 0 1069 1024" version="1.1" xmlns="http://www.w3.org/2000/svg" p-id="4512" xmlns:xlink="http://www.w3.org/1999/xlink" width="267.25" height="256"><path d="M509.912457 1024c-25.850892-33.236861-55.394769-62.780738-81.245661-92.324615L971.535531 322.332928c-22.157908-14.771938-44.315815-25.850892-73.859692-14.771939-29.543877 11.078954-51.701784 48.0088-73.859692 73.859692-14.771938 14.771938-36.929846 40.622831-55.394769 59.087754-7.385969 11.078954-14.771938 14.771938-22.157907 7.385969-3.692985-3.692985 14.771938-25.850892 18.464923-29.543877 59.087753-66.473723 125.561476-136.64043 180.956245-203.114153-18.464923-11.078954-44.315815-25.850892-73.859692-18.464923-18.464923 3.692985-36.929846 33.236861-51.701784 48.0088-40.622831 48.0088-77.552676 81.245661-118.175507 129.254461-7.385969 7.385969-18.464923 25.850892-25.850892 14.771938-3.692985-7.385969 14.771938-25.850892 22.157907-29.543876 62.780738-66.473723 125.561476-140.333414 184.64923-206.807138-18.464923-14.771938-48.0088-22.157908-70.166707-14.771938-22.157908 3.692985-36.929846 29.543877-55.394769 44.315815-40.622831 44.315815-77.552676 84.938646-114.482523 129.254461-7.385969 7.385969-18.464923 22.157908-25.850892 11.078954-3.692985-11.078954 11.078954-18.464923 14.771939-25.850893 51.701784-55.394769 107.096553-118.175507 158.798337-177.26326-18.464923-14.771938-55.394769-18.464923-81.245661-7.385969-25.850892 11.078954-51.701784 51.701784-70.166707 70.166707-48.0088 51.701784-81.245661 92.324615-132.947446 144.026399-25.850892 25.850892-51.701784 48.0088-88.63163 48.0088-81.245661 0-107.096553-99.710584-184.649229-103.403569-55.394769-3.692985-96.017599 36.929846-96.0176 88.631631 11.078954 7.385969 22.157908 3.692985 36.929846 7.385969 70.166707 18.464923 62.780738 92.324615 81.245661 166.184306 33.236861 129.254461 140.333414 184.64923 254.815937 236.351014-36.929846 44.315815-73.859692 84.938646-114.482522 125.561476C292.026366 780.263017 184.929813 658.394525 74.140275 536.526034 29.82446 488.517234-3.412401 433.122465 0.280583 348.18382c7.385969-103.403569 77.552676-173.570276 166.184307-195.728184 84.938646-22.157908 155.105353 7.385969 206.807137 48.0088 14.771938 11.078954 29.543877 36.929846 51.701784 40.622831 25.850892 0 62.780738-51.701784 77.552677-70.166708 73.859692-81.245661 125.561476-155.105353 265.89489-169.877291 73.859692-7.385969 144.026399 25.850892 180.956245 55.394769 44.315815 33.236861 81.245661 77.552676 103.403569 132.947445 22.157908 62.780738 18.464923 144.026399 0 199.421168-22.157908 59.087753-59.087753 99.710584-96.017599 140.333415-151.412368 166.184307-299.131752 332.368613-446.851136 494.859935" fill="#E60A11" p-id="4513"></path></svg>