<svg width="72" height="85" viewBox="0 0 72 85" fill="none" xmlns="http://www.w3.org/2000/svg">
<path d="M69.8103 40.1049C69.102 40.08 66.3738 40.8665 65.4646 41.0515C64.0063 41.3507 62.5446 41.6555 61.0863 41.9384C53.7072 43.3735 44.7497 44.3471 37.1689 44.3536C35.6484 44.3549 33.3774 44.1823 31.9689 44.3261C31.1314 45.4105 30.3089 46.4094 29.5267 47.6853C27.1635 51.5338 25.603 55.4202 24.9471 60.1359C24.3482 64.479 24.6912 71.1094 26.5054 75.0851C27.1909 76.5846 28.669 78.3833 28.4728 78.8023C27.7151 79.5278 26.1873 79.0135 25.2085 78.7538C18.6361 77.0104 11.7988 73.112 9.22478 66.3293C6.29789 58.6098 9.52013 50.7109 13.3271 44.0951C13.8237 43.2318 14.4376 42.4106 14.8528 41.6096C14.4947 41.3657 12.0401 40.6265 11.3296 40.3474C10.7526 40.1199 10.2439 39.9066 9.64205 39.658C9.11531 39.4382 8.58643 39.0892 7.99744 38.9686C4.44207 43.5976 1.29667 51.1608 0.317467 57.2185C-0.624393 63.0478 0.553146 67.9524 3.53499 72.7403C4.60306 74.4596 6.01198 75.8595 6.36228 76.4124C5.49297 77.0572 -2.89061 79.1689 1.25589 81.4278C4.65028 83.2755 15.3142 83.9945 19.3916 84.2594C29.7207 84.9304 41.2394 85.5017 51.4586 84.3006C55.524 83.8232 61.9363 82.8247 64.5502 80.6469C66.8091 78.7632 64.8507 76.9598 63.9986 74.9035C61.8174 69.6421 65.1843 59.2812 66.804 53.9602C68.091 49.7377 69.269 44.7798 69.8103 40.1049ZM13.8753 26.7909C14.6008 26.8369 16.1591 27.355 17.0361 27.5349C18.0123 27.7362 19.347 28.1054 20.3305 28.1574C19.593 25.5984 19.4264 23.9336 20.5468 21.1368C22.9075 15.2482 28.4131 11.3662 35.5144 11.0403C40.8715 10.7943 44.7527 13.2902 46.4793 16.7812C48.5339 20.9393 47.3735 25.8602 44.8296 29.5637C46.864 29.5959 49.538 29.2542 51.5951 29.0344C53.7874 28.7975 55.9731 28.5033 58.15 28.1522C62.3218 27.4825 66.4412 26.6179 70.3499 25.5533C69.7313 21.527 69.5446 19.4097 67.9742 15.5298C66.8091 12.645 65.2663 10.0684 63.2066 7.89836C59.4992 3.99012 53.6059 0.808229 46.047 0.152705C32.8687 -0.989203 21.0216 4.27731 15.4314 15.8123C15.0511 16.5996 14.845 17.3406 14.5098 18.0845C12.4427 18.1129 10.793 18.1592 9.04104 18.8113C5.27232 20.2164 4.90399 22.9977 9.36902 25.1558C10.7397 25.8182 13.7864 26.7373 13.8753 26.7909Z" fill="#040000"/>
<path d="M44.8296 29.5637C40.9059 29.929 35.9295 29.7798 31.9912 29.5398C29.9632 29.417 27.9408 29.2676 25.9433 29.0157C24.552 28.8392 21.4711 28.5553 20.3305 28.1574C19.347 28.1054 18.0123 27.7362 17.0361 27.5349C16.1591 27.355 14.6008 26.8369 13.8753 26.7909C13.637 27.1799 13.2716 27.6067 12.9758 28.0339C12.0245 29.4067 11.2166 30.9346 10.5259 32.4156C9.55697 34.4981 8.73188 36.6819 7.99651 38.9679C8.58549 39.0885 9.11437 39.4375 9.64111 39.6573C10.2425 39.9059 10.7517 40.1196 11.3286 40.3467C12.0391 40.6262 14.4938 41.3654 14.8518 41.6089L18.8 42.5825C21.6101 43.2397 24.5271 43.6398 27.4016 43.9343C27.9185 43.9867 31.8646 44.2093 31.9689 44.3261C33.3774 44.1823 35.6484 44.3549 37.1689 44.3536C44.7497 44.3471 53.7072 43.3735 61.0863 41.9384C62.5446 41.6555 64.0063 41.3507 65.4646 41.0515C66.3738 40.8665 69.102 40.08 69.8103 40.1049C70.8286 35.6124 71.9825 30.1149 70.3499 25.5533C66.4412 26.6179 62.3218 27.4825 58.15 28.1522C55.9731 28.5033 53.7874 28.7975 51.5951 29.0344C49.538 29.2542 46.864 29.5959 44.8296 29.5637Z" fill="#D10C18"/>
<path d="M30.5176 17.4419C25.4417 18.1267 26.4407 25.5941 31.4895 24.9742C33.3651 24.7441 34.9831 22.9553 34.7345 20.7578C34.5134 18.8174 32.6967 17.1479 30.5176 17.4419Z" fill="#040000"/>
</svg>
